<ttFont>
    <TTGlyph name=".notdef" xMin="33" yMin="0" xMax="298" yMax="666">
      <contour>
        <pt x="33" y="0" on="1"/>
        <pt x="33" y="666" on="1"/>
        <pt x="298" y="666" on="1"/>
        <pt x="298" y="0" on="1"/>
      </contour>
      <contour>
        <pt x="66" y="33" on="1"/>
        <pt x="265" y="33" on="1"/>
        <pt x="265" y="633" on="1"/>
        <pt x="66" y="633" on="1"/>
      </contour>
    </TTGlyph>
    <TTGlyph name="A" xMin="64" yMin="0" xMax="619" yMax="700">
      <contour>
        <pt x="239" y="165" on="1"/>
        <pt x="167" y="36" on="1"/>
        <pt x="147" y="0" on="0"/>
        <pt x="109" y="0" on="1"/>
        <pt x="73" y="0" on="0"/>
        <pt x="64" y="32" on="1"/>
        <pt x="59" y="53" on="0"/>
        <pt x="71" y="75" on="1"/>
        <pt x="396" y="664" on="1"/>
        <pt x="415" y="700" on="0"/>
        <pt x="494" y="700" on="0"/>
        <pt x="502" y="664" on="1"/>
        <pt x="619" y="75" on="1"/>
        <pt x="623" y="53" on="0"/>
        <pt x="610" y="32" on="1"/>
        <pt x="590" y="0" on="0"/>
        <pt x="554" y="0" on="1"/>
        <pt x="537" y="0" on="0"/>
        <pt x="512" y="20" on="0"/>
        <pt x="509" y="36" on="1"/>
        <pt x="483" y="165" on="1"/>
      </contour>
      <contour>
        <pt x="300" y="275" on="1"/>
        <pt x="461" y="275" on="1"/>
        <pt x="418" y="490" on="1"/>
      </contour>
    </TTGlyph>
    <TTGlyph name="AE" xMin="39" yMin="6" xMax="1100" yMax="712">
      <contour>
        <pt x="62" y="6" on="0"/>
        <pt x="36" y="35" on="0"/>
        <pt x="43" y="78" on="0"/>
        <pt x="56" y="92" on="1"/>
        <pt x="495" y="669" on="1"/>
        <pt x="525" y="712" on="0"/>
        <pt x="574" y="712" on="1"/>
        <pt x="1055" y="712" on="1"/>
        <pt x="1078" y="712" on="0"/>
        <pt x="1104" y="679" on="0"/>
        <pt x="1096" y="634" on="0"/>
        <pt x="1059" y="602" on="0"/>
        <pt x="1036" y="602" on="1"/>
        <pt x="712" y="602" on="1"/>
        <pt x="680" y="420" on="1"/>
        <pt x="959" y="420" on="1"/>
        <pt x="981" y="420" on="0"/>
        <pt x="1008" y="387" on="0"/>
        <pt x="1000" y="342" on="0"/>
        <pt x="962" y="310" on="0"/>
        <pt x="939" y="310" on="1"/>
        <pt x="660" y="310" on="1"/>
        <pt x="627" y="122" on="1"/>
        <pt x="956" y="122" on="1"/>
        <pt x="979" y="122" on="0"/>
        <pt x="1005" y="89" on="0"/>
        <pt x="997" y="44" on="0"/>
        <pt x="960" y="12" on="0"/>
        <pt x="937" y="12" on="1"/>
        <pt x="547" y="12" on="1"/>
        <pt x="521" y="12" on="0"/>
        <pt x="491" y="48" on="0"/>
        <pt x="496" y="74" on="1"/>
        <pt x="515" y="181" on="1"/>
        <pt x="251" y="181" on="1"/>
        <pt x="145" y="40" on="1"/>
        <pt x="119" y="6" on="0"/>
      </contour>
      <contour>
        <pt x="333" y="290" on="1"/>
        <pt x="534" y="290" on="1"/>
        <pt x="589" y="605" on="1"/>
        <pt x="569" y="605" on="1"/>
      </contour>
    </TTGlyph>
    <TTGlyph name="Aacute" xMin="64" yMin="0" xMax="619" yMax="950">
      <component glyphName="A" x="0" y="0" flags="0x1004"/>
      <component glyphName="acute" x="158" y="200" flags="0x1004"/>
    </TTGlyph>
    <TTGlyph name="Acircumflex" xMin="65" yMin="0" xMax="649" yMax="946">
      <contour>
        <pt x="240" y="165" on="1"/>
        <pt x="168" y="36" on="1"/>
        <pt x="148" y="0" on="0"/>
        <pt x="110" y="0" on="1"/>
        <pt x="74" y="0" on="0"/>
        <pt x="66" y="32" on="1"/>
        <pt x="60" y="53" on="0"/>
        <pt x="72" y="75" on="1"/>
        <pt x="397" y="664" on="1"/>
        <pt x="416" y="700" on="0"/>
        <pt x="495" y="700" on="0"/>
        <pt x="503" y="664" on="1"/>
        <pt x="620" y="75" on="1"/>
        <pt x="624" y="53" on="0"/>
        <pt x="611" y="32" on="1"/>
        <pt x="591" y="0" on="0"/>
        <pt x="555" y="0" on="1"/>
        <pt x="538" y="0" on="0"/>
        <pt x="513" y="20" on="0"/>
        <pt x="510" y="36" on="1"/>
        <pt x="484" y="165" on="1"/>
      </contour>
      <contour>
        <pt x="301" y="275" on="1"/>
        <pt x="462" y="275" on="1"/>
        <pt x="419" y="490" on="1"/>
      </contour>
      <contour>
        <pt x="510" y="862" on="1"/>
        <pt x="444" y="817" on="1"/>
        <pt x="405" y="790" on="0"/>
        <pt x="362" y="790" on="1"/>
        <pt x="350" y="790" on="0"/>
        <pt x="338" y="801" on="0"/>
        <pt x="343" y="817" on="0"/>
        <pt x="360" y="834" on="1"/>
        <pt x="451" y="917" on="1"/>
        <pt x="483" y="946" on="0"/>
        <pt x="518" y="946" on="1"/>
        <pt x="554" y="946" on="1"/>
        <pt x="588" y="946" on="0"/>
        <pt x="603" y="917" on="1"/>
        <pt x="644" y="834" on="1"/>
        <pt x="652" y="819" on="0"/>
        <pt x="649" y="810" on="1"/>
        <pt x="643" y="790" on="0"/>
        <pt x="574" y="790" on="0"/>
        <pt x="548" y="817" on="1"/>
      </contour>
    </TTGlyph>
    <TTGlyph name="Adieresis" xMin="65" yMin="0" xMax="659" yMax="920">
      <contour>
        <pt x="240" y="165" on="1"/>
        <pt x="168" y="36" on="1"/>
        <pt x="148" y="0" on="0"/>
        <pt x="110" y="0" on="1"/>
        <pt x="74" y="0" on="0"/>
        <pt x="66" y="32" on="1"/>
        <pt x="60" y="53" on="0"/>
        <pt x="72" y="75" on="1"/>
        <pt x="397" y="664" on="1"/>
        <pt x="416" y="700" on="0"/>
        <pt x="495" y="700" on="0"/>
        <pt x="503" y="664" on="1"/>
        <pt x="620" y="75" on="1"/>
        <pt x="624" y="53" on="0"/>
        <pt x="611" y="32" on="1"/>
        <pt x="591" y="0" on="0"/>
        <pt x="555" y="0" on="1"/>
        <pt x="538" y="0" on="0"/>
        <pt x="513" y="20" on="0"/>
        <pt x="510" y="36" on="1"/>
        <pt x="484" y="165" on="1"/>
      </contour>
      <contour>
        <pt x="301" y="275" on="1"/>
        <pt x="462" y="275" on="1"/>
        <pt x="419" y="490" on="1"/>
      </contour>
      <contour>
        <pt x="579" y="920" on="0"/>
        <pt x="634" y="920" on="0"/>
        <pt x="664" y="885" on="0"/>
        <pt x="659" y="858" on="1"/>
        <pt x="654" y="826" on="0"/>
        <pt x="607" y="790" on="0"/>
        <pt x="552" y="790" on="0"/>
        <pt x="521" y="824" on="0"/>
        <pt x="527" y="851" on="1"/>
        <pt x="532" y="884" on="0"/>
      </contour>
      <contour>
        <pt x="380" y="920" on="0"/>
        <pt x="435" y="920" on="0"/>
        <pt x="465" y="885" on="0"/>
        <pt x="460" y="858" on="1"/>
        <pt x="455" y="826" on="0"/>
        <pt x="408" y="790" on="0"/>
        <pt x="353" y="790" on="0"/>
        <pt x="322" y="824" on="0"/>
        <pt x="328" y="851" on="1"/>
        <pt x="333" y="884" on="0"/>
      </contour>
    </TTGlyph>
    <TTGlyph name="Agrave" xMin="65" yMin="0" xMax="620" yMax="950">
      <contour>
        <pt x="240" y="165" on="1"/>
        <pt x="168" y="36" on="1"/>
        <pt x="148" y="0" on="0"/>
        <pt x="110" y="0" on="1"/>
        <pt x="74" y="0" on="0"/>
        <pt x="66" y="32" on="1"/>
        <pt x="60" y="53" on="0"/>
        <pt x="72" y="75" on="1"/>
        <pt x="397" y="664" on="1"/>
        <pt x="416" y="700" on="0"/>
        <pt x="495" y="700" on="0"/>
        <pt x="503" y="664" on="1"/>
        <pt x="620" y="75" on="1"/>
        <pt x="624" y="53" on="0"/>
        <pt x="611" y="32" on="1"/>
        <pt x="591" y="0" on="0"/>
        <pt x="555" y="0" on="1"/>
        <pt x="538" y="0" on="0"/>
        <pt x="513" y="20" on="0"/>
        <pt x="510" y="36" on="1"/>
        <pt x="484" y="165" on="1"/>
      </contour>
      <contour>
        <pt x="301" y="275" on="1"/>
        <pt x="462" y="275" on="1"/>
        <pt x="419" y="490" on="1"/>
      </contour>
      <contour>
        <pt x="582" y="811" on="1"/>
        <pt x="582" y="790" on="0"/>
        <pt x="509" y="790" on="0"/>
        <pt x="481" y="817" on="1"/>
        <pt x="413" y="881" on="1"/>
        <pt x="396" y="896" on="0"/>
        <pt x="396" y="925" on="0"/>
        <pt x="443" y="950" on="0"/>
        <pt x="498" y="950" on="0"/>
        <pt x="516" y="921" on="1"/>
        <pt x="573" y="833" on="1"/>
        <pt x="582" y="819" on="0"/>
      </contour>
    </TTGlyph>
    <TTGlyph name="Aring" xMin="85" yMin="0" xMax="639" yMax="857">
      <contour>
        <pt x="319" y="275" on="1"/>
        <pt x="481" y="275" on="1"/>
        <pt x="438" y="490" on="1"/>
      </contour>
      <contour>
        <pt x="529" y="35" on="1"/>
        <pt x="502" y="165" on="1"/>
        <pt x="259" y="165" on="1"/>
        <pt x="188" y="35" on="1"/>
        <pt x="167" y="0" on="0"/>
        <pt x="129" y="0" on="1"/>
        <pt x="94" y="0" on="0"/>
        <pt x="86" y="32" on="1"/>
        <pt x="80" y="53" on="0"/>
        <pt x="91" y="75" on="1"/>
        <pt x="395" y="628" on="1"/>
        <pt x="370" y="645" on="0"/>
        <pt x="346" y="701" on="0"/>
        <pt x="351" y="732" on="1"/>
        <pt x="352" y="734" on="1"/>
        <pt x="361" y="784" on="0"/>
        <pt x="451" y="857" on="0"/>
        <pt x="553" y="857" on="0"/>
        <pt x="617" y="784" on="0"/>
        <pt x="608" y="734" on="1"/>
        <pt x="607" y="732" on="1"/>
        <pt x="596" y="667" on="0"/>
        <pt x="528" y="629" on="1"/>
        <pt x="639" y="75" on="1"/>
        <pt x="643" y="53" on="0"/>
        <pt x="630" y="32" on="1"/>
        <pt x="609" y="0" on="0"/>
        <pt x="573" y="0" on="1"/>
        <pt x="556" y="0" on="0"/>
        <pt x="532" y="19" on="0"/>
      </contour>
      <contour>
        <pt x="451" y="685" on="0"/>
        <pt x="491" y="685" on="0"/>
        <pt x="524" y="712" on="0"/>
        <pt x="527" y="732" on="1"/>
        <pt x="528" y="734" on="1"/>
        <pt x="531" y="754" on="0"/>
        <pt x="508" y="781" on="0"/>
        <pt x="468" y="781" on="0"/>
        <pt x="435" y="754" on="0"/>
        <pt x="432" y="734" on="1"/>
        <pt x="431" y="732" on="1"/>
        <pt x="428" y="712" on="0"/>
      </contour>
    </TTGlyph>
    <TTGlyph name="Atilde" xMin="65" yMin="0" xMax="695" yMax="942">
      <contour>
        <pt x="240" y="165" on="1"/>
        <pt x="168" y="36" on="1"/>
        <pt x="148" y="0" on="0"/>
        <pt x="110" y="0" on="1"/>
        <pt x="74" y="0" on="0"/>
        <pt x="66" y="32" on="1"/>
        <pt x="60" y="53" on="0"/>
        <pt x="72" y="75" on="1"/>
        <pt x="397" y="664" on="1"/>
        <pt x="416" y="700" on="0"/>
        <pt x="495" y="700" on="0"/>
        <pt x="503" y="664" on="1"/>
        <pt x="620" y="75" on="1"/>
        <pt x="624" y="53" on="0"/>
        <pt x="611" y="32" on="1"/>
        <pt x="591" y="0" on="0"/>
        <pt x="555" y="0" on="1"/>
        <pt x="538" y="0" on="0"/>
        <pt x="513" y="20" on="0"/>
        <pt x="510" y="36" on="1"/>
        <pt x="484" y="165" on="1"/>
      </contour>
      <contour>
        <pt x="301" y="275" on="1"/>
        <pt x="462" y="275" on="1"/>
        <pt x="419" y="490" on="1"/>
      </contour>
      <contour>
        <pt x="399" y="803" on="1"/>
        <pt x="386" y="783" on="0"/>
        <pt x="351" y="783" on="0"/>
        <pt x="329" y="803" on="0"/>
        <pt x="329" y="825" on="0"/>
        <pt x="333" y="839" on="1"/>
        <pt x="350" y="885" on="0"/>
        <pt x="397" y="930" on="0"/>
        <pt x="465" y="930" on="0"/>
        <pt x="563" y="890" on="0"/>
        <pt x="579" y="890" on="1"/>
        <pt x="608" y="890" on="0"/>
        <pt x="625" y="922" on="1"/>
        <pt x="638" y="942" on="0"/>
        <pt x="673" y="942" on="0"/>
        <pt x="695" y="922" on="0"/>
        <pt x="695" y="900" on="0"/>
        <pt x="691" y="886" on="1"/>
        <pt x="674" y="840" on="0"/>
        <pt x="627" y="795" on="0"/>
        <pt x="559" y="795" on="0"/>
        <pt x="461" y="835" on="0"/>
        <pt x="445" y="835" on="1"/>
        <pt x="416" y="835" on="0"/>
      </contour>
    </TTGlyph>
    <TTGlyph name="B" xMin="110" yMin="-1" xMax="588" yMax="699">
      <contour>
        <pt x="155" y="-1" on="1"/>
        <pt x="132" y="-1" on="0"/>
        <pt x="106" y="32" on="0"/>
        <pt x="110" y="54" on="1"/>
        <pt x="214" y="644" on="1"/>
        <pt x="218" y="667" on="0"/>
        <pt x="256" y="699" on="0"/>
        <pt x="279" y="699" on="1"/>
        <pt x="420" y="699" on="1"/>
        <pt x="499" y="699" on="0"/>
        <pt x="590" y="587" on="0"/>
        <pt x="577" y="508" on="1"/>
        <pt x="565" y="444" on="0"/>
        <pt x="519" y="395" on="1"/>
        <pt x="560" y="366" on="0"/>
        <pt x="598" y="270" on="0"/>
        <pt x="588" y="213" on="1"/>
        <pt x="572" y="124" on="0"/>
        <pt x="424" y="-1" on="0"/>
        <pt x="336" y="-1" on="1"/>
      </contour>
      <contour>
        <pt x="355" y="110" on="1"/>
        <pt x="398" y="110" on="0"/>
        <pt x="470" y="170" on="0"/>
        <pt x="477" y="213" on="1"/>
        <pt x="485" y="256" on="0"/>
        <pt x="435" y="317" on="0"/>
        <pt x="392" y="317" on="1"/>
        <pt x="267" y="317" on="1"/>
        <pt x="230" y="110" on="1"/>
      </contour>
      <contour>
        <pt x="460" y="475" on="0"/>
        <pt x="472" y="541" on="0"/>
        <pt x="433" y="588" on="0"/>
        <pt x="400" y="588" on="1"/>
        <pt x="315" y="588" on="1"/>
        <pt x="286" y="428" on="1"/>
        <pt x="372" y="428" on="1"/>
        <pt x="405" y="428" on="0"/>
      </contour>
    </TTGlyph>
    <TTGlyph name="C" xMin="107" yMin="0" xMax="751" yMax="700">
      <contour>
        <pt x="404" y="0" on="1"/>
        <pt x="256" y="0" on="0"/>
        <pt x="82" y="204" on="0"/>
        <pt x="133" y="495" on="0"/>
        <pt x="379" y="700" on="0"/>
        <pt x="527" y="700" on="1"/>
        <pt x="654" y="700" on="0"/>
        <pt x="736" y="624" on="1"/>
        <pt x="752" y="610" on="0"/>
        <pt x="749" y="564" on="0"/>
        <pt x="715" y="528" on="0"/>
        <pt x="669" y="523" on="0"/>
        <pt x="653" y="537" on="1"/>
        <pt x="593" y="589" on="0"/>
        <pt x="405" y="589" on="0"/>
        <pt x="234" y="448" on="0"/>
        <pt x="218" y="350" on="1"/>
        <pt x="200" y="252" on="0"/>
        <pt x="320" y="111" on="0"/>
        <pt x="511" y="111" on="0"/>
        <pt x="587" y="163" on="1"/>
        <pt x="607" y="177" on="0"/>
        <pt x="652" y="171" on="0"/>
        <pt x="674" y="135" on="0"/>
        <pt x="660" y="89" on="0"/>
        <pt x="639" y="76" on="1"/>
        <pt x="530" y="0" on="0"/>
      </contour>
    </TTGlyph>
    <TTGlyph name="Ccedilla" xMin="107" yMin="-160" xMax="751" yMax="700">
      <contour>
        <pt x="404" y="0" on="1"/>
        <pt x="256" y="0" on="0"/>
        <pt x="82" y="204" on="0"/>
        <pt x="133" y="495" on="0"/>
        <pt x="379" y="700" on="0"/>
        <pt x="527" y="700" on="1"/>
        <pt x="654" y="700" on="0"/>
        <pt x="736" y="624" on="1"/>
        <pt x="752" y="610" on="0"/>
        <pt x="749" y="564" on="0"/>
        <pt x="715" y="528" on="0"/>
        <pt x="669" y="523" on="0"/>
        <pt x="653" y="537" on="1"/>
        <pt x="593" y="589" on="0"/>
        <pt x="405" y="589" on="0"/>
        <pt x="234" y="448" on="0"/>
        <pt x="218" y="350" on="1"/>
        <pt x="200" y="252" on="0"/>
        <pt x="320" y="111" on="0"/>
        <pt x="511" y="111" on="0"/>
        <pt x="587" y="163" on="1"/>
        <pt x="607" y="177" on="0"/>
        <pt x="652" y="171" on="0"/>
        <pt x="674" y="135" on="0"/>
        <pt x="660" y="89" on="0"/>
        <pt x="639" y="76" on="1"/>
        <pt x="530" y="0" on="0"/>
      </contour>
      <contour>
        <pt x="463" y="10" on="1"/>
        <pt x="402" y="-131" on="1"/>
        <pt x="390" y="-160" on="0"/>
        <pt x="343" y="-160" on="0"/>
        <pt x="293" y="-131" on="0"/>
        <pt x="293" y="-104" on="0"/>
        <pt x="301" y="-93" on="1"/>
        <pt x="372" y="10" on="1"/>
      </contour>
    </TTGlyph>
    <TTGlyph name="D" xMin="110" yMin="0" xMax="685" yMax="700">
      <contour>
        <pt x="155" y="0" on="1"/>
        <pt x="132" y="0" on="0"/>
        <pt x="106" y="33" on="0"/>
        <pt x="110" y="56" on="1"/>
        <pt x="213" y="645" on="1"/>
        <pt x="217" y="668" on="0"/>
        <pt x="256" y="700" on="0"/>
        <pt x="279" y="700" on="1"/>
        <pt x="397" y="700" on="1"/>
        <pt x="542" y="700" on="0"/>
        <pt x="710" y="495" on="0"/>
        <pt x="685" y="350" on="1"/>
        <pt x="668" y="255" on="0"/>
        <pt x="546" y="94" on="0"/>
        <pt x="368" y="0" on="0"/>
        <pt x="273" y="0" on="1"/>
      </contour>
      <contour>
        <pt x="392" y="111" on="0"/>
        <pt x="557" y="251" on="0"/>
        <pt x="591" y="450" on="0"/>
        <pt x="476" y="589" on="0"/>
        <pt x="377" y="590" on="1"/>
        <pt x="314" y="590" on="1"/>
        <pt x="230" y="111" on="1"/>
        <pt x="293" y="111" on="1"/>
      </contour>
    </TTGlyph>
    <TTGlyph name="E" xMin="109" yMin="-2" xMax="650" yMax="698">
      <contour>
        <pt x="155" y="-2" on="1"/>
        <pt x="132" y="-2" on="0"/>
        <pt x="105" y="30" on="0"/>
        <pt x="109" y="53" on="1"/>
        <pt x="213" y="643" on="1"/>
        <pt x="217" y="666" on="0"/>
        <pt x="255" y="698" on="0"/>
        <pt x="278" y="698" on="1"/>
        <pt x="604" y="698" on="1"/>
        <pt x="627" y="698" on="0"/>
        <pt x="654" y="666" on="0"/>
        <pt x="645" y="620" on="0"/>
        <pt x="607" y="587" on="0"/>
        <pt x="585" y="587" on="1"/>
        <pt x="314" y="587" on="1"/>
        <pt x="281" y="403" on="1"/>
        <pt x="515" y="403" on="1"/>
        <pt x="538" y="403" on="0"/>
        <pt x="564" y="371" on="0"/>
        <pt x="556" y="325" on="0"/>
        <pt x="518" y="293" on="0"/>
        <pt x="495" y="293" on="1"/>
        <pt x="262" y="293" on="1"/>
        <pt x="229" y="109" on="1"/>
        <pt x="500" y="109" on="1"/>
        <pt x="523" y="109" on="0"/>
        <pt x="550" y="76" on="0"/>
        <pt x="541" y="30" on="0"/>
        <pt x="503" y="-2" on="0"/>
        <pt x="481" y="-2" on="1"/>
      </contour>
    </TTGlyph>
    <TTGlyph name="Eacute" xMin="109" yMin="-2" xMax="650" yMax="950">
      <contour>
        <pt x="155" y="-2" on="1"/>
        <pt x="132" y="-2" on="0"/>
        <pt x="105" y="30" on="0"/>
        <pt x="109" y="53" on="1"/>
        <pt x="213" y="643" on="1"/>
        <pt x="217" y="666" on="0"/>
        <pt x="255" y="698" on="0"/>
        <pt x="278" y="698" on="1"/>
        <pt x="604" y="698" on="1"/>
        <pt x="627" y="698" on="0"/>
        <pt x="654" y="666" on="0"/>
        <pt x="645" y="620" on="0"/>
        <pt x="607" y="587" on="0"/>
        <pt x="585" y="587" on="1"/>
        <pt x="314" y="587" on="1"/>
        <pt x="281" y="403" on="1"/>
        <pt x="515" y="403" on="1"/>
        <pt x="538" y="403" on="0"/>
        <pt x="564" y="371" on="0"/>
        <pt x="556" y="325" on="0"/>
        <pt x="518" y="293" on="0"/>
        <pt x="495" y="293" on="1"/>
        <pt x="262" y="293" on="1"/>
        <pt x="229" y="109" on="1"/>
        <pt x="500" y="109" on="1"/>
        <pt x="523" y="109" on="0"/>
        <pt x="550" y="76" on="0"/>
        <pt x="541" y="30" on="0"/>
        <pt x="503" y="-2" on="0"/>
        <pt x="481" y="-2" on="1"/>
      </contour>
      <contour>
        <pt x="481" y="817" on="1"/>
        <pt x="452" y="790" on="0"/>
        <pt x="380" y="790" on="0"/>
        <pt x="380" y="811" on="1"/>
        <pt x="380" y="821" on="0"/>
        <pt x="388" y="833" on="1"/>
        <pt x="445" y="921" on="1"/>
        <pt x="463" y="950" on="0"/>
        <pt x="518" y="950" on="0"/>
        <pt x="565" y="925" on="0"/>
        <pt x="565" y="896" on="0"/>
        <pt x="548" y="881" on="1"/>
      </contour>
    </TTGlyph>
    <TTGlyph name="Ecircumflex" xMin="109" yMin="-2" xMax="650" yMax="946">
      <contour>
        <pt x="155" y="-2" on="1"/>
        <pt x="132" y="-2" on="0"/>
        <pt x="105" y="30" on="0"/>
        <pt x="109" y="53" on="1"/>
        <pt x="213" y="643" on="1"/>
        <pt x="217" y="666" on="0"/>
        <pt x="255" y="698" on="0"/>
        <pt x="278" y="698" on="1"/>
        <pt x="604" y="698" on="1"/>
        <pt x="627" y="698" on="0"/>
        <pt x="654" y="666" on="0"/>
        <pt x="645" y="620" on="0"/>
        <pt x="607" y="587" on="0"/>
        <pt x="585" y="587" on="1"/>
        <pt x="314" y="587" on="1"/>
        <pt x="281" y="403" on="1"/>
        <pt x="515" y="403" on="1"/>
        <pt x="538" y="403" on="0"/>
        <pt x="564" y="371" on="0"/>
        <pt x="556" y="325" on="0"/>
        <pt x="518" y="293" on="0"/>
        <pt x="495" y="293" on="1"/>
        <pt x="262" y="293" on="1"/>
        <pt x="229" y="109" on="1"/>
        <pt x="500" y="109" on="1"/>
        <pt x="523" y="109" on="0"/>
        <pt x="550" y="76" on="0"/>
        <pt x="541" y="30" on="0"/>
        <pt x="503" y="-2" on="0"/>
        <pt x="481" y="-2" on="1"/>
      </contour>
      <contour>
        <pt x="505" y="862" on="1"/>
        <pt x="439" y="817" on="1"/>
        <pt x="400" y="790" on="0"/>
        <pt x="357" y="790" on="1"/>
        <pt x="345" y="790" on="0"/>
        <pt x="333" y="801" on="0"/>
        <pt x="338" y="817" on="0"/>
        <pt x="355" y="834" on="1"/>
        <pt x="446" y="917" on="1"/>
        <pt x="478" y="946" on="0"/>
        <pt x="513" y="946" on="1"/>
        <pt x="549" y="946" on="1"/>
        <pt x="584" y="946" on="0"/>
        <pt x="598" y="917" on="1"/>
        <pt x="639" y="834" on="1"/>
        <pt x="647" y="819" on="0"/>
        <pt x="644" y="810" on="1"/>
        <pt x="638" y="790" on="0"/>
        <pt x="569" y="790" on="0"/>
        <pt x="543" y="817" on="1"/>
      </contour>
    </TTGlyph>
    <TTGlyph name="Edieresis" xMin="109" yMin="-2" xMax="650" yMax="920">
      <contour>
        <pt x="155" y="-2" on="1"/>
        <pt x="132" y="-2" on="0"/>
        <pt x="105" y="30" on="0"/>
        <pt x="109" y="53" on="1"/>
        <pt x="213" y="643" on="1"/>
        <pt x="217" y="666" on="0"/>
        <pt x="255" y="698" on="0"/>
        <pt x="278" y="698" on="1"/>
        <pt x="604" y="698" on="1"/>
        <pt x="627" y="698" on="0"/>
        <pt x="654" y="666" on="0"/>
        <pt x="645" y="620" on="0"/>
        <pt x="607" y="587" on="0"/>
        <pt x="585" y="587" on="1"/>
        <pt x="314" y="587" on="1"/>
        <pt x="281" y="403" on="1"/>
        <pt x="515" y="403" on="1"/>
        <pt x="538" y="403" on="0"/>
        <pt x="564" y="371" on="0"/>
        <pt x="556" y="325" on="0"/>
        <pt x="518" y="293" on="0"/>
        <pt x="495" y="293" on="1"/>
        <pt x="262" y="293" on="1"/>
        <pt x="229" y="109" on="1"/>
        <pt x="500" y="109" on="1"/>
        <pt x="523" y="109" on="0"/>
        <pt x="550" y="76" on="0"/>
        <pt x="541" y="30" on="0"/>
        <pt x="503" y="-2" on="0"/>
        <pt x="481" y="-2" on="1"/>
      </contour>
      <contour>
        <pt x="561" y="920" on="0"/>
        <pt x="616" y="920" on="0"/>
        <pt x="646" y="885" on="0"/>
        <pt x="641" y="858" on="1"/>
        <pt x="636" y="826" on="0"/>
        <pt x="589" y="790" on="0"/>
        <pt x="534" y="790" on="0"/>
        <pt x="503" y="824" on="0"/>
        <pt x="509" y="851" on="1"/>
        <pt x="514" y="884" on="0"/>
      </contour>
      <contour>
        <pt x="362" y="920" on="0"/>
        <pt x="417" y="920" on="0"/>
        <pt x="447" y="885" on="0"/>
        <pt x="442" y="858" on="1"/>
        <pt x="437" y="826" on="0"/>
        <pt x="390" y="790" on="0"/>
        <pt x="335" y="790" on="0"/>
        <pt x="304" y="824" on="0"/>
        <pt x="310" y="851" on="1"/>
        <pt x="315" y="884" on="0"/>
      </contour>
    </TTGlyph>
    <TTGlyph name="Egrave" xMin="109" yMin="-2" xMax="650" yMax="950">
      <contour>
        <pt x="155" y="-2" on="1"/>
        <pt x="132" y="-2" on="0"/>
        <pt x="105" y="30" on="0"/>
        <pt x="109" y="53" on="1"/>
        <pt x="213" y="643" on="1"/>
        <pt x="217" y="666" on="0"/>
        <pt x="255" y="698" on="0"/>
        <pt x="278" y="698" on="1"/>
        <pt x="604" y="698" on="1"/>
        <pt x="627" y="698" on="0"/>
        <pt x="654" y="666" on="0"/>
        <pt x="645" y="620" on="0"/>
        <pt x="607" y="587" on="0"/>
        <pt x="585" y="587" on="1"/>
        <pt x="314" y="587" on="1"/>
        <pt x="281" y="403" on="1"/>
        <pt x="515" y="403" on="1"/>
        <pt x="538" y="403" on="0"/>
        <pt x="564" y="371" on="0"/>
        <pt x="556" y="325" on="0"/>
        <pt x="518" y="293" on="0"/>
        <pt x="495" y="293" on="1"/>
        <pt x="262" y="293" on="1"/>
        <pt x="229" y="109" on="1"/>
        <pt x="500" y="109" on="1"/>
        <pt x="523" y="109" on="0"/>
        <pt x="550" y="76" on="0"/>
        <pt x="541" y="30" on="0"/>
        <pt x="503" y="-2" on="0"/>
        <pt x="481" y="-2" on="1"/>
      </contour>
      <contour>
        <pt x="526" y="811" on="1"/>
        <pt x="526" y="790" on="0"/>
        <pt x="453" y="790" on="0"/>
        <pt x="425" y="817" on="1"/>
        <pt x="357" y="881" on="1"/>
        <pt x="340" y="896" on="0"/>
        <pt x="340" y="925" on="0"/>
        <pt x="387" y="950" on="0"/>
        <pt x="442" y="950" on="0"/>
        <pt x="460" y="921" on="1"/>
        <pt x="517" y="833" on="1"/>
        <pt x="526" y="819" on="0"/>
      </contour>
    </TTGlyph>
    <TTGlyph name="Eth" xMin="60" yMin="0" xMax="659" yMax="700">
      <contour>
        <pt x="371" y="700" on="1"/>
        <pt x="516" y="700" on="0"/>
        <pt x="684" y="495" on="0"/>
        <pt x="659" y="350" on="1"/>
        <pt x="642" y="255" on="0"/>
        <pt x="520" y="94" on="0"/>
        <pt x="342" y="0" on="0"/>
        <pt x="247" y="0" on="1"/>
        <pt x="129" y="0" on="1"/>
        <pt x="106" y="0" on="0"/>
        <pt x="80" y="33" on="0"/>
        <pt x="84" y="56" on="1"/>
        <pt x="130" y="317" on="1"/>
        <pt x="87" y="317" on="1"/>
        <pt x="72" y="317" on="0"/>
        <pt x="56" y="338" on="0"/>
        <pt x="60" y="353" on="1"/>
        <pt x="63" y="368" on="0"/>
        <pt x="89" y="389" on="0"/>
        <pt x="104" y="389" on="1"/>
        <pt x="142" y="389" on="1"/>
        <pt x="187" y="645" on="1"/>
        <pt x="191" y="668" on="0"/>
        <pt x="230" y="700" on="0"/>
        <pt x="253" y="700" on="1"/>
      </contour>
      <contour>
        <pt x="366" y="111" on="0"/>
        <pt x="531" y="251" on="0"/>
        <pt x="565" y="450" on="0"/>
        <pt x="450" y="589" on="0"/>
        <pt x="351" y="590" on="1"/>
        <pt x="288" y="590" on="1"/>
        <pt x="253" y="389" on="1"/>
        <pt x="290" y="389" on="1"/>
        <pt x="305" y="389" on="0"/>
        <pt x="320" y="368" on="0"/>
        <pt x="313" y="338" on="0"/>
        <pt x="288" y="317" on="0"/>
        <pt x="273" y="317" on="1"/>
        <pt x="240" y="317" on="1"/>
        <pt x="204" y="111" on="1"/>
        <pt x="267" y="111" on="1"/>
      </contour>
    </TTGlyph>
    <TTGlyph name="F" xMin="110" yMin="0" xMax="650" yMax="700">
      <contour>
        <pt x="178" y="0" on="0"/>
        <pt x="132" y="0" on="0"/>
        <pt x="106" y="33" on="0"/>
        <pt x="110" y="55" on="1"/>
        <pt x="214" y="645" on="1"/>
        <pt x="218" y="668" on="0"/>
        <pt x="256" y="700" on="0"/>
        <pt x="279" y="700" on="1"/>
        <pt x="605" y="700" on="1"/>
        <pt x="628" y="700" on="0"/>
        <pt x="654" y="667" on="0"/>
        <pt x="646" y="622" on="0"/>
        <pt x="608" y="589" on="0"/>
        <pt x="585" y="589" on="1"/>
        <pt x="315" y="589" on="1"/>
        <pt x="282" y="405" on="1"/>
        <pt x="515" y="405" on="1"/>
        <pt x="538" y="405" on="0"/>
        <pt x="565" y="373" on="0"/>
        <pt x="557" y="327" on="0"/>
        <pt x="519" y="295" on="0"/>
        <pt x="496" y="295" on="1"/>
        <pt x="263" y="295" on="1"/>
        <pt x="220" y="55" on="1"/>
        <pt x="216" y="32" on="0"/>
      </contour>
    </TTGlyph>
    <TTGlyph name="G" xMin="107" yMin="1" xMax="751" yMax="701">
      <contour>
        <pt x="403" y="1" on="1"/>
        <pt x="255" y="2" on="0"/>
        <pt x="82" y="206" on="0"/>
        <pt x="133" y="497" on="0"/>
        <pt x="379" y="701" on="0"/>
        <pt x="527" y="701" on="1"/>
        <pt x="654" y="701" on="0"/>
        <pt x="736" y="625" on="1"/>
        <pt x="752" y="611" on="0"/>
        <pt x="749" y="566" on="0"/>
        <pt x="715" y="530" on="0"/>
        <pt x="669" y="524" on="0"/>
        <pt x="653" y="538" on="1"/>
        <pt x="594" y="591" on="0"/>
        <pt x="405" y="591" on="0"/>
        <pt x="319" y="520" on="1"/>
        <pt x="234" y="448" on="0"/>
        <pt x="200" y="253" on="0"/>
        <pt x="320" y="112" on="0"/>
        <pt x="423" y="112" on="1"/>
        <pt x="495" y="112" on="0"/>
        <pt x="563" y="150" on="1"/>
        <pt x="587" y="283" on="1"/>
        <pt x="448" y="283" on="1"/>
        <pt x="425" y="283" on="0"/>
        <pt x="399" y="316" on="0"/>
        <pt x="407" y="361" on="0"/>
        <pt x="445" y="393" on="0"/>
        <pt x="468" y="393" on="1"/>
        <pt x="661" y="393" on="1"/>
        <pt x="684" y="393" on="0"/>
        <pt x="711" y="361" on="0"/>
        <pt x="707" y="338" on="1"/>
        <pt x="669" y="122" on="1"/>
        <pt x="667" y="114" on="0"/>
        <pt x="661" y="101" on="1"/>
        <pt x="660" y="100" on="1"/>
        <pt x="652" y="86" on="0"/>
        <pt x="639" y="77" on="1"/>
        <pt x="527" y="1" on="0"/>
        <pt x="404" y="1" on="1"/>
      </contour>
    </TTGlyph>
    <TTGlyph name="H" xMin="110" yMin="0" xMax="694" yMax="700">
      <contour>
        <pt x="521" y="295" on="1"/>
        <pt x="262" y="295" on="1"/>
        <pt x="220" y="55" on="1"/>
        <pt x="216" y="32" on="0"/>
        <pt x="178" y="0" on="0"/>
        <pt x="132" y="0" on="0"/>
        <pt x="106" y="33" on="0"/>
        <pt x="110" y="55" on="1"/>
        <pt x="213" y="645" on="1"/>
        <pt x="218" y="668" on="0"/>
        <pt x="256" y="700" on="0"/>
        <pt x="302" y="700" on="0"/>
        <pt x="328" y="667" on="0"/>
        <pt x="324" y="645" on="1"/>
        <pt x="282" y="405" on="1"/>
        <pt x="541" y="405" on="1"/>
        <pt x="583" y="645" on="1"/>
        <pt x="588" y="668" on="0"/>
        <pt x="626" y="700" on="0"/>
        <pt x="671" y="700" on="0"/>
        <pt x="698" y="668" on="0"/>
        <pt x="694" y="645" on="1"/>
        <pt x="590" y="55" on="1"/>
        <pt x="586" y="33" on="0"/>
        <pt x="548" y="0" on="0"/>
        <pt x="502" y="0" on="0"/>
        <pt x="475" y="32" on="0"/>
        <pt x="479" y="55" on="1"/>
      </contour>
    </TTGlyph>
    <TTGlyph name="I" xMin="116" yMin="-1" xMax="331" yMax="699">
      <contour>
        <pt x="227" y="54" on="1"/>
        <pt x="223" y="32" on="0"/>
        <pt x="185" y="-1" on="0"/>
        <pt x="139" y="-1" on="0"/>
        <pt x="112" y="31" on="0"/>
        <pt x="116" y="54" on="1"/>
        <pt x="220" y="644" on="1"/>
        <pt x="225" y="667" on="0"/>
        <pt x="263" y="699" on="0"/>
        <pt x="308" y="699" on="0"/>
        <pt x="335" y="667" on="0"/>
        <pt x="331" y="644" on="1"/>
      </contour>
    </TTGlyph>
    <TTGlyph name="Iacute" xMin="116" yMin="-1" xMax="373" yMax="950">
      <contour>
        <pt x="227" y="54" on="1"/>
        <pt x="223" y="32" on="0"/>
        <pt x="185" y="-1" on="0"/>
        <pt x="139" y="-1" on="0"/>
        <pt x="112" y="31" on="0"/>
        <pt x="116" y="54" on="1"/>
        <pt x="220" y="644" on="1"/>
        <pt x="225" y="667" on="0"/>
        <pt x="263" y="699" on="0"/>
        <pt x="308" y="699" on="0"/>
        <pt x="335" y="667" on="0"/>
        <pt x="331" y="644" on="1"/>
      </contour>
      <contour>
        <pt x="289" y="817" on="1"/>
        <pt x="260" y="790" on="0"/>
        <pt x="188" y="790" on="0"/>
        <pt x="188" y="811" on="1"/>
        <pt x="188" y="821" on="0"/>
        <pt x="196" y="833" on="1"/>
        <pt x="253" y="921" on="1"/>
        <pt x="271" y="950" on="0"/>
        <pt x="326" y="950" on="0"/>
        <pt x="373" y="925" on="0"/>
        <pt x="373" y="896" on="0"/>
        <pt x="356" y="881" on="1"/>
      </contour>
    </TTGlyph>
    <TTGlyph name="Icircumflex" xMin="37" yMin="-1" xMax="360" yMax="946">
      <contour>
        <pt x="148" y="54" on="1"/>
        <pt x="144" y="32" on="0"/>
        <pt x="106" y="-1" on="0"/>
        <pt x="60" y="-1" on="0"/>
        <pt x="33" y="31" on="0"/>
        <pt x="37" y="54" on="1"/>
        <pt x="141" y="644" on="1"/>
        <pt x="146" y="667" on="0"/>
        <pt x="184" y="699" on="0"/>
        <pt x="229" y="699" on="0"/>
        <pt x="256" y="667" on="0"/>
        <pt x="252" y="644" on="1"/>
      </contour>
      <contour>
        <pt x="221" y="862" on="1"/>
        <pt x="155" y="817" on="1"/>
        <pt x="116" y="790" on="0"/>
        <pt x="73" y="790" on="1"/>
        <pt x="61" y="790" on="0"/>
        <pt x="49" y="801" on="0"/>
        <pt x="54" y="817" on="0"/>
        <pt x="71" y="834" on="1"/>
        <pt x="162" y="917" on="1"/>
        <pt x="194" y="946" on="0"/>
        <pt x="229" y="946" on="1"/>
        <pt x="265" y="946" on="1"/>
        <pt x="300" y="946" on="0"/>
        <pt x="314" y="917" on="1"/>
        <pt x="355" y="834" on="1"/>
        <pt x="363" y="819" on="0"/>
        <pt x="360" y="810" on="1"/>
        <pt x="354" y="790" on="0"/>
        <pt x="285" y="790" on="0"/>
        <pt x="259" y="817" on="1"/>
      </contour>
    </TTGlyph>
    <TTGlyph name="Idieresis" xMin="45" yMin="-1" xMax="412" yMax="920">
      <contour>
        <pt x="156" y="54" on="1"/>
        <pt x="152" y="32" on="0"/>
        <pt x="114" y="-1" on="0"/>
        <pt x="68" y="-1" on="0"/>
        <pt x="41" y="31" on="0"/>
        <pt x="45" y="54" on="1"/>
        <pt x="149" y="644" on="1"/>
        <pt x="154" y="667" on="0"/>
        <pt x="192" y="699" on="0"/>
        <pt x="237" y="699" on="0"/>
        <pt x="264" y="667" on="0"/>
        <pt x="260" y="644" on="1"/>
      </contour>
      <contour>
        <pt x="332" y="920" on="0"/>
        <pt x="387" y="920" on="0"/>
        <pt x="417" y="885" on="0"/>
        <pt x="412" y="858" on="1"/>
        <pt x="407" y="826" on="0"/>
        <pt x="360" y="790" on="0"/>
        <pt x="305" y="790" on="0"/>
        <pt x="274" y="824" on="0"/>
        <pt x="280" y="851" on="1"/>
        <pt x="285" y="884" on="0"/>
      </contour>
      <contour>
        <pt x="133" y="920" on="0"/>
        <pt x="188" y="920" on="0"/>
        <pt x="218" y="885" on="0"/>
        <pt x="213" y="858" on="1"/>
        <pt x="208" y="826" on="0"/>
        <pt x="161" y="790" on="0"/>
        <pt x="106" y="790" on="0"/>
        <pt x="75" y="824" on="0"/>
        <pt x="81" y="851" on="1"/>
        <pt x="86" y="884" on="0"/>
      </contour>
    </TTGlyph>
    <TTGlyph name="Igrave" xMin="20" yMin="-1" xMax="303" yMax="950">
      <contour>
        <pt x="131" y="54" on="1"/>
        <pt x="127" y="32" on="0"/>
        <pt x="89" y="-1" on="0"/>
        <pt x="43" y="-1" on="0"/>
        <pt x="16" y="31" on="0"/>
        <pt x="20" y="54" on="1"/>
        <pt x="124" y="644" on="1"/>
        <pt x="129" y="667" on="0"/>
        <pt x="167" y="699" on="0"/>
        <pt x="212" y="699" on="0"/>
        <pt x="239" y="667" on="0"/>
        <pt x="235" y="644" on="1"/>
      </contour>
      <contour>
        <pt x="303" y="811" on="1"/>
        <pt x="303" y="790" on="0"/>
        <pt x="230" y="790" on="0"/>
        <pt x="202" y="817" on="1"/>
        <pt x="134" y="881" on="1"/>
        <pt x="117" y="896" on="0"/>
        <pt x="117" y="925" on="0"/>
        <pt x="164" y="950" on="0"/>
        <pt x="219" y="950" on="0"/>
        <pt x="237" y="921" on="1"/>
        <pt x="294" y="833" on="1"/>
        <pt x="303" y="819" on="0"/>
      </contour>
    </TTGlyph>
    <TTGlyph name="J" xMin="46" yMin="-1" xMax="614" yMax="699">
      <contour>
        <pt x="71" y="234" on="0"/>
        <pt x="117" y="248" on="0"/>
        <pt x="154" y="227" on="0"/>
        <pt x="157" y="205" on="1"/>
        <pt x="163" y="163" on="0"/>
        <pt x="226" y="109" on="0"/>
        <pt x="328" y="110" on="0"/>
        <pt x="423" y="190" on="0"/>
        <pt x="433" y="247" on="1"/>
        <pt x="503" y="644" on="1"/>
        <pt x="507" y="666" on="0"/>
        <pt x="545" y="699" on="0"/>
        <pt x="591" y="699" on="0"/>
        <pt x="618" y="667" on="0"/>
        <pt x="614" y="644" on="1"/>
        <pt x="544" y="247" on="1"/>
        <pt x="526" y="144" on="0"/>
        <pt x="355" y="-1" on="0"/>
        <pt x="252" y="-1" on="1"/>
        <pt x="170" y="-1" on="0"/>
        <pt x="57" y="95" on="0"/>
        <pt x="46" y="171" on="1"/>
        <pt x="43" y="193" on="0"/>
      </contour>
    </TTGlyph>
    <TTGlyph name="K" xMin="110" yMin="0" xMax="747" yMax="700">
      <contour>
        <pt x="256" y="700" on="0"/>
        <pt x="302" y="700" on="0"/>
        <pt x="328" y="667" on="0"/>
        <pt x="324" y="645" on="1"/>
        <pt x="273" y="356" on="1"/>
        <pt x="659" y="684" on="1"/>
        <pt x="679" y="700" on="0"/>
        <pt x="724" y="700" on="0"/>
        <pt x="750" y="667" on="0"/>
        <pt x="743" y="622" on="0"/>
        <pt x="724" y="606" on="1"/>
        <pt x="462" y="383" on="1"/>
        <pt x="652" y="91" on="1"/>
        <pt x="663" y="73" on="0"/>
        <pt x="650" y="27" on="0"/>
        <pt x="630" y="13" on="1"/>
        <pt x="614" y="0" on="0"/>
        <pt x="566" y="0" on="0"/>
        <pt x="554" y="20" on="1"/>
        <pt x="370" y="305" on="1"/>
        <pt x="246" y="199" on="1"/>
        <pt x="220" y="55" on="1"/>
        <pt x="216" y="32" on="0"/>
        <pt x="178" y="0" on="0"/>
        <pt x="132" y="0" on="0"/>
        <pt x="106" y="33" on="0"/>
        <pt x="110" y="55" on="1"/>
        <pt x="214" y="645" on="1"/>
        <pt x="218" y="668" on="0"/>
      </contour>
    </TTGlyph>
    <TTGlyph name="L" xMin="110" yMin="2" xMax="547" yMax="702">
      <contour>
        <pt x="155" y="2" on="1"/>
        <pt x="132" y="2" on="0"/>
        <pt x="106" y="35" on="0"/>
        <pt x="110" y="58" on="1"/>
        <pt x="214" y="647" on="1"/>
        <pt x="218" y="670" on="0"/>
        <pt x="256" y="702" on="0"/>
        <pt x="302" y="702" on="0"/>
        <pt x="328" y="670" on="0"/>
        <pt x="324" y="647" on="1"/>
        <pt x="230" y="113" on="1"/>
        <pt x="501" y="113" on="1"/>
        <pt x="524" y="113" on="0"/>
        <pt x="551" y="81" on="0"/>
        <pt x="542" y="35" on="0"/>
        <pt x="504" y="2" on="0"/>
        <pt x="481" y="2" on="1"/>
        <pt x="157" y="2" on="1"/>
        <pt x="157" y="3" on="0"/>
        <pt x="156" y="3" on="1"/>
        <pt x="156" y="2" on="0"/>
      </contour>
    </TTGlyph>
    <TTGlyph name="M" xMin="109" yMin="1" xMax="814" yMax="701">
      <contour>
        <pt x="446" y="254" on="1"/>
        <pt x="443" y="254" on="1"/>
        <pt x="414" y="254" on="0"/>
        <pt x="402" y="277" on="1"/>
        <pt x="294" y="477" on="1"/>
        <pt x="220" y="57" on="1"/>
        <pt x="215" y="34" on="0"/>
        <pt x="177" y="1" on="0"/>
        <pt x="132" y="1" on="0"/>
        <pt x="105" y="34" on="0"/>
        <pt x="109" y="57" on="1"/>
        <pt x="213" y="646" on="1"/>
        <pt x="217" y="669" on="0"/>
        <pt x="255" y="701" on="0"/>
        <pt x="278" y="701" on="1"/>
        <pt x="279" y="701" on="1"/>
        <pt x="308" y="703" on="0"/>
        <pt x="320" y="678" on="1"/>
        <pt x="470" y="402" on="1"/>
        <pt x="718" y="679" on="1"/>
        <pt x="740" y="703" on="0"/>
        <pt x="768" y="701" on="1"/>
        <pt x="769" y="701" on="1"/>
        <pt x="792" y="701" on="0"/>
        <pt x="818" y="669" on="0"/>
        <pt x="814" y="646" on="1"/>
        <pt x="710" y="57" on="1"/>
        <pt x="706" y="34" on="0"/>
        <pt x="668" y="1" on="0"/>
        <pt x="622" y="1" on="0"/>
        <pt x="595" y="34" on="0"/>
        <pt x="599" y="57" on="1"/>
        <pt x="673" y="477" on="1"/>
        <pt x="495" y="277" on="1"/>
        <pt x="474" y="254" on="0"/>
      </contour>
    </TTGlyph>
    <TTGlyph name="N" xMin="110" yMin="0" xMax="749" yMax="700">
      <contour>
        <pt x="110" y="55" on="1"/>
        <pt x="213" y="642" on="1"/>
        <pt x="218" y="673" on="0"/>
        <pt x="245" y="689" on="1"/>
        <pt x="265" y="703" on="0"/>
        <pt x="309" y="696" on="0"/>
        <pt x="319" y="677" on="1"/>
        <pt x="565" y="225" on="1"/>
        <pt x="638" y="642" on="1"/>
        <pt x="643" y="665" on="0"/>
        <pt x="681" y="697" on="0"/>
        <pt x="726" y="697" on="0"/>
        <pt x="753" y="665" on="0"/>
        <pt x="749" y="642" on="1"/>
        <pt x="645" y="55" on="1"/>
        <pt x="641" y="32" on="0"/>
        <pt x="603" y="0" on="0"/>
        <pt x="555" y="0" on="0"/>
        <pt x="542" y="19" on="1"/>
        <pt x="542" y="20" on="0"/>
        <pt x="539" y="24" on="0"/>
        <pt x="538" y="26" on="1"/>
        <pt x="294" y="474" on="1"/>
        <pt x="220" y="55" on="1"/>
        <pt x="216" y="32" on="0"/>
        <pt x="178" y="0" on="0"/>
        <pt x="132" y="0" on="0"/>
        <pt x="106" y="32" on="0"/>
      </contour>
    </TTGlyph>
    <TTGlyph name="Ntilde" xMin="110" yMin="0" xMax="749" yMax="942">
      <component glyphName="N" x="0" y="0" flags="0x1004"/>
      <component glyphName="tilde" x="276" y="200" flags="0x1004"/>
    </TTGlyph>
    <TTGlyph name="O" xMin="90" yMin="-1" xMax="755" yMax="699">
      <contour>
        <pt x="501" y="-1" on="0"/>
        <pt x="221" y="-1" on="0"/>
        <pt x="143" y="103" on="1"/>
        <pt x="64" y="204" on="0"/>
        <pt x="116" y="494" on="0"/>
        <pt x="230" y="595" on="1"/>
        <pt x="345" y="699" on="0"/>
        <pt x="623" y="699" on="0"/>
        <pt x="781" y="493" on="0"/>
        <pt x="755" y="349" on="1"/>
        <pt x="731" y="205" on="0"/>
        <pt x="616" y="103" on="1"/>
      </contour>
      <contour>
        <pt x="556" y="588" on="0"/>
        <pt x="374" y="588" on="0"/>
        <pt x="219" y="449" on="0"/>
        <pt x="183" y="250" on="0"/>
        <pt x="237" y="178" on="1"/>
        <pt x="289" y="111" on="0"/>
        <pt x="381" y="109" on="1"/>
        <pt x="472" y="111" on="0"/>
        <pt x="549" y="178" on="1"/>
        <pt x="627" y="250" on="0"/>
        <pt x="663" y="449" on="0"/>
      </contour>
    </TTGlyph>
    <TTGlyph name="OE" xMin="43" yMin="1" xMax="1118" yMax="721">
      <contour>
        <pt x="587" y="112" on="1"/>
        <pt x="582" y="108" on="1"/>
        <pt x="529" y="59" on="0"/>
        <pt x="392" y="1" on="0"/>
        <pt x="254" y="1" on="0"/>
        <pt x="136" y="58" on="0"/>
        <pt x="98" y="108" on="1"/>
        <pt x="17" y="213" on="0"/>
        <pt x="69" y="508" on="0"/>
        <pt x="188" y="614" on="1"/>
        <pt x="305" y="721" on="0"/>
        <pt x="451" y="721" on="1"/>
        <pt x="519" y="721" on="0"/>
        <pt x="636" y="664" on="0"/>
        <pt x="672" y="614" on="1"/>
        <pt x="672" y="612" on="0"/>
        <pt x="675" y="609" on="1"/>
        <pt x="681" y="646" on="1"/>
        <pt x="686" y="669" on="0"/>
        <pt x="723" y="701" on="0"/>
        <pt x="746" y="701" on="1"/>
        <pt x="1073" y="701" on="1"/>
        <pt x="1095" y="701" on="0"/>
        <pt x="1122" y="669" on="0"/>
        <pt x="1114" y="623" on="0"/>
        <pt x="1075" y="590" on="0"/>
        <pt x="1053" y="590" on="1"/>
        <pt x="782" y="590" on="1"/>
        <pt x="750" y="407" on="1"/>
        <pt x="983" y="407" on="1"/>
        <pt x="1005" y="407" on="0"/>
        <pt x="1032" y="374" on="0"/>
        <pt x="1024" y="329" on="0"/>
        <pt x="986" y="296" on="0"/>
        <pt x="963" y="296" on="1"/>
        <pt x="730" y="296" on="1"/>
        <pt x="698" y="112" on="1"/>
        <pt x="969" y="112" on="1"/>
        <pt x="991" y="112" on="0"/>
        <pt x="1018" y="79" on="0"/>
        <pt x="1010" y="34" on="0"/>
        <pt x="971" y="1" on="0"/>
        <pt x="949" y="1" on="1"/>
        <pt x="625" y="1" on="1"/>
        <pt x="624" y="2" on="1"/>
        <pt x="622" y="1" on="1"/>
        <pt x="599" y="1" on="0"/>
        <pt x="573" y="33" on="0"/>
        <pt x="577" y="56" on="1"/>
      </contour>
      <contour>
        <pt x="195" y="187" on="1"/>
        <pt x="249" y="115" on="0"/>
        <pt x="435" y="115" on="0"/>
        <pt x="596" y="258" on="0"/>
        <pt x="632" y="463" on="0"/>
        <pt x="523" y="607" on="0"/>
        <pt x="336" y="607" on="0"/>
        <pt x="176" y="465" on="0"/>
        <pt x="140" y="257" on="0"/>
      </contour>
    </TTGlyph>
    <TTGlyph name="Oacute" xMin="90" yMin="-1" xMax="755" yMax="950">
      <contour>
        <pt x="501" y="-1" on="0"/>
        <pt x="221" y="-1" on="0"/>
        <pt x="143" y="103" on="1"/>
        <pt x="64" y="204" on="0"/>
        <pt x="116" y="494" on="0"/>
        <pt x="230" y="595" on="1"/>
        <pt x="345" y="699" on="0"/>
        <pt x="623" y="699" on="0"/>
        <pt x="781" y="493" on="0"/>
        <pt x="755" y="349" on="1"/>
        <pt x="731" y="205" on="0"/>
        <pt x="616" y="103" on="1"/>
      </contour>
      <contour>
        <pt x="556" y="588" on="0"/>
        <pt x="374" y="588" on="0"/>
        <pt x="219" y="449" on="0"/>
        <pt x="183" y="250" on="0"/>
        <pt x="237" y="178" on="1"/>
        <pt x="289" y="111" on="0"/>
        <pt x="381" y="109" on="1"/>
        <pt x="472" y="111" on="0"/>
        <pt x="549" y="178" on="1"/>
        <pt x="627" y="250" on="0"/>
        <pt x="663" y="449" on="0"/>
      </contour>
      <contour>
        <pt x="478" y="817" on="1"/>
        <pt x="449" y="790" on="0"/>
        <pt x="377" y="790" on="0"/>
        <pt x="377" y="811" on="1"/>
        <pt x="377" y="821" on="0"/>
        <pt x="385" y="833" on="1"/>
        <pt x="442" y="921" on="1"/>
        <pt x="460" y="950" on="0"/>
        <pt x="515" y="950" on="0"/>
        <pt x="562" y="925" on="0"/>
        <pt x="562" y="896" on="0"/>
        <pt x="545" y="881" on="1"/>
      </contour>
    </TTGlyph>
    <TTGlyph name="Ocircumflex" xMin="90" yMin="-1" xMax="755" yMax="946">
      <component glyphName="O" x="0" y="0" flags="0x1004"/>
      <component glyphName="circumflex" x="270" y="200" flags="0x1004"/>
    </TTGlyph>
    <TTGlyph name="Odieresis" xMin="90" yMin="-1" xMax="755" yMax="920">
      <component glyphName="O" x="0" y="0" flags="0x1004"/>
      <component glyphName="dieresis" x="270" y="200" flags="0x1004"/>
    </TTGlyph>
    <TTGlyph name="Ograve" xMin="90" yMin="-1" xMax="755" yMax="950">
      <component glyphName="O" x="0" y="0" flags="0x1004"/>
      <component glyphName="grave" x="380" y="200" flags="0x1004"/>
    </TTGlyph>
    <TTGlyph name="Otilde" xMin="90" yMin="-1" xMax="755" yMax="942">
      <contour>
        <pt x="501" y="-1" on="0"/>
        <pt x="221" y="-1" on="0"/>
        <pt x="143" y="103" on="1"/>
        <pt x="64" y="204" on="0"/>
        <pt x="116" y="494" on="0"/>
        <pt x="230" y="595" on="1"/>
        <pt x="345" y="699" on="0"/>
        <pt x="623" y="699" on="0"/>
        <pt x="781" y="493" on="0"/>
        <pt x="755" y="349" on="1"/>
        <pt x="731" y="205" on="0"/>
        <pt x="616" y="103" on="1"/>
      </contour>
      <contour>
        <pt x="556" y="588" on="0"/>
        <pt x="374" y="588" on="0"/>
        <pt x="219" y="449" on="0"/>
        <pt x="183" y="250" on="0"/>
        <pt x="237" y="178" on="1"/>
        <pt x="289" y="111" on="0"/>
        <pt x="381" y="109" on="1"/>
        <pt x="472" y="111" on="0"/>
        <pt x="549" y="178" on="1"/>
        <pt x="627" y="250" on="0"/>
        <pt x="663" y="449" on="0"/>
      </contour>
      <contour>
        <pt x="439" y="803" on="1"/>
        <pt x="426" y="783" on="0"/>
        <pt x="391" y="783" on="0"/>
        <pt x="369" y="803" on="0"/>
        <pt x="369" y="825" on="0"/>
        <pt x="373" y="839" on="1"/>
        <pt x="390" y="885" on="0"/>
        <pt x="437" y="930" on="0"/>
        <pt x="505" y="930" on="0"/>
        <pt x="603" y="890" on="0"/>
        <pt x="619" y="890" on="1"/>
        <pt x="648" y="890" on="0"/>
        <pt x="665" y="922" on="1"/>
        <pt x="678" y="942" on="0"/>
        <pt x="713" y="942" on="0"/>
        <pt x="735" y="922" on="0"/>
        <pt x="735" y="900" on="0"/>
        <pt x="731" y="886" on="1"/>
        <pt x="714" y="840" on="0"/>
        <pt x="667" y="795" on="0"/>
        <pt x="599" y="795" on="0"/>
        <pt x="501" y="835" on="0"/>
        <pt x="485" y="835" on="1"/>
        <pt x="456" y="835" on="0"/>
      </contour>
    </TTGlyph>
    <TTGlyph name="P" xMin="109" yMin="1" xMax="634" yMax="701">
      <contour>
        <pt x="178" y="1" on="0"/>
        <pt x="132" y="1" on="0"/>
        <pt x="105" y="33" on="0"/>
        <pt x="109" y="56" on="1"/>
        <pt x="213" y="646" on="1"/>
        <pt x="218" y="669" on="0"/>
        <pt x="256" y="701" on="0"/>
        <pt x="278" y="701" on="1"/>
        <pt x="457" y="701" on="1"/>
        <pt x="546" y="701" on="0"/>
        <pt x="650" y="576" on="0"/>
        <pt x="618" y="398" on="0"/>
        <pt x="471" y="273" on="0"/>
        <pt x="382" y="272" on="1"/>
        <pt x="258" y="272" on="1"/>
        <pt x="220" y="56" on="1"/>
        <pt x="216" y="34" on="0"/>
      </contour>
      <contour>
        <pt x="523" y="487" on="1"/>
        <pt x="530" y="530" on="0"/>
        <pt x="481" y="590" on="0"/>
        <pt x="438" y="590" on="1"/>
        <pt x="314" y="590" on="1"/>
        <pt x="278" y="383" on="1"/>
        <pt x="401" y="383" on="1"/>
        <pt x="444" y="383" on="0"/>
        <pt x="515" y="444" on="0"/>
      </contour>
    </TTGlyph>
    <TTGlyph name="Q" xMin="85" yMin="-164" xMax="794" yMax="720">
      <contour>
        <pt x="210" y="-103" on="1"/>
        <pt x="207" y="-103" on="0"/>
        <pt x="205" y="-100" on="0"/>
        <pt x="194" y="-90" on="0"/>
        <pt x="185" y="-55" on="0"/>
        <pt x="198" y="-32" on="1"/>
        <pt x="209" y="-12" on="0"/>
        <pt x="236" y="2" on="1"/>
        <pt x="176" y="35" on="0"/>
        <pt x="141" y="82" on="1"/>
        <pt x="56" y="190" on="0"/>
        <pt x="85" y="345" on="1"/>
        <pt x="109" y="497" on="0"/>
        <pt x="232" y="609" on="1"/>
        <pt x="360" y="720" on="0"/>
        <pt x="505" y="720" on="1"/>
        <pt x="578" y="720" on="0"/>
        <pt x="699" y="661" on="0"/>
        <pt x="738" y="609" on="1"/>
        <pt x="822" y="497" on="0"/>
        <pt x="794" y="345" on="1"/>
        <pt x="771" y="196" on="0"/>
        <pt x="647" y="82" on="1"/>
        <pt x="580" y="26" on="0"/>
        <pt x="515" y="0" on="1"/>
        <pt x="492" y="-10" on="1"/>
        <pt x="553" y="-47" on="0"/>
        <pt x="646" y="-47" on="0"/>
        <pt x="705" y="-8" on="1"/>
        <pt x="727" y="7" on="0"/>
        <pt x="775" y="1" on="0"/>
        <pt x="798" y="-38" on="0"/>
        <pt x="784" y="-85" on="0"/>
        <pt x="761" y="-101" on="1"/>
        <pt x="670" y="-164" on="0"/>
        <pt x="579" y="-164" on="1"/>
        <pt x="578" y="-164" on="1"/>
        <pt x="493" y="-164" on="0"/>
        <pt x="403" y="-104" on="1"/>
        <pt x="374" y="-88" on="0"/>
        <pt x="300" y="-88" on="0"/>
        <pt x="270" y="-106" on="1"/>
        <pt x="236" y="-122" on="0"/>
      </contour>
      <contour>
        <pt x="639" y="528" on="1"/>
        <pt x="583" y="600" on="0"/>
        <pt x="386" y="600" on="0"/>
        <pt x="219" y="451" on="0"/>
        <pt x="184" y="238" on="0"/>
        <pt x="240" y="163" on="1"/>
        <pt x="299" y="89" on="0"/>
        <pt x="488" y="89" on="0"/>
        <pt x="574" y="163" on="1"/>
        <pt x="660" y="242" on="0"/>
        <pt x="695" y="454" on="0"/>
      </contour>
    </TTGlyph>
    <TTGlyph name="R" xMin="96" yMin="0" xMax="620" yMax="700">
      <contour>
        <pt x="550" y="117" on="1"/>
        <pt x="574" y="107" on="0"/>
        <pt x="581" y="61" on="0"/>
        <pt x="567" y="40" on="1"/>
        <pt x="545" y="9" on="0"/>
        <pt x="508" y="9" on="1"/>
        <pt x="488" y="9" on="0"/>
        <pt x="470" y="22" on="1"/>
        <pt x="424" y="53" on="0"/>
        <pt x="444" y="176" on="1"/>
        <pt x="448" y="201" on="0"/>
        <pt x="434" y="232" on="0"/>
        <pt x="415" y="248" on="1"/>
        <pt x="398" y="260" on="0"/>
        <pt x="363" y="272" on="1"/>
        <pt x="245" y="272" on="1"/>
        <pt x="206" y="55" on="1"/>
        <pt x="202" y="32" on="0"/>
        <pt x="164" y="0" on="0"/>
        <pt x="118" y="0" on="0"/>
        <pt x="92" y="33" on="0"/>
        <pt x="96" y="55" on="1"/>
        <pt x="200" y="645" on="1"/>
        <pt x="204" y="668" on="0"/>
        <pt x="242" y="700" on="0"/>
        <pt x="265" y="700" on="1"/>
        <pt x="444" y="700" on="1"/>
        <pt x="533" y="700" on="0"/>
        <pt x="636" y="574" on="0"/>
        <pt x="620" y="486" on="1"/>
        <pt x="604" y="386" on="0"/>
        <pt x="514" y="321" on="1"/>
        <pt x="569" y="262" on="0"/>
        <pt x="555" y="176" on="1"/>
        <pt x="548" y="140" on="0"/>
      </contour>
      <contour>
        <pt x="301" y="589" on="1"/>
        <pt x="264" y="382" on="1"/>
        <pt x="388" y="382" on="1"/>
        <pt x="431" y="382" on="0"/>
        <pt x="502" y="443" on="0"/>
        <pt x="510" y="486" on="1"/>
        <pt x="517" y="529" on="0"/>
        <pt x="467" y="589" on="0"/>
        <pt x="424" y="589" on="1"/>
      </contour>
    </TTGlyph>
    <TTGlyph name="S" xMin="70" yMin="0" xMax="651" yMax="700">
      <contour>
        <pt x="362" y="313" on="1"/>
        <pt x="360" y="313" on="1"/>
        <pt x="289" y="328" on="0"/>
        <pt x="242" y="351" on="1"/>
        <pt x="185" y="381" on="0"/>
        <pt x="148" y="463" on="0"/>
        <pt x="156" y="506" on="1"/>
        <pt x="172" y="593" on="0"/>
        <pt x="260" y="648" on="1"/>
        <pt x="340" y="700" on="0"/>
        <pt x="437" y="700" on="1"/>
        <pt x="480" y="700" on="0"/>
        <pt x="564" y="670" on="0"/>
        <pt x="602" y="646" on="0"/>
        <pt x="635" y="622" on="1"/>
        <pt x="651" y="611" on="0"/>
        <pt x="651" y="570" on="0"/>
        <pt x="623" y="536" on="0"/>
        <pt x="581" y="527" on="0"/>
        <pt x="538" y="559" on="0"/>
        <pt x="520" y="570" on="1"/>
        <pt x="473" y="600" on="0"/>
        <pt x="355" y="601" on="0"/>
        <pt x="304" y="568" on="1"/>
        <pt x="262" y="539" on="0"/>
        <pt x="256" y="506" on="1"/>
        <pt x="253" y="491" on="0"/>
        <pt x="258" y="480" on="1"/>
        <pt x="278" y="434" on="0"/>
        <pt x="395" y="411" on="1"/>
        <pt x="397" y="411" on="1"/>
        <pt x="567" y="380" on="0"/>
        <pt x="607" y="290" on="1"/>
        <pt x="624" y="251" on="0"/>
        <pt x="615" y="206" on="1"/>
        <pt x="599" y="115" on="0"/>
        <pt x="420" y="0" on="0"/>
        <pt x="316" y="0" on="1"/>
        <pt x="184" y="1" on="0"/>
        <pt x="83" y="98" on="1"/>
        <pt x="69" y="111" on="0"/>
        <pt x="72" y="152" on="0"/>
        <pt x="104" y="184" on="0"/>
        <pt x="146" y="188" on="0"/>
        <pt x="160" y="175" on="1"/>
        <pt x="191" y="144" on="0"/>
        <pt x="285" y="99" on="0"/>
        <pt x="334" y="100" on="1"/>
        <pt x="406" y="100" on="0"/>
        <pt x="508" y="167" on="0"/>
        <pt x="516" y="206" on="1"/>
        <pt x="522" y="243" on="0"/>
        <pt x="488" y="266" on="1"/>
        <pt x="449" y="296" on="0"/>
      </contour>
    </TTGlyph>
    <TTGlyph name="Scaron" xMin="70" yMin="0" xMax="651" yMax="932">
      <contour>
        <pt x="483" y="848" on="1"/>
        <pt x="417" y="803" on="1"/>
        <pt x="378" y="776" on="0"/>
        <pt x="335" y="776" on="1"/>
        <pt x="323" y="776" on="0"/>
        <pt x="311" y="787" on="0"/>
        <pt x="316" y="803" on="0"/>
        <pt x="333" y="820" on="1"/>
        <pt x="424" y="903" on="1"/>
        <pt x="456" y="932" on="0"/>
        <pt x="491" y="932" on="1"/>
        <pt x="527" y="932" on="1"/>
        <pt x="562" y="932" on="0"/>
        <pt x="576" y="903" on="1"/>
        <pt x="617" y="820" on="1"/>
        <pt x="625" y="805" on="0"/>
        <pt x="622" y="796" on="1"/>
        <pt x="616" y="776" on="0"/>
        <pt x="547" y="776" on="0"/>
        <pt x="521" y="803" on="1"/>
      </contour>
      <contour>
        <pt x="360" y="313" on="1"/>
        <pt x="362" y="313" on="1"/>
        <pt x="449" y="296" on="0"/>
        <pt x="488" y="266" on="1"/>
        <pt x="522" y="243" on="0"/>
        <pt x="508" y="167" on="0"/>
        <pt x="406" y="100" on="0"/>
        <pt x="334" y="100" on="1"/>
        <pt x="285" y="99" on="0"/>
        <pt x="191" y="144" on="0"/>
        <pt x="160" y="175" on="1"/>
        <pt x="146" y="188" on="0"/>
        <pt x="104" y="184" on="0"/>
        <pt x="72" y="152" on="0"/>
        <pt x="69" y="111" on="0"/>
        <pt x="83" y="98" on="1"/>
        <pt x="184" y="1" on="0"/>
        <pt x="316" y="0" on="1"/>
        <pt x="420" y="0" on="0"/>
        <pt x="599" y="115" on="0"/>
        <pt x="615" y="206" on="1"/>
        <pt x="636" y="310" on="0"/>
        <pt x="525" y="370" on="1"/>
        <pt x="473" y="397" on="0"/>
        <pt x="397" y="411" on="1"/>
        <pt x="395" y="411" on="1"/>
        <pt x="315" y="427" on="0"/>
        <pt x="280" y="454" on="1"/>
        <pt x="263" y="468" on="0"/>
        <pt x="253" y="491" on="0"/>
        <pt x="256" y="506" on="1"/>
        <pt x="262" y="539" on="0"/>
        <pt x="304" y="568" on="1"/>
        <pt x="355" y="601" on="0"/>
        <pt x="420" y="600" on="1"/>
        <pt x="460" y="601" on="0"/>
        <pt x="524" y="570" on="0"/>
        <pt x="566" y="539" on="1"/>
        <pt x="581" y="527" on="0"/>
        <pt x="623" y="536" on="0"/>
        <pt x="651" y="570" on="0"/>
        <pt x="651" y="611" on="0"/>
        <pt x="635" y="622" on="1"/>
        <pt x="602" y="646" on="0"/>
        <pt x="564" y="670" on="0"/>
        <pt x="480" y="700" on="0"/>
        <pt x="437" y="700" on="1"/>
        <pt x="340" y="700" on="0"/>
        <pt x="260" y="648" on="1"/>
        <pt x="172" y="593" on="0"/>
        <pt x="156" y="506" on="1"/>
        <pt x="148" y="463" on="0"/>
        <pt x="185" y="381" on="0"/>
        <pt x="242" y="351" on="1"/>
        <pt x="289" y="328" on="0"/>
      </contour>
    </TTGlyph>
    <TTGlyph name="T" xMin="56" yMin="0" xMax="592" yMax="700">
      <contour>
        <pt x="52" y="622" on="0"/>
        <pt x="60" y="668" on="0"/>
        <pt x="98" y="700" on="0"/>
        <pt x="121" y="700" on="1"/>
        <pt x="546" y="700" on="1"/>
        <pt x="569" y="700" on="0"/>
        <pt x="596" y="668" on="0"/>
        <pt x="588" y="622" on="0"/>
        <pt x="550" y="590" on="0"/>
        <pt x="527" y="590" on="1"/>
        <pt x="369" y="590" on="1"/>
        <pt x="275" y="56" on="1"/>
        <pt x="271" y="33" on="0"/>
        <pt x="233" y="0" on="0"/>
        <pt x="187" y="0" on="0"/>
        <pt x="161" y="33" on="0"/>
        <pt x="165" y="56" on="1"/>
        <pt x="259" y="590" on="1"/>
        <pt x="101" y="590" on="1"/>
        <pt x="78" y="590" on="0"/>
      </contour>
    </TTGlyph>
    <TTGlyph name="U" xMin="133" yMin="0" xMax="774" yMax="700">
      <contour>
        <pt x="705" y="700" on="0"/>
        <pt x="751" y="700" on="0"/>
        <pt x="778" y="668" on="0"/>
        <pt x="774" y="645" on="1"/>
        <pt x="711" y="289" on="1"/>
        <pt x="690" y="170" on="0"/>
        <pt x="491" y="0" on="0"/>
        <pt x="251" y="0" on="0"/>
        <pt x="112" y="170" on="0"/>
        <pt x="133" y="289" on="1"/>
        <pt x="195" y="645" on="1"/>
        <pt x="199" y="668" on="0"/>
        <pt x="238" y="700" on="0"/>
        <pt x="284" y="700" on="0"/>
        <pt x="310" y="668" on="0"/>
        <pt x="306" y="645" on="1"/>
        <pt x="243" y="289" on="1"/>
        <pt x="230" y="215" on="0"/>
        <pt x="317" y="111" on="0"/>
        <pt x="464" y="111" on="0"/>
        <pt x="587" y="215" on="0"/>
        <pt x="600" y="289" on="1"/>
        <pt x="663" y="645" on="1"/>
        <pt x="667" y="668" on="0"/>
      </contour>
    </TTGlyph>
    <TTGlyph name="Uacute" xMin="121" yMin="0" xMax="762" yMax="950">
      <contour>
        <pt x="693" y="700" on="0"/>
        <pt x="739" y="700" on="0"/>
        <pt x="766" y="668" on="0"/>
        <pt x="762" y="645" on="1"/>
        <pt x="699" y="289" on="1"/>
        <pt x="678" y="170" on="0"/>
        <pt x="479" y="0" on="0"/>
        <pt x="239" y="0" on="0"/>
        <pt x="100" y="170" on="0"/>
        <pt x="121" y="289" on="1"/>
        <pt x="183" y="645" on="1"/>
        <pt x="187" y="668" on="0"/>
        <pt x="226" y="700" on="0"/>
        <pt x="272" y="700" on="0"/>
        <pt x="298" y="668" on="0"/>
        <pt x="294" y="645" on="1"/>
        <pt x="231" y="289" on="1"/>
        <pt x="218" y="215" on="0"/>
        <pt x="305" y="111" on="0"/>
        <pt x="452" y="111" on="0"/>
        <pt x="575" y="215" on="0"/>
        <pt x="588" y="289" on="1"/>
        <pt x="651" y="645" on="1"/>
        <pt x="655" y="668" on="0"/>
      </contour>
      <contour>
        <pt x="539" y="817" on="1"/>
        <pt x="510" y="790" on="0"/>
        <pt x="438" y="790" on="0"/>
        <pt x="438" y="811" on="1"/>
        <pt x="438" y="821" on="0"/>
        <pt x="446" y="833" on="1"/>
        <pt x="503" y="921" on="1"/>
        <pt x="521" y="950" on="0"/>
        <pt x="576" y="950" on="0"/>
        <pt x="623" y="925" on="0"/>
        <pt x="623" y="896" on="0"/>
        <pt x="606" y="881" on="1"/>
      </contour>
    </TTGlyph>
    <TTGlyph name="Ucircumflex" xMin="121" yMin="0" xMax="762" yMax="946">
      <contour>
        <pt x="693" y="700" on="0"/>
        <pt x="739" y="700" on="0"/>
        <pt x="766" y="668" on="0"/>
        <pt x="762" y="645" on="1"/>
        <pt x="699" y="289" on="1"/>
        <pt x="678" y="170" on="0"/>
        <pt x="479" y="0" on="0"/>
        <pt x="239" y="0" on="0"/>
        <pt x="100" y="170" on="0"/>
        <pt x="121" y="289" on="1"/>
        <pt x="183" y="645" on="1"/>
        <pt x="187" y="668" on="0"/>
        <pt x="226" y="700" on="0"/>
        <pt x="272" y="700" on="0"/>
        <pt x="298" y="668" on="0"/>
        <pt x="294" y="645" on="1"/>
        <pt x="231" y="289" on="1"/>
        <pt x="218" y="215" on="0"/>
        <pt x="305" y="111" on="0"/>
        <pt x="452" y="111" on="0"/>
        <pt x="575" y="215" on="0"/>
        <pt x="588" y="289" on="1"/>
        <pt x="651" y="645" on="1"/>
        <pt x="655" y="668" on="0"/>
      </contour>
      <contour>
        <pt x="557" y="862" on="1"/>
        <pt x="491" y="817" on="1"/>
        <pt x="452" y="790" on="0"/>
        <pt x="409" y="790" on="1"/>
        <pt x="397" y="790" on="0"/>
        <pt x="385" y="801" on="0"/>
        <pt x="390" y="817" on="0"/>
        <pt x="407" y="834" on="1"/>
        <pt x="498" y="917" on="1"/>
        <pt x="530" y="946" on="0"/>
        <pt x="565" y="946" on="1"/>
        <pt x="601" y="946" on="1"/>
        <pt x="636" y="946" on="0"/>
        <pt x="650" y="917" on="1"/>
        <pt x="691" y="834" on="1"/>
        <pt x="699" y="819" on="0"/>
        <pt x="696" y="810" on="1"/>
        <pt x="690" y="790" on="0"/>
        <pt x="621" y="790" on="0"/>
        <pt x="595" y="817" on="1"/>
      </contour>
    </TTGlyph>
    <TTGlyph name="Udieresis" xMin="121" yMin="0" xMax="762" yMax="920">
      <contour>
        <pt x="693" y="700" on="0"/>
        <pt x="739" y="700" on="0"/>
        <pt x="766" y="668" on="0"/>
        <pt x="762" y="645" on="1"/>
        <pt x="699" y="289" on="1"/>
        <pt x="678" y="170" on="0"/>
        <pt x="479" y="0" on="0"/>
        <pt x="239" y="0" on="0"/>
        <pt x="100" y="170" on="0"/>
        <pt x="121" y="289" on="1"/>
        <pt x="183" y="645" on="1"/>
        <pt x="187" y="668" on="0"/>
        <pt x="226" y="700" on="0"/>
        <pt x="272" y="700" on="0"/>
        <pt x="298" y="668" on="0"/>
        <pt x="294" y="645" on="1"/>
        <pt x="231" y="289" on="1"/>
        <pt x="218" y="215" on="0"/>
        <pt x="305" y="111" on="0"/>
        <pt x="452" y="111" on="0"/>
        <pt x="575" y="215" on="0"/>
        <pt x="588" y="289" on="1"/>
        <pt x="651" y="645" on="1"/>
        <pt x="655" y="668" on="0"/>
      </contour>
      <contour>
        <pt x="606" y="920" on="0"/>
        <pt x="661" y="920" on="0"/>
        <pt x="691" y="885" on="0"/>
        <pt x="686" y="858" on="1"/>
        <pt x="681" y="826" on="0"/>
        <pt x="634" y="790" on="0"/>
        <pt x="579" y="790" on="0"/>
        <pt x="548" y="824" on="0"/>
        <pt x="554" y="851" on="1"/>
        <pt x="559" y="884" on="0"/>
      </contour>
      <contour>
        <pt x="407" y="920" on="0"/>
        <pt x="462" y="920" on="0"/>
        <pt x="492" y="885" on="0"/>
        <pt x="487" y="858" on="1"/>
        <pt x="482" y="826" on="0"/>
        <pt x="435" y="790" on="0"/>
        <pt x="380" y="790" on="0"/>
        <pt x="349" y="824" on="0"/>
        <pt x="355" y="851" on="1"/>
        <pt x="360" y="884" on="0"/>
      </contour>
    </TTGlyph>
    <TTGlyph name="Ugrave" xMin="121" yMin="0" xMax="762" yMax="950">
      <contour>
        <pt x="693" y="700" on="0"/>
        <pt x="739" y="700" on="0"/>
        <pt x="766" y="668" on="0"/>
        <pt x="762" y="645" on="1"/>
        <pt x="699" y="289" on="1"/>
        <pt x="678" y="170" on="0"/>
        <pt x="479" y="0" on="0"/>
        <pt x="239" y="0" on="0"/>
        <pt x="100" y="170" on="0"/>
        <pt x="121" y="289" on="1"/>
        <pt x="183" y="645" on="1"/>
        <pt x="187" y="668" on="0"/>
        <pt x="226" y="700" on="0"/>
        <pt x="272" y="700" on="0"/>
        <pt x="298" y="668" on="0"/>
        <pt x="294" y="645" on="1"/>
        <pt x="231" y="289" on="1"/>
        <pt x="218" y="215" on="0"/>
        <pt x="305" y="111" on="0"/>
        <pt x="452" y="111" on="0"/>
        <pt x="575" y="215" on="0"/>
        <pt x="588" y="289" on="1"/>
        <pt x="651" y="645" on="1"/>
        <pt x="655" y="668" on="0"/>
      </contour>
      <contour>
        <pt x="579" y="811" on="1"/>
        <pt x="579" y="790" on="0"/>
        <pt x="506" y="790" on="0"/>
        <pt x="478" y="817" on="1"/>
        <pt x="410" y="881" on="1"/>
        <pt x="393" y="896" on="0"/>
        <pt x="393" y="925" on="0"/>
        <pt x="440" y="950" on="0"/>
        <pt x="495" y="950" on="0"/>
        <pt x="513" y="921" on="1"/>
        <pt x="570" y="833" on="1"/>
        <pt x="579" y="819" on="0"/>
      </contour>
    </TTGlyph>
    <TTGlyph name="V" xMin="63" yMin="1" xMax="670" yMax="698">
      <contour>
        <pt x="263" y="2" on="1"/>
        <pt x="253" y="1" on="1"/>
        <pt x="243" y="2" on="1"/>
        <pt x="242" y="2" on="0"/>
        <pt x="242" y="3" on="0"/>
        <pt x="239" y="3" on="0"/>
        <pt x="233" y="5" on="1"/>
        <pt x="232" y="6" on="1"/>
        <pt x="226" y="8" on="0"/>
        <pt x="215" y="19" on="1"/>
        <pt x="213" y="23" on="0"/>
        <pt x="211" y="26" on="1"/>
        <pt x="211" y="27" on="1"/>
        <pt x="208" y="30" on="0"/>
        <pt x="208" y="35" on="1"/>
        <pt x="63" y="624" on="1"/>
        <pt x="58" y="646" on="0"/>
        <pt x="83" y="688" on="0"/>
        <pt x="128" y="706" on="0"/>
        <pt x="168" y="689" on="0"/>
        <pt x="173" y="667" on="1"/>
        <pt x="288" y="199" on="1"/>
        <pt x="567" y="667" on="1"/>
        <pt x="580" y="689" on="0"/>
        <pt x="626" y="706" on="0"/>
        <pt x="665" y="688" on="0"/>
        <pt x="675" y="646" on="0"/>
        <pt x="662" y="624" on="1"/>
        <pt x="310" y="35" on="1"/>
        <pt x="306" y="29" on="0"/>
        <pt x="303" y="26" on="0"/>
        <pt x="289" y="11" on="0"/>
        <pt x="285" y="11" on="1"/>
        <pt x="279" y="7" on="0"/>
        <pt x="276" y="6" on="1"/>
        <pt x="275" y="6" on="1"/>
        <pt x="272" y="3" on="0"/>
        <pt x="265" y="3" on="1"/>
      </contour>
    </TTGlyph>
    <TTGlyph name="W" xMin="67" yMin="1" xMax="1040" yMax="697">
      <contour>
        <pt x="219" y="18" on="1"/>
        <pt x="215" y="25" on="1"/>
        <pt x="215" y="26" on="1"/>
        <pt x="213" y="29" on="0"/>
        <pt x="211" y="35" on="1"/>
        <pt x="67" y="624" on="1"/>
        <pt x="62" y="645" on="0"/>
        <pt x="86" y="687" on="0"/>
        <pt x="132" y="705" on="0"/>
        <pt x="172" y="688" on="0"/>
        <pt x="177" y="667" on="1"/>
        <pt x="291" y="199" on="1"/>
        <pt x="477" y="509" on="1"/>
        <pt x="497" y="543" on="0"/>
        <pt x="574" y="543" on="0"/>
        <pt x="582" y="509" on="1"/>
        <pt x="658" y="199" on="1"/>
        <pt x="938" y="667" on="1"/>
        <pt x="951" y="688" on="0"/>
        <pt x="995" y="705" on="0"/>
        <pt x="1035" y="687" on="0"/>
        <pt x="1045" y="645" on="0"/>
        <pt x="1032" y="624" on="1"/>
        <pt x="680" y="35" on="1"/>
        <pt x="674" y="26" on="1"/>
        <pt x="672" y="24" on="0"/>
        <pt x="668" y="19" on="0"/>
        <pt x="667" y="18" on="1"/>
        <pt x="666" y="18" on="0"/>
        <pt x="666" y="18" on="1"/>
        <pt x="664" y="17" on="1"/>
        <pt x="660" y="13" on="0"/>
        <pt x="658" y="12" on="1"/>
        <pt x="646" y="6" on="0"/>
        <pt x="646" y="5" on="1"/>
        <pt x="644" y="5" on="1"/>
        <pt x="638" y="3" on="0"/>
        <pt x="636" y="2" on="1"/>
        <pt x="633" y="2" on="1"/>
        <pt x="630" y="1" on="0"/>
        <pt x="617" y="1" on="0"/>
        <pt x="614" y="2" on="1"/>
        <pt x="611" y="2" on="1"/>
        <pt x="608" y="3" on="0"/>
        <pt x="604" y="5" on="1"/>
        <pt x="602" y="5" on="1"/>
        <pt x="601" y="6" on="0"/>
        <pt x="598" y="8" on="1"/>
        <pt x="588" y="12" on="0"/>
        <pt x="582" y="25" on="1"/>
        <pt x="581" y="26" on="1"/>
        <pt x="501" y="348" on="1"/>
        <pt x="314" y="35" on="1"/>
        <pt x="308" y="26" on="1"/>
        <pt x="306" y="25" on="1"/>
        <pt x="305" y="24" on="0"/>
        <pt x="301" y="19" on="0"/>
        <pt x="300" y="18" on="1"/>
        <pt x="298" y="17" on="1"/>
        <pt x="297" y="16" on="0"/>
        <pt x="292" y="12" on="0"/>
        <pt x="291" y="11" on="1"/>
        <pt x="280" y="5" on="1"/>
        <pt x="277" y="5" on="1"/>
        <pt x="271" y="2" on="0"/>
        <pt x="269" y="2" on="1"/>
        <pt x="266" y="2" on="1"/>
        <pt x="263" y="1" on="0"/>
        <pt x="257" y="1" on="1"/>
        <pt x="256" y="1" on="1"/>
        <pt x="250" y="1" on="0"/>
        <pt x="247" y="2" on="1"/>
        <pt x="244" y="2" on="1"/>
        <pt x="240" y="4" on="0"/>
        <pt x="237" y="5" on="1"/>
        <pt x="235" y="5" on="1"/>
        <pt x="234" y="6" on="0"/>
        <pt x="231" y="8" on="1"/>
        <pt x="220" y="13" on="0"/>
        <pt x="220" y="18" on="1"/>
        <pt x="220" y="18" on="0"/>
      </contour>
    </TTGlyph>
    <TTGlyph name="X" xMin="79" yMin="1" xMax="726" yMax="701">
      <contour>
        <pt x="648" y="697" on="0"/>
        <pt x="694" y="704" on="0"/>
        <pt x="726" y="677" on="0"/>
        <pt x="726" y="632" on="0"/>
        <pt x="709" y="613" on="1"/>
        <pt x="471" y="351" on="1"/>
        <pt x="616" y="89" on="1"/>
        <pt x="626" y="71" on="0"/>
        <pt x="611" y="26" on="0"/>
        <pt x="591" y="12" on="1"/>
        <pt x="572" y="1" on="0"/>
        <pt x="529" y="1" on="0"/>
        <pt x="515" y="24" on="1"/>
        <pt x="386" y="258" on="1"/>
        <pt x="174" y="24" on="1"/>
        <pt x="154" y="1" on="0"/>
        <pt x="108" y="1" on="0"/>
        <pt x="79" y="26" on="0"/>
        <pt x="79" y="71" on="0"/>
        <pt x="96" y="89" on="1"/>
        <pt x="334" y="351" on="1"/>
        <pt x="189" y="613" on="1"/>
        <pt x="178" y="632" on="0"/>
        <pt x="193" y="678" on="0"/>
        <pt x="235" y="704" on="0"/>
        <pt x="279" y="697" on="0"/>
        <pt x="289" y="679" on="1"/>
        <pt x="419" y="445" on="1"/>
        <pt x="631" y="679" on="1"/>
      </contour>
    </TTGlyph>
    <TTGlyph name="Y" xMin="65" yMin="-1" xMax="609" yMax="699">
      <contour>
        <pt x="592" y="611" on="1"/>
        <pt x="335" y="328" on="1"/>
        <pt x="287" y="54" on="1"/>
        <pt x="283" y="32" on="0"/>
        <pt x="245" y="-1" on="0"/>
        <pt x="199" y="-1" on="0"/>
        <pt x="172" y="31" on="0"/>
        <pt x="176" y="54" on="1"/>
        <pt x="225" y="328" on="1"/>
        <pt x="68" y="611" on="1"/>
        <pt x="58" y="630" on="0"/>
        <pt x="73" y="674" on="0"/>
        <pt x="93" y="688" on="1"/>
        <pt x="114" y="702" on="0"/>
        <pt x="159" y="695" on="0"/>
        <pt x="169" y="676" on="1"/>
        <pt x="300" y="440" on="1"/>
        <pt x="514" y="676" on="1"/>
        <pt x="530" y="695" on="0"/>
        <pt x="577" y="702" on="0"/>
        <pt x="609" y="674" on="0"/>
        <pt x="609" y="630" on="0"/>
      </contour>
    </TTGlyph>
    <TTGlyph name="Yacute" xMin="65" yMin="-1" xMax="609" yMax="950">
      <contour>
        <pt x="592" y="611" on="1"/>
        <pt x="335" y="328" on="1"/>
        <pt x="287" y="54" on="1"/>
        <pt x="283" y="32" on="0"/>
        <pt x="245" y="-1" on="0"/>
        <pt x="199" y="-1" on="0"/>
        <pt x="172" y="31" on="0"/>
        <pt x="176" y="54" on="1"/>
        <pt x="225" y="328" on="1"/>
        <pt x="68" y="611" on="1"/>
        <pt x="58" y="630" on="0"/>
        <pt x="73" y="674" on="0"/>
        <pt x="93" y="688" on="1"/>
        <pt x="114" y="702" on="0"/>
        <pt x="159" y="695" on="0"/>
        <pt x="169" y="676" on="1"/>
        <pt x="300" y="440" on="1"/>
        <pt x="514" y="676" on="1"/>
        <pt x="530" y="695" on="0"/>
        <pt x="577" y="702" on="0"/>
        <pt x="609" y="674" on="0"/>
        <pt x="609" y="630" on="0"/>
      </contour>
      <contour>
        <pt x="445" y="817" on="1"/>
        <pt x="416" y="790" on="0"/>
        <pt x="344" y="790" on="0"/>
        <pt x="344" y="811" on="1"/>
        <pt x="344" y="821" on="0"/>
        <pt x="352" y="833" on="1"/>
        <pt x="409" y="921" on="1"/>
        <pt x="427" y="950" on="0"/>
        <pt x="482" y="950" on="0"/>
        <pt x="529" y="925" on="0"/>
        <pt x="529" y="896" on="0"/>
        <pt x="512" y="881" on="1"/>
      </contour>
    </TTGlyph>
    <TTGlyph name="Ydieresis" xMin="65" yMin="-1" xMax="609" yMax="920">
      <contour>
        <pt x="592" y="611" on="1"/>
        <pt x="335" y="328" on="1"/>
        <pt x="287" y="54" on="1"/>
        <pt x="283" y="32" on="0"/>
        <pt x="245" y="-1" on="0"/>
        <pt x="199" y="-1" on="0"/>
        <pt x="172" y="31" on="0"/>
        <pt x="176" y="54" on="1"/>
        <pt x="225" y="328" on="1"/>
        <pt x="68" y="611" on="1"/>
        <pt x="58" y="630" on="0"/>
        <pt x="73" y="674" on="0"/>
        <pt x="93" y="688" on="1"/>
        <pt x="114" y="702" on="0"/>
        <pt x="159" y="695" on="0"/>
        <pt x="169" y="676" on="1"/>
        <pt x="300" y="440" on="1"/>
        <pt x="514" y="676" on="1"/>
        <pt x="530" y="695" on="0"/>
        <pt x="577" y="702" on="0"/>
        <pt x="609" y="674" on="0"/>
        <pt x="609" y="630" on="0"/>
      </contour>
      <contour>
        <pt x="469" y="920" on="0"/>
        <pt x="524" y="920" on="0"/>
        <pt x="554" y="885" on="0"/>
        <pt x="549" y="858" on="1"/>
        <pt x="544" y="826" on="0"/>
        <pt x="497" y="790" on="0"/>
        <pt x="442" y="790" on="0"/>
        <pt x="411" y="824" on="0"/>
        <pt x="417" y="851" on="1"/>
        <pt x="422" y="884" on="0"/>
      </contour>
      <contour>
        <pt x="270" y="920" on="0"/>
        <pt x="325" y="920" on="0"/>
        <pt x="355" y="885" on="0"/>
        <pt x="350" y="858" on="1"/>
        <pt x="345" y="826" on="0"/>
        <pt x="298" y="790" on="0"/>
        <pt x="243" y="790" on="0"/>
        <pt x="212" y="824" on="0"/>
        <pt x="218" y="851" on="1"/>
        <pt x="223" y="884" on="0"/>
      </contour>
    </TTGlyph>
    <TTGlyph name="Z" xMin="71" yMin="-1" xMax="718" yMax="699">
      <contour>
        <pt x="683" y="698" on="1"/>
        <pt x="693" y="694" on="1"/>
        <pt x="697" y="694" on="0"/>
        <pt x="709" y="682" on="1"/>
        <pt x="711" y="678" on="1"/>
        <pt x="714" y="675" on="0"/>
        <pt x="714" y="673" on="1"/>
        <pt x="716" y="669" on="1"/>
        <pt x="716" y="667" on="0"/>
        <pt x="718" y="659" on="1"/>
        <pt x="718" y="647" on="1"/>
        <pt x="718" y="645" on="0"/>
        <pt x="717" y="644" on="1"/>
        <pt x="717" y="643" on="1"/>
        <pt x="717" y="640" on="0"/>
        <pt x="715" y="636" on="1"/>
        <pt x="715" y="631" on="0"/>
        <pt x="711" y="627" on="1"/>
        <pt x="711" y="625" on="0"/>
        <pt x="707" y="619" on="0"/>
        <pt x="704" y="616" on="0"/>
        <pt x="702" y="612" on="1"/>
        <pt x="246" y="110" on="1"/>
        <pt x="568" y="110" on="1"/>
        <pt x="591" y="110" on="0"/>
        <pt x="617" y="77" on="0"/>
        <pt x="609" y="31" on="0"/>
        <pt x="571" y="-1" on="0"/>
        <pt x="548" y="-1" on="1"/>
        <pt x="118" y="-1" on="1"/>
        <pt x="107" y="-1" on="0"/>
        <pt x="105" y="1" on="1"/>
        <pt x="96" y="4" on="1"/>
        <pt x="90" y="7" on="1"/>
        <pt x="88" y="9" on="1"/>
        <pt x="86" y="9" on="0"/>
        <pt x="86" y="11" on="1"/>
        <pt x="84" y="12" on="1"/>
        <pt x="83" y="14" on="0"/>
        <pt x="82" y="16" on="1"/>
        <pt x="78" y="19" on="0"/>
        <pt x="78" y="21" on="1"/>
        <pt x="76" y="23" on="0"/>
        <pt x="76" y="25" on="1"/>
        <pt x="74" y="27" on="0"/>
        <pt x="74" y="30" on="1"/>
        <pt x="72" y="34" on="1"/>
        <pt x="72" y="40" on="1"/>
        <pt x="71" y="44" on="1"/>
        <pt x="72" y="51" on="1"/>
        <pt x="72" y="55" on="1"/>
        <pt x="75" y="64" on="0"/>
        <pt x="75" y="66" on="1"/>
        <pt x="78" y="72" on="1"/>
        <pt x="84" y="81" on="1"/>
        <pt x="85" y="83" on="0"/>
        <pt x="88" y="86" on="1"/>
        <pt x="88" y="87" on="1"/>
        <pt x="543" y="588" on="1"/>
        <pt x="222" y="588" on="1"/>
        <pt x="199" y="588" on="0"/>
        <pt x="172" y="621" on="0"/>
        <pt x="180" y="666" on="0"/>
        <pt x="218" y="699" on="0"/>
        <pt x="241" y="699" on="1"/>
        <pt x="673" y="699" on="1"/>
        <pt x="677" y="699" on="0"/>
        <pt x="679" y="698" on="1"/>
      </contour>
    </TTGlyph>
    <TTGlyph name="a" xMin="53" yMin="1" xMax="561" yMax="499">
      <contour>
        <pt x="246" y="1" on="1"/>
        <pt x="146" y="1" on="0"/>
        <pt x="90" y="75" on="1"/>
        <pt x="34" y="151" on="0"/>
        <pt x="53" y="250" on="1"/>
        <pt x="69" y="351" on="0"/>
        <pt x="151" y="426" on="1"/>
        <pt x="234" y="499" on="0"/>
        <pt x="334" y="499" on="1"/>
        <pt x="406" y="499" on="0"/>
        <pt x="459" y="457" on="1"/>
        <pt x="466" y="475" on="0"/>
        <pt x="499" y="499" on="0"/>
        <pt x="541" y="499" on="0"/>
        <pt x="565" y="468" on="0"/>
        <pt x="561" y="446" on="1"/>
        <pt x="493" y="55" on="1"/>
        <pt x="488" y="32" on="0"/>
        <pt x="453" y="1" on="0"/>
        <pt x="411" y="1" on="0"/>
        <pt x="387" y="25" on="0"/>
        <pt x="386" y="44" on="1"/>
        <pt x="317" y="1" on="0"/>
      </contour>
      <contour>
        <pt x="216" y="353" on="1"/>
        <pt x="168" y="310" on="0"/>
        <pt x="148" y="190" on="0"/>
        <pt x="210" y="107" on="0"/>
        <pt x="319" y="107" on="0"/>
        <pt x="363" y="148" on="1"/>
        <pt x="410" y="189" on="0"/>
        <pt x="433" y="309" on="0"/>
        <pt x="368" y="394" on="0"/>
        <pt x="264" y="394" on="0"/>
      </contour>
    </TTGlyph>
    <TTGlyph name="aacute" xMin="76" yMin="1" xMax="584" yMax="750">
      <contour>
        <pt x="269" y="1" on="1"/>
        <pt x="169" y="1" on="0"/>
        <pt x="113" y="75" on="1"/>
        <pt x="57" y="151" on="0"/>
        <pt x="76" y="250" on="1"/>
        <pt x="92" y="351" on="0"/>
        <pt x="174" y="426" on="1"/>
        <pt x="257" y="499" on="0"/>
        <pt x="357" y="499" on="1"/>
        <pt x="429" y="499" on="0"/>
        <pt x="482" y="457" on="1"/>
        <pt x="489" y="475" on="0"/>
        <pt x="522" y="499" on="0"/>
        <pt x="564" y="499" on="0"/>
        <pt x="588" y="468" on="0"/>
        <pt x="584" y="446" on="1"/>
        <pt x="516" y="55" on="1"/>
        <pt x="511" y="32" on="0"/>
        <pt x="476" y="1" on="0"/>
        <pt x="434" y="1" on="0"/>
        <pt x="410" y="25" on="0"/>
        <pt x="409" y="44" on="1"/>
        <pt x="340" y="1" on="0"/>
      </contour>
      <contour>
        <pt x="239" y="353" on="1"/>
        <pt x="191" y="310" on="0"/>
        <pt x="171" y="190" on="0"/>
        <pt x="233" y="107" on="0"/>
        <pt x="342" y="107" on="0"/>
        <pt x="386" y="148" on="1"/>
        <pt x="433" y="189" on="0"/>
        <pt x="456" y="309" on="0"/>
        <pt x="391" y="394" on="0"/>
        <pt x="287" y="394" on="0"/>
      </contour>
      <contour>
        <pt x="449" y="617" on="1"/>
        <pt x="420" y="590" on="0"/>
        <pt x="348" y="590" on="0"/>
        <pt x="348" y="611" on="1"/>
        <pt x="348" y="621" on="0"/>
        <pt x="356" y="633" on="1"/>
        <pt x="413" y="721" on="1"/>
        <pt x="431" y="750" on="0"/>
        <pt x="486" y="750" on="0"/>
        <pt x="533" y="725" on="0"/>
        <pt x="533" y="696" on="0"/>
        <pt x="516" y="681" on="1"/>
      </contour>
    </TTGlyph>
    <TTGlyph name="acircumflex" xMin="76" yMin="1" xMax="635" yMax="746">
      <contour>
        <pt x="269" y="1" on="1"/>
        <pt x="169" y="1" on="0"/>
        <pt x="113" y="75" on="1"/>
        <pt x="57" y="151" on="0"/>
        <pt x="76" y="250" on="1"/>
        <pt x="92" y="351" on="0"/>
        <pt x="174" y="426" on="1"/>
        <pt x="257" y="499" on="0"/>
        <pt x="357" y="499" on="1"/>
        <pt x="429" y="499" on="0"/>
        <pt x="482" y="457" on="1"/>
        <pt x="489" y="475" on="0"/>
        <pt x="522" y="499" on="0"/>
        <pt x="564" y="499" on="0"/>
        <pt x="588" y="468" on="0"/>
        <pt x="584" y="446" on="1"/>
        <pt x="516" y="55" on="1"/>
        <pt x="511" y="32" on="0"/>
        <pt x="476" y="1" on="0"/>
        <pt x="434" y="1" on="0"/>
        <pt x="410" y="25" on="0"/>
        <pt x="409" y="44" on="1"/>
        <pt x="340" y="1" on="0"/>
      </contour>
      <contour>
        <pt x="239" y="353" on="1"/>
        <pt x="191" y="310" on="0"/>
        <pt x="171" y="190" on="0"/>
        <pt x="233" y="107" on="0"/>
        <pt x="342" y="107" on="0"/>
        <pt x="386" y="148" on="1"/>
        <pt x="433" y="189" on="0"/>
        <pt x="456" y="309" on="0"/>
        <pt x="391" y="394" on="0"/>
        <pt x="287" y="394" on="0"/>
      </contour>
      <contour>
        <pt x="496" y="662" on="1"/>
        <pt x="430" y="617" on="1"/>
        <pt x="391" y="590" on="0"/>
        <pt x="348" y="590" on="1"/>
        <pt x="336" y="590" on="0"/>
        <pt x="324" y="601" on="0"/>
        <pt x="329" y="617" on="0"/>
        <pt x="346" y="634" on="1"/>
        <pt x="437" y="717" on="1"/>
        <pt x="469" y="746" on="0"/>
        <pt x="504" y="746" on="1"/>
        <pt x="540" y="746" on="1"/>
        <pt x="574" y="746" on="0"/>
        <pt x="589" y="717" on="1"/>
        <pt x="630" y="634" on="1"/>
        <pt x="638" y="619" on="0"/>
        <pt x="635" y="610" on="1"/>
        <pt x="629" y="590" on="0"/>
        <pt x="560" y="590" on="0"/>
        <pt x="534" y="617" on="1"/>
      </contour>
    </TTGlyph>
    <TTGlyph name="acute" xMin="201" yMin="590" xMax="386" yMax="750">
      <contour>
        <pt x="302" y="617" on="1"/>
        <pt x="273" y="590" on="0"/>
        <pt x="201" y="590" on="0"/>
        <pt x="201" y="611" on="1"/>
        <pt x="201" y="621" on="0"/>
        <pt x="209" y="633" on="1"/>
        <pt x="266" y="721" on="1"/>
        <pt x="284" y="750" on="0"/>
        <pt x="339" y="750" on="0"/>
        <pt x="386" y="725" on="0"/>
        <pt x="386" y="696" on="0"/>
        <pt x="369" y="681" on="1"/>
      </contour>
    </TTGlyph>
    <TTGlyph name="adieresis" xMin="76" yMin="1" xMax="672" yMax="720">
      <contour>
        <pt x="269" y="1" on="1"/>
        <pt x="169" y="1" on="0"/>
        <pt x="113" y="75" on="1"/>
        <pt x="57" y="151" on="0"/>
        <pt x="76" y="250" on="1"/>
        <pt x="92" y="351" on="0"/>
        <pt x="174" y="426" on="1"/>
        <pt x="257" y="499" on="0"/>
        <pt x="357" y="499" on="1"/>
        <pt x="429" y="499" on="0"/>
        <pt x="482" y="457" on="1"/>
        <pt x="489" y="475" on="0"/>
        <pt x="522" y="499" on="0"/>
        <pt x="564" y="499" on="0"/>
        <pt x="588" y="468" on="0"/>
        <pt x="584" y="446" on="1"/>
        <pt x="516" y="55" on="1"/>
        <pt x="511" y="32" on="0"/>
        <pt x="476" y="1" on="0"/>
        <pt x="434" y="1" on="0"/>
        <pt x="410" y="25" on="0"/>
        <pt x="409" y="44" on="1"/>
        <pt x="340" y="1" on="0"/>
      </contour>
      <contour>
        <pt x="239" y="353" on="1"/>
        <pt x="191" y="310" on="0"/>
        <pt x="171" y="190" on="0"/>
        <pt x="233" y="107" on="0"/>
        <pt x="342" y="107" on="0"/>
        <pt x="386" y="148" on="1"/>
        <pt x="433" y="189" on="0"/>
        <pt x="456" y="309" on="0"/>
        <pt x="391" y="394" on="0"/>
        <pt x="287" y="394" on="0"/>
      </contour>
      <contour>
        <pt x="592" y="720" on="0"/>
        <pt x="647" y="720" on="0"/>
        <pt x="677" y="685" on="0"/>
        <pt x="672" y="658" on="1"/>
        <pt x="667" y="626" on="0"/>
        <pt x="620" y="590" on="0"/>
        <pt x="565" y="590" on="0"/>
        <pt x="534" y="624" on="0"/>
        <pt x="540" y="651" on="1"/>
        <pt x="545" y="684" on="0"/>
      </contour>
      <contour>
        <pt x="393" y="720" on="0"/>
        <pt x="448" y="720" on="0"/>
        <pt x="478" y="685" on="0"/>
        <pt x="473" y="658" on="1"/>
        <pt x="468" y="626" on="0"/>
        <pt x="421" y="590" on="0"/>
        <pt x="366" y="590" on="0"/>
        <pt x="335" y="624" on="0"/>
        <pt x="341" y="651" on="1"/>
        <pt x="346" y="684" on="0"/>
      </contour>
    </TTGlyph>
    <TTGlyph name="ae" xMin="63" yMin="0" xMax="957" yMax="511">
      <contour>
        <pt x="661" y="0" on="1"/>
        <pt x="572" y="0" on="0"/>
        <pt x="515" y="57" on="1"/>
        <pt x="515" y="56" on="1"/>
        <pt x="510" y="33" on="0"/>
        <pt x="473" y="1" on="0"/>
        <pt x="431" y="1" on="0"/>
        <pt x="406" y="26" on="0"/>
        <pt x="405" y="45" on="1"/>
        <pt x="335" y="1" on="0"/>
        <pt x="262" y="1" on="1"/>
        <pt x="160" y="1" on="0"/>
        <pt x="102" y="77" on="1"/>
        <pt x="45" y="154" on="0"/>
        <pt x="82" y="361" on="0"/>
        <pt x="165" y="436" on="1"/>
        <pt x="250" y="511" on="0"/>
        <pt x="352" y="511" on="1"/>
        <pt x="426" y="511" on="0"/>
        <pt x="480" y="468" on="1"/>
        <pt x="487" y="487" on="0"/>
        <pt x="521" y="511" on="0"/>
        <pt x="564" y="511" on="0"/>
        <pt x="576" y="495" on="1"/>
        <pt x="589" y="479" on="0"/>
        <pt x="584" y="451" on="1"/>
        <pt x="664" y="510" on="0"/>
        <pt x="854" y="510" on="0"/>
        <pt x="970" y="376" on="0"/>
        <pt x="957" y="274" on="1"/>
        <pt x="957" y="247" on="0"/>
        <pt x="914" y="218" on="0"/>
        <pt x="893" y="218" on="1"/>
        <pt x="568" y="218" on="1"/>
        <pt x="568" y="178" on="0"/>
        <pt x="590" y="151" on="1"/>
        <pt x="603" y="133" on="0"/>
        <pt x="654" y="107" on="0"/>
        <pt x="680" y="105" on="1"/>
        <pt x="753" y="99" on="0"/>
        <pt x="802" y="144" on="1"/>
        <pt x="819" y="161" on="0"/>
        <pt x="856" y="160" on="0"/>
        <pt x="870" y="151" on="0"/>
        <pt x="888" y="132" on="0"/>
        <pt x="885" y="93" on="0"/>
        <pt x="871" y="79" on="1"/>
        <pt x="826" y="36" on="0"/>
        <pt x="730" y="0" on="0"/>
      </contour>
      <contour>
        <pt x="387" y="403" on="0"/>
        <pt x="279" y="403" on="0"/>
        <pt x="182" y="317" on="0"/>
        <pt x="161" y="194" on="0"/>
        <pt x="194" y="152" on="1"/>
        <pt x="225" y="110" on="0"/>
        <pt x="337" y="110" on="0"/>
        <pt x="382" y="152" on="1"/>
        <pt x="430" y="194" on="0"/>
        <pt x="453" y="317" on="0"/>
      </contour>
      <contour>
        <pt x="736" y="413" on="1"/>
        <pt x="676" y="410" on="0"/>
        <pt x="593" y="343" on="0"/>
        <pt x="578" y="305" on="1"/>
        <pt x="867" y="305" on="1"/>
        <pt x="865" y="341" on="0"/>
        <pt x="796" y="408" on="0"/>
      </contour>
    </TTGlyph>
    <TTGlyph name="agrave" xMin="76" yMin="1" xMax="584" yMax="750">
      <contour>
        <pt x="269" y="1" on="1"/>
        <pt x="169" y="1" on="0"/>
        <pt x="113" y="75" on="1"/>
        <pt x="57" y="151" on="0"/>
        <pt x="76" y="250" on="1"/>
        <pt x="92" y="351" on="0"/>
        <pt x="174" y="426" on="1"/>
        <pt x="257" y="499" on="0"/>
        <pt x="357" y="499" on="1"/>
        <pt x="429" y="499" on="0"/>
        <pt x="482" y="457" on="1"/>
        <pt x="489" y="475" on="0"/>
        <pt x="522" y="499" on="0"/>
        <pt x="564" y="499" on="0"/>
        <pt x="588" y="468" on="0"/>
        <pt x="584" y="446" on="1"/>
        <pt x="516" y="55" on="1"/>
        <pt x="511" y="32" on="0"/>
        <pt x="476" y="1" on="0"/>
        <pt x="434" y="1" on="0"/>
        <pt x="410" y="25" on="0"/>
        <pt x="409" y="44" on="1"/>
        <pt x="340" y="1" on="0"/>
      </contour>
      <contour>
        <pt x="239" y="353" on="1"/>
        <pt x="191" y="310" on="0"/>
        <pt x="171" y="190" on="0"/>
        <pt x="233" y="107" on="0"/>
        <pt x="342" y="107" on="0"/>
        <pt x="386" y="148" on="1"/>
        <pt x="433" y="189" on="0"/>
        <pt x="456" y="309" on="0"/>
        <pt x="391" y="394" on="0"/>
        <pt x="287" y="394" on="0"/>
      </contour>
      <contour>
        <pt x="527" y="611" on="1"/>
        <pt x="527" y="590" on="0"/>
        <pt x="454" y="590" on="0"/>
        <pt x="426" y="617" on="1"/>
        <pt x="358" y="681" on="1"/>
        <pt x="341" y="696" on="0"/>
        <pt x="341" y="725" on="0"/>
        <pt x="388" y="750" on="0"/>
        <pt x="443" y="750" on="0"/>
        <pt x="461" y="721" on="1"/>
        <pt x="518" y="633" on="1"/>
        <pt x="527" y="620" on="0"/>
      </contour>
    </TTGlyph>
    <TTGlyph name="ampersand" xMin="72" yMin="0" xMax="630" yMax="700">
      <contour>
        <pt x="500" y="356" on="1"/>
        <pt x="515" y="356" on="0"/>
        <pt x="515" y="359" on="1"/>
        <pt x="517" y="359" on="0"/>
        <pt x="519" y="373" on="0"/>
        <pt x="517" y="404" on="0"/>
        <pt x="548" y="442" on="0"/>
        <pt x="594" y="452" on="0"/>
        <pt x="629" y="427" on="0"/>
        <pt x="630" y="407" on="1"/>
        <pt x="635" y="315" on="0"/>
        <pt x="567" y="271" on="1"/>
        <pt x="561" y="266" on="0"/>
        <pt x="556" y="264" on="1"/>
        <pt x="553" y="240" on="1"/>
        <pt x="535" y="140" on="0"/>
        <pt x="370" y="0" on="0"/>
        <pt x="170" y="0" on="0"/>
        <pt x="55" y="140" on="0"/>
        <pt x="90" y="346" on="0"/>
        <pt x="181" y="417" on="1"/>
        <pt x="161" y="464" on="0"/>
        <pt x="171" y="514" on="1"/>
        <pt x="184" y="591" on="0"/>
        <pt x="312" y="700" on="0"/>
        <pt x="466" y="700" on="0"/>
        <pt x="556" y="591" on="0"/>
        <pt x="542" y="514" on="1"/>
        <pt x="538" y="491" on="0"/>
        <pt x="500" y="459" on="0"/>
        <pt x="454" y="459" on="0"/>
        <pt x="428" y="491" on="0"/>
        <pt x="437" y="545" on="0"/>
        <pt x="401" y="589" on="0"/>
        <pt x="339" y="589" on="0"/>
        <pt x="287" y="546" on="0"/>
        <pt x="275" y="474" on="0"/>
        <pt x="302" y="453" on="1"/>
        <pt x="318" y="440" on="0"/>
        <pt x="319" y="398" on="0"/>
        <pt x="305" y="379" on="1"/>
        <pt x="304" y="379" on="1"/>
        <pt x="302" y="375" on="1"/>
        <pt x="293" y="366" on="0"/>
        <pt x="284" y="362" on="0"/>
        <pt x="284" y="361" on="1"/>
        <pt x="277" y="357" on="1"/>
        <pt x="241" y="341" on="0"/>
        <pt x="190" y="278" on="0"/>
        <pt x="173" y="187" on="0"/>
        <pt x="236" y="111" on="0"/>
        <pt x="343" y="111" on="0"/>
        <pt x="388" y="149" on="1"/>
        <pt x="433" y="188" on="0"/>
        <pt x="443" y="246" on="1"/>
        <pt x="385" y="246" on="0"/>
        <pt x="363" y="227" on="1"/>
        <pt x="350" y="215" on="0"/>
        <pt x="350" y="195" on="1"/>
        <pt x="353" y="173" on="0"/>
        <pt x="338" y="153" on="1"/>
        <pt x="317" y="124" on="0"/>
        <pt x="285" y="124" on="1"/>
        <pt x="267" y="124" on="0"/>
        <pt x="241" y="145" on="0"/>
        <pt x="239" y="163" on="1"/>
        <pt x="235" y="176" on="0"/>
        <pt x="241" y="205" on="1"/>
        <pt x="250" y="265" on="0"/>
        <pt x="300" y="306" on="1"/>
        <pt x="362" y="357" on="0"/>
        <pt x="465" y="357" on="1"/>
        <pt x="498" y="356" on="1"/>
      </contour>
    </TTGlyph>
    <TTGlyph name="aring" xMin="64" yMin="1" xMax="572" yMax="818">
      <contour>
        <pt x="453" y="570" on="0"/>
        <pt x="351" y="570" on="0"/>
        <pt x="287" y="644" on="0"/>
        <pt x="296" y="693" on="1"/>
        <pt x="296" y="695" on="1"/>
        <pt x="305" y="745" on="0"/>
        <pt x="395" y="818" on="0"/>
        <pt x="497" y="818" on="0"/>
        <pt x="561" y="745" on="0"/>
        <pt x="552" y="695" on="1"/>
        <pt x="552" y="693" on="1"/>
        <pt x="543" y="644" on="0"/>
      </contour>
      <contour>
        <pt x="395" y="646" on="0"/>
        <pt x="435" y="646" on="0"/>
        <pt x="468" y="673" on="0"/>
        <pt x="472" y="693" on="1"/>
        <pt x="472" y="695" on="1"/>
        <pt x="476" y="714" on="0"/>
        <pt x="452" y="742" on="0"/>
        <pt x="412" y="742" on="0"/>
        <pt x="380" y="715" on="0"/>
        <pt x="376" y="695" on="1"/>
        <pt x="376" y="693" on="1"/>
        <pt x="372" y="673" on="0"/>
      </contour>
      <contour>
        <pt x="257" y="1" on="1"/>
        <pt x="157" y="1" on="0"/>
        <pt x="101" y="75" on="1"/>
        <pt x="45" y="151" on="0"/>
        <pt x="64" y="250" on="1"/>
        <pt x="80" y="351" on="0"/>
        <pt x="162" y="426" on="1"/>
        <pt x="245" y="499" on="0"/>
        <pt x="345" y="499" on="1"/>
        <pt x="417" y="499" on="0"/>
        <pt x="470" y="457" on="1"/>
        <pt x="477" y="475" on="0"/>
        <pt x="510" y="499" on="0"/>
        <pt x="552" y="499" on="0"/>
        <pt x="576" y="468" on="0"/>
        <pt x="572" y="446" on="1"/>
        <pt x="504" y="55" on="1"/>
        <pt x="499" y="32" on="0"/>
        <pt x="464" y="1" on="0"/>
        <pt x="422" y="1" on="0"/>
        <pt x="398" y="25" on="0"/>
        <pt x="397" y="44" on="1"/>
        <pt x="328" y="1" on="0"/>
      </contour>
      <contour>
        <pt x="227" y="353" on="1"/>
        <pt x="179" y="310" on="0"/>
        <pt x="159" y="190" on="0"/>
        <pt x="221" y="107" on="0"/>
        <pt x="330" y="107" on="0"/>
        <pt x="374" y="148" on="1"/>
        <pt x="421" y="189" on="0"/>
        <pt x="444" y="309" on="0"/>
        <pt x="379" y="394" on="0"/>
        <pt x="275" y="394" on="0"/>
      </contour>
    </TTGlyph>
    <TTGlyph name="asciicircum" xMin="88" yMin="488" xMax="428" yMax="704">
      <contour>
        <pt x="279" y="625" on="1"/>
        <pt x="188" y="532" on="1"/>
        <pt x="162" y="506" on="0"/>
        <pt x="129" y="488" on="0"/>
        <pt x="95" y="488" on="0"/>
        <pt x="88" y="494" on="1"/>
        <pt x="72" y="506" on="0"/>
        <pt x="101" y="538" on="1"/>
        <pt x="223" y="668" on="1"/>
        <pt x="254" y="704" on="0"/>
        <pt x="291" y="704" on="1"/>
        <pt x="300" y="704" on="1"/>
        <pt x="335" y="704" on="0"/>
        <pt x="355" y="668" on="1"/>
        <pt x="423" y="538" on="1"/>
        <pt x="431" y="521" on="0"/>
        <pt x="428" y="508" on="1"/>
        <pt x="423" y="488" on="0"/>
        <pt x="373" y="488" on="0"/>
        <pt x="346" y="506" on="0"/>
        <pt x="332" y="532" on="1"/>
      </contour>
    </TTGlyph>
    <TTGlyph name="asciitilde" xMin="85" yMin="227" xMax="450" yMax="387">
      <contour>
        <pt x="154" y="247" on="1"/>
        <pt x="143" y="227" on="0"/>
        <pt x="107" y="227" on="0"/>
        <pt x="85" y="247" on="0"/>
        <pt x="85" y="275" on="0"/>
        <pt x="89" y="283" on="1"/>
        <pt x="106" y="329" on="0"/>
        <pt x="152" y="374" on="0"/>
        <pt x="221" y="374" on="0"/>
        <pt x="319" y="335" on="0"/>
        <pt x="334" y="335" on="1"/>
        <pt x="364" y="335" on="0"/>
        <pt x="392" y="387" on="0"/>
        <pt x="428" y="387" on="0"/>
        <pt x="450" y="366" on="0"/>
        <pt x="450" y="339" on="0"/>
        <pt x="446" y="330" on="1"/>
        <pt x="429" y="284" on="0"/>
        <pt x="383" y="239" on="0"/>
        <pt x="314" y="239" on="0"/>
        <pt x="216" y="279" on="0"/>
        <pt x="201" y="279" on="1"/>
        <pt x="171" y="279" on="0"/>
      </contour>
    </TTGlyph>
    <TTGlyph name="asterisk" xMin="79" yMin="209" xMax="359" yMax="487">
      <contour>
        <pt x="359" y="405" on="1"/>
        <pt x="356" y="385" on="0"/>
        <pt x="332" y="375" on="1"/>
        <pt x="261" y="348" on="1"/>
        <pt x="322" y="320" on="1"/>
        <pt x="342" y="312" on="0"/>
        <pt x="337" y="277" on="0"/>
        <pt x="314" y="259" on="0"/>
        <pt x="291" y="259" on="0"/>
        <pt x="281" y="269" on="1"/>
        <pt x="233" y="311" on="1"/>
        <pt x="230" y="245" on="1"/>
        <pt x="229" y="230" on="0"/>
        <pt x="209" y="209" on="0"/>
        <pt x="179" y="209" on="0"/>
        <pt x="167" y="229" on="0"/>
        <pt x="172" y="245" on="1"/>
        <pt x="192" y="311" on="1"/>
        <pt x="129" y="269" on="1"/>
        <pt x="116" y="259" on="0"/>
        <pt x="92" y="259" on="0"/>
        <pt x="77" y="278" on="0"/>
        <pt x="79" y="291" on="1"/>
        <pt x="83" y="312" on="0"/>
        <pt x="106" y="320" on="1"/>
        <pt x="176" y="348" on="1"/>
        <pt x="116" y="375" on="1"/>
        <pt x="96" y="384" on="0"/>
        <pt x="101" y="418" on="0"/>
        <pt x="124" y="436" on="0"/>
        <pt x="147" y="436" on="0"/>
        <pt x="157" y="426" on="1"/>
        <pt x="205" y="384" on="1"/>
        <pt x="208" y="450" on="1"/>
        <pt x="209" y="466" on="0"/>
        <pt x="229" y="487" on="0"/>
        <pt x="258" y="487" on="0"/>
        <pt x="271" y="466" on="0"/>
        <pt x="266" y="451" on="1"/>
        <pt x="246" y="384" on="1"/>
        <pt x="309" y="426" on="1"/>
        <pt x="322" y="436" on="0"/>
        <pt x="346" y="436" on="0"/>
        <pt x="362" y="417" on="0"/>
      </contour>
    </TTGlyph>
    <TTGlyph name="at" xMin="87" yMin="2" xMax="787" yMax="702">
      <contour>
        <pt x="354" y="702" on="0"/>
        <pt x="644" y="702" on="0"/>
        <pt x="813" y="497" on="0"/>
        <pt x="787" y="352" on="1"/>
        <pt x="773" y="269" on="0"/>
        <pt x="720" y="192" on="1"/>
        <pt x="720" y="191" on="1"/>
        <pt x="709" y="178" on="0"/>
        <pt x="702" y="171" on="1"/>
        <pt x="687" y="156" on="1"/>
        <pt x="645" y="118" on="0"/>
        <pt x="601" y="108" on="1"/>
        <pt x="589" y="104" on="0"/>
        <pt x="551" y="104" on="0"/>
        <pt x="532" y="115" on="1"/>
        <pt x="503" y="132" on="0"/>
        <pt x="494" y="172" on="1"/>
        <pt x="446" y="149" on="0"/>
        <pt x="401" y="149" on="1"/>
        <pt x="320" y="149" on="0"/>
        <pt x="228" y="269" on="0"/>
        <pt x="258" y="434" on="0"/>
        <pt x="392" y="555" on="0"/>
        <pt x="554" y="555" on="0"/>
        <pt x="646" y="435" on="0"/>
        <pt x="631" y="352" on="1"/>
        <pt x="631" y="349" on="0"/>
        <pt x="629" y="345" on="1"/>
        <pt x="629" y="341" on="1"/>
        <pt x="608" y="222" on="1"/>
        <pt x="609" y="222" on="0"/>
        <pt x="616" y="227" on="1"/>
        <pt x="661" y="272" on="0"/>
        <pt x="693" y="451" on="0"/>
        <pt x="578" y="591" on="0"/>
        <pt x="380" y="591" on="0"/>
        <pt x="215" y="451" on="0"/>
        <pt x="181" y="253" on="0"/>
        <pt x="296" y="113" on="0"/>
        <pt x="395" y="113" on="1"/>
        <pt x="428" y="113" on="0"/>
        <pt x="478" y="125" on="0"/>
        <pt x="514" y="102" on="0"/>
        <pt x="517" y="58" on="0"/>
        <pt x="487" y="18" on="0"/>
        <pt x="464" y="13" on="1"/>
        <pt x="418" y="2" on="0"/>
        <pt x="375" y="2" on="1"/>
        <pt x="230" y="2" on="0"/>
        <pt x="61" y="207" on="0"/>
        <pt x="113" y="497" on="0"/>
      </contour>
      <contour>
        <pt x="368" y="286" on="1"/>
        <pt x="386" y="260" on="0"/>
        <pt x="455" y="260" on="0"/>
        <pt x="514" y="314" on="0"/>
        <pt x="528" y="391" on="0"/>
        <pt x="506" y="418" on="1"/>
        <pt x="488" y="444" on="0"/>
        <pt x="419" y="444" on="0"/>
        <pt x="360" y="390" on="0"/>
        <pt x="347" y="312" on="0"/>
      </contour>
    </TTGlyph>
    <TTGlyph name="atilde" xMin="76" yMin="1" xMax="656" yMax="742">
      <contour>
        <pt x="269" y="1" on="1"/>
        <pt x="169" y="1" on="0"/>
        <pt x="113" y="75" on="1"/>
        <pt x="57" y="151" on="0"/>
        <pt x="76" y="250" on="1"/>
        <pt x="92" y="351" on="0"/>
        <pt x="174" y="426" on="1"/>
        <pt x="257" y="499" on="0"/>
        <pt x="357" y="499" on="1"/>
        <pt x="429" y="499" on="0"/>
        <pt x="482" y="457" on="1"/>
        <pt x="489" y="475" on="0"/>
        <pt x="522" y="499" on="0"/>
        <pt x="564" y="499" on="0"/>
        <pt x="588" y="468" on="0"/>
        <pt x="584" y="446" on="1"/>
        <pt x="516" y="55" on="1"/>
        <pt x="511" y="32" on="0"/>
        <pt x="476" y="1" on="0"/>
        <pt x="434" y="1" on="0"/>
        <pt x="410" y="25" on="0"/>
        <pt x="409" y="44" on="1"/>
        <pt x="340" y="1" on="0"/>
      </contour>
      <contour>
        <pt x="239" y="353" on="1"/>
        <pt x="191" y="310" on="0"/>
        <pt x="171" y="190" on="0"/>
        <pt x="233" y="107" on="0"/>
        <pt x="342" y="107" on="0"/>
        <pt x="386" y="148" on="1"/>
        <pt x="433" y="189" on="0"/>
        <pt x="456" y="309" on="0"/>
        <pt x="391" y="394" on="0"/>
        <pt x="287" y="394" on="0"/>
      </contour>
      <contour>
        <pt x="360" y="603" on="1"/>
        <pt x="347" y="583" on="0"/>
        <pt x="312" y="583" on="0"/>
        <pt x="290" y="603" on="0"/>
        <pt x="290" y="625" on="0"/>
        <pt x="294" y="639" on="1"/>
        <pt x="311" y="685" on="0"/>
        <pt x="358" y="730" on="0"/>
        <pt x="426" y="730" on="0"/>
        <pt x="524" y="690" on="0"/>
        <pt x="540" y="690" on="1"/>
        <pt x="569" y="690" on="0"/>
        <pt x="586" y="722" on="1"/>
        <pt x="599" y="742" on="0"/>
        <pt x="634" y="742" on="0"/>
        <pt x="656" y="722" on="0"/>
        <pt x="656" y="700" on="0"/>
        <pt x="652" y="686" on="1"/>
        <pt x="635" y="640" on="0"/>
        <pt x="588" y="595" on="0"/>
        <pt x="520" y="595" on="0"/>
        <pt x="422" y="635" on="0"/>
        <pt x="406" y="635" on="1"/>
        <pt x="377" y="635" on="0"/>
      </contour>
    </TTGlyph>
    <TTGlyph name="b" xMin="99" yMin="-2" xMax="622" yMax="700">
      <contour>
        <pt x="196" y="22" on="0"/>
        <pt x="163" y="-2" on="0"/>
        <pt x="121" y="-2" on="0"/>
        <pt x="95" y="30" on="0"/>
        <pt x="99" y="53" on="1"/>
        <pt x="201" y="645" on="1"/>
        <pt x="205" y="668" on="0"/>
        <pt x="243" y="700" on="0"/>
        <pt x="288" y="700" on="0"/>
        <pt x="314" y="667" on="0"/>
        <pt x="310" y="645" on="1"/>
        <pt x="279" y="459" on="1"/>
        <pt x="351" y="500" on="0"/>
        <pt x="422" y="500" on="1"/>
        <pt x="524" y="500" on="0"/>
        <pt x="640" y="353" on="0"/>
        <pt x="604" y="145" on="0"/>
        <pt x="436" y="-2" on="0"/>
        <pt x="334" y="-2" on="1"/>
        <pt x="260" y="-2" on="0"/>
        <pt x="204" y="41" on="1"/>
      </contour>
      <contour>
        <pt x="492" y="350" on="1"/>
        <pt x="458" y="392" on="0"/>
        <pt x="348" y="392" on="0"/>
        <pt x="254" y="309" on="0"/>
        <pt x="232" y="189" on="0"/>
        <pt x="297" y="106" on="0"/>
        <pt x="407" y="106" on="0"/>
        <pt x="455" y="148" on="1"/>
        <pt x="502" y="187" on="0"/>
        <pt x="523" y="307" on="0"/>
      </contour>
    </TTGlyph>
    <TTGlyph name="backslash" xMin="20" yMin="0" xMax="368" yMax="689">
      <contour>
        <pt x="337" y="4" on="1"/>
        <pt x="329" y="0" on="0"/>
        <pt x="317" y="0" on="1"/>
        <pt x="280" y="0" on="0"/>
        <pt x="266" y="33" on="1"/>
        <pt x="21" y="617" on="1"/>
        <pt x="12" y="637" on="0"/>
        <pt x="29" y="680" on="0"/>
        <pt x="71" y="697" on="0"/>
        <pt x="113" y="680" on="0"/>
        <pt x="122" y="659" on="1"/>
        <pt x="367" y="76" on="1"/>
        <pt x="376" y="55" on="0"/>
        <pt x="359" y="12" on="0"/>
      </contour>
    </TTGlyph>
    <TTGlyph name="bar" xMin="126" yMin="-133" xMax="372" yMax="803">
      <contour>
        <pt x="126" y="-85" on="1"/>
        <pt x="275" y="755" on="1"/>
        <pt x="279" y="775" on="0"/>
        <pt x="313" y="803" on="0"/>
        <pt x="353" y="803" on="0"/>
        <pt x="376" y="775" on="0"/>
        <pt x="372" y="755" on="1"/>
        <pt x="222" y="-85" on="1"/>
        <pt x="218" y="-105" on="0"/>
        <pt x="183" y="-133" on="0"/>
        <pt x="144" y="-133" on="0"/>
        <pt x="122" y="-105" on="0"/>
      </contour>
    </TTGlyph>
    <TTGlyph name="braceleft" xMin="60" yMin="-148" xMax="521" yMax="696">
      <contour>
        <pt x="325" y="-148" on="1"/>
        <pt x="218" y="-124" on="0"/>
        <pt x="149" y="-32" on="0"/>
        <pt x="163" y="46" on="1"/>
        <pt x="164" y="55" on="0"/>
        <pt x="176" y="112" on="0"/>
        <pt x="177" y="118" on="1"/>
        <pt x="187" y="173" on="0"/>
        <pt x="152" y="225" on="0"/>
        <pt x="102" y="226" on="1"/>
        <pt x="79" y="227" on="0"/>
        <pt x="56" y="254" on="0"/>
        <pt x="64" y="294" on="0"/>
        <pt x="95" y="321" on="0"/>
        <pt x="119" y="322" on="1"/>
        <pt x="170" y="324" on="0"/>
        <pt x="223" y="375" on="0"/>
        <pt x="233" y="431" on="1"/>
        <pt x="235" y="440" on="0"/>
        <pt x="243" y="503" on="1"/>
        <pt x="257" y="580" on="0"/>
        <pt x="358" y="672" on="0"/>
        <pt x="473" y="696" on="1"/>
        <pt x="497" y="701" on="0"/>
        <pt x="525" y="677" on="0"/>
        <pt x="521" y="655" on="1"/>
        <pt x="516" y="623" on="0"/>
        <pt x="486" y="614" on="1"/>
        <pt x="413" y="593" on="0"/>
        <pt x="388" y="566" on="1"/>
        <pt x="358" y="535" on="0"/>
        <pt x="349" y="463" on="1"/>
        <pt x="344" y="426" on="0"/>
        <pt x="341" y="411" on="1"/>
        <pt x="331" y="355" on="0"/>
        <pt x="268" y="290" on="0"/>
        <pt x="213" y="274" on="1"/>
        <pt x="263" y="257" on="0"/>
        <pt x="303" y="193" on="0"/>
        <pt x="293" y="137" on="1"/>
        <pt x="292" y="131" on="0"/>
        <pt x="280" y="75" on="0"/>
        <pt x="278" y="63" on="1"/>
        <pt x="268" y="9" on="0"/>
        <pt x="300" y="-45" on="0"/>
        <pt x="366" y="-66" on="1"/>
        <pt x="392" y="-76" on="0"/>
        <pt x="383" y="-129" on="0"/>
        <pt x="347" y="-153" on="0"/>
      </contour>
    </TTGlyph>
    <TTGlyph name="braceright" xMin="58" yMin="-148" xMax="519" yMax="696">
      <contour>
        <pt x="254" y="696" on="1"/>
        <pt x="361" y="672" on="0"/>
        <pt x="430" y="580" on="0"/>
        <pt x="416" y="502" on="1"/>
        <pt x="415" y="493" on="0"/>
        <pt x="403" y="436" on="0"/>
        <pt x="402" y="430" on="1"/>
        <pt x="392" y="375" on="0"/>
        <pt x="427" y="323" on="0"/>
        <pt x="477" y="322" on="1"/>
        <pt x="500" y="321" on="0"/>
        <pt x="523" y="294" on="0"/>
        <pt x="515" y="254" on="0"/>
        <pt x="484" y="227" on="0"/>
        <pt x="460" y="226" on="1"/>
        <pt x="409" y="224" on="0"/>
        <pt x="356" y="173" on="0"/>
        <pt x="346" y="117" on="1"/>
        <pt x="344" y="108" on="0"/>
        <pt x="336" y="45" on="1"/>
        <pt x="322" y="-32" on="0"/>
        <pt x="221" y="-124" on="0"/>
        <pt x="106" y="-148" on="1"/>
        <pt x="82" y="-153" on="0"/>
        <pt x="54" y="-129" on="0"/>
        <pt x="58" y="-107" on="1"/>
        <pt x="63" y="-75" on="0"/>
        <pt x="93" y="-66" on="1"/>
        <pt x="166" y="-45" on="0"/>
        <pt x="192" y="-18" on="1"/>
        <pt x="221" y="13" on="0"/>
        <pt x="230" y="85" on="1"/>
        <pt x="235" y="122" on="0"/>
        <pt x="238" y="137" on="1"/>
        <pt x="248" y="193" on="0"/>
        <pt x="311" y="258" on="0"/>
        <pt x="366" y="274" on="1"/>
        <pt x="316" y="291" on="0"/>
        <pt x="276" y="355" on="0"/>
        <pt x="286" y="411" on="1"/>
        <pt x="287" y="417" on="0"/>
        <pt x="299" y="473" on="0"/>
        <pt x="301" y="485" on="1"/>
        <pt x="311" y="539" on="0"/>
        <pt x="279" y="593" on="0"/>
        <pt x="213" y="614" on="1"/>
        <pt x="187" y="624" on="0"/>
        <pt x="196" y="677" on="0"/>
        <pt x="232" y="701" on="0"/>
      </contour>
    </TTGlyph>
    <TTGlyph name="bracketleft" xMin="103" yMin="-125" xMax="544" yMax="705">
      <contour>
        <pt x="103" y="-65" on="1"/>
        <pt x="229" y="645" on="1"/>
        <pt x="233" y="670" on="0"/>
        <pt x="273" y="705" on="0"/>
        <pt x="298" y="705" on="1"/>
        <pt x="504" y="705" on="1"/>
        <pt x="523" y="705" on="0"/>
        <pt x="547" y="677" on="0"/>
        <pt x="540" y="638" on="0"/>
        <pt x="507" y="610" on="0"/>
        <pt x="487" y="610" on="1"/>
        <pt x="338" y="610" on="1"/>
        <pt x="226" y="-30" on="1"/>
        <pt x="375" y="-30" on="1"/>
        <pt x="395" y="-30" on="0"/>
        <pt x="418" y="-58" on="0"/>
        <pt x="411" y="-96" on="0"/>
        <pt x="378" y="-125" on="0"/>
        <pt x="358" y="-125" on="1"/>
        <pt x="152" y="-125" on="1"/>
        <pt x="127" y="-125" on="0"/>
        <pt x="99" y="-90" on="0"/>
      </contour>
    </TTGlyph>
    <TTGlyph name="bracketright" xMin="59" yMin="-125" xMax="500" yMax="705">
      <contour>
        <pt x="500" y="645" on="1"/>
        <pt x="374" y="-65" on="1"/>
        <pt x="370" y="-90" on="0"/>
        <pt x="330" y="-125" on="0"/>
        <pt x="305" y="-125" on="1"/>
        <pt x="99" y="-125" on="1"/>
        <pt x="80" y="-125" on="0"/>
        <pt x="56" y="-97" on="0"/>
        <pt x="63" y="-58" on="0"/>
        <pt x="96" y="-30" on="0"/>
        <pt x="116" y="-30" on="1"/>
        <pt x="265" y="-30" on="1"/>
        <pt x="377" y="610" on="1"/>
        <pt x="228" y="610" on="1"/>
        <pt x="208" y="610" on="0"/>
        <pt x="185" y="638" on="0"/>
        <pt x="189" y="657" on="1"/>
        <pt x="192" y="676" on="0"/>
        <pt x="225" y="705" on="0"/>
        <pt x="245" y="705" on="1"/>
        <pt x="451" y="705" on="1"/>
        <pt x="476" y="705" on="0"/>
        <pt x="504" y="670" on="0"/>
      </contour>
    </TTGlyph>
    <TTGlyph name="c" xMin="83" yMin="0" xMax="555" yMax="510">
      <contour>
        <pt x="470" y="55" on="1"/>
        <pt x="391" y="0" on="0"/>
        <pt x="191" y="0" on="0"/>
        <pt x="64" y="149" on="0"/>
        <pt x="102" y="361" on="0"/>
        <pt x="282" y="510" on="0"/>
        <pt x="480" y="510" on="0"/>
        <pt x="541" y="455" on="1"/>
        <pt x="556" y="441" on="0"/>
        <pt x="554" y="396" on="0"/>
        <pt x="521" y="361" on="0"/>
        <pt x="475" y="355" on="0"/>
        <pt x="459" y="369" on="1"/>
        <pt x="424" y="401" on="0"/>
        <pt x="307" y="401" on="0"/>
        <pt x="203" y="315" on="0"/>
        <pt x="181" y="195" on="0"/>
        <pt x="255" y="108" on="0"/>
        <pt x="372" y="108" on="0"/>
        <pt x="419" y="141" on="1"/>
        <pt x="439" y="155" on="0"/>
        <pt x="483" y="149" on="0"/>
        <pt x="504" y="113" on="0"/>
        <pt x="490" y="68" on="0"/>
      </contour>
    </TTGlyph>
    <TTGlyph name="ccedilla" xMin="83" yMin="-160" xMax="555" yMax="510">
      <component glyphName="c" x="0" y="0" flags="0x1004"/>
      <component glyphName="cedilla" x="25" y="0" flags="0x1004"/>
    </TTGlyph>
    <TTGlyph name="cedilla" xMin="170" yMin="-160" xMax="340" yMax="10">
      <contour>
        <pt x="340" y="10" on="1"/>
        <pt x="279" y="-131" on="1"/>
        <pt x="267" y="-160" on="0"/>
        <pt x="220" y="-160" on="0"/>
        <pt x="170" y="-131" on="0"/>
        <pt x="170" y="-104" on="0"/>
        <pt x="178" y="-93" on="1"/>
        <pt x="249" y="10" on="1"/>
      </contour>
    </TTGlyph>
    <TTGlyph name="cent" xMin="73" yMin="-74" xMax="546" yMax="615">
      <contour>
        <pt x="410" y="139" on="1"/>
        <pt x="430" y="153" on="0"/>
        <pt x="473" y="147" on="0"/>
        <pt x="486" y="128" on="1"/>
        <pt x="495" y="112" on="0"/>
        <pt x="481" y="68" on="0"/>
        <pt x="461" y="53" on="1"/>
        <pt x="378" y="-1" on="0"/>
        <pt x="290" y="-1" on="1"/>
        <pt x="246" y="-1" on="0"/>
        <pt x="207" y="13" on="1"/>
        <pt x="175" y="-41" on="1"/>
        <pt x="155" y="-74" on="0"/>
        <pt x="118" y="-74" on="1"/>
        <pt x="106" y="-74" on="0"/>
        <pt x="99" y="-70" on="1"/>
        <pt x="79" y="-62" on="0"/>
        <pt x="68" y="-19" on="0"/>
        <pt x="81" y="2" on="1"/>
        <pt x="122" y="71" on="1"/>
        <pt x="56" y="147" on="0"/>
        <pt x="94" y="359" on="0"/>
        <pt x="273" y="508" on="0"/>
        <pt x="380" y="509" on="1"/>
        <pt x="384" y="509" on="1"/>
        <pt x="429" y="585" on="1"/>
        <pt x="442" y="606" on="0"/>
        <pt x="487" y="623" on="0"/>
        <pt x="526" y="606" on="0"/>
        <pt x="535" y="563" on="0"/>
        <pt x="523" y="543" on="1"/>
        <pt x="487" y="484" on="1"/>
        <pt x="514" y="470" on="0"/>
        <pt x="547" y="439" on="0"/>
        <pt x="545" y="395" on="0"/>
        <pt x="530" y="378" on="1"/>
        <pt x="511" y="359" on="0"/>
        <pt x="466" y="354" on="0"/>
        <pt x="451" y="368" on="1"/>
        <pt x="444" y="374" on="0"/>
        <pt x="428" y="384" on="1"/>
        <pt x="267" y="113" on="1"/>
        <pt x="285" y="107" on="0"/>
        <pt x="309" y="107" on="1"/>
        <pt x="361" y="107" on="0"/>
      </contour>
      <contour>
        <pt x="265" y="379" on="0"/>
        <pt x="191" y="301" on="0"/>
        <pt x="176" y="217" on="0"/>
        <pt x="189" y="183" on="1"/>
        <pt x="314" y="393" on="1"/>
      </contour>
    </TTGlyph>
    <TTGlyph name="circumflex" xMin="144" yMin="590" xMax="453" yMax="746">
      <contour>
        <pt x="314" y="662" on="1"/>
        <pt x="248" y="617" on="1"/>
        <pt x="209" y="590" on="0"/>
        <pt x="166" y="590" on="1"/>
        <pt x="154" y="590" on="0"/>
        <pt x="142" y="601" on="0"/>
        <pt x="147" y="617" on="0"/>
        <pt x="164" y="634" on="1"/>
        <pt x="255" y="717" on="1"/>
        <pt x="287" y="746" on="0"/>
        <pt x="322" y="746" on="1"/>
        <pt x="358" y="746" on="1"/>
        <pt x="392" y="746" on="0"/>
        <pt x="407" y="717" on="1"/>
        <pt x="448" y="634" on="1"/>
        <pt x="456" y="619" on="0"/>
        <pt x="453" y="610" on="1"/>
        <pt x="447" y="590" on="0"/>
        <pt x="378" y="590" on="0"/>
        <pt x="352" y="617" on="1"/>
      </contour>
    </TTGlyph>
    <TTGlyph name="colon" xMin="91" yMin="0" xMax="264" yMax="522">
      <contour>
        <pt x="170" y="99" on="0"/>
        <pt x="194" y="70" on="0"/>
        <pt x="187" y="30" on="0"/>
        <pt x="152" y="0" on="0"/>
        <pt x="113" y="0" on="0"/>
        <pt x="88" y="30" on="0"/>
        <pt x="91" y="50" on="1"/>
        <pt x="95" y="70" on="0"/>
        <pt x="130" y="99" on="0"/>
      </contour>
      <contour>
        <pt x="268" y="493" on="0"/>
        <pt x="260" y="453" on="0"/>
        <pt x="226" y="423" on="0"/>
        <pt x="186" y="423" on="0"/>
        <pt x="161" y="454" on="0"/>
        <pt x="169" y="493" on="0"/>
        <pt x="204" y="522" on="0"/>
        <pt x="244" y="522" on="0"/>
      </contour>
    </TTGlyph>
    <TTGlyph name="comma" xMin="54" yMin="-67" xMax="152" yMax="98">
      <contour>
        <pt x="151" y="57" on="0"/>
        <pt x="152" y="53" on="0"/>
        <pt x="152" y="48" on="1"/>
        <pt x="152" y="39" on="1"/>
        <pt x="152" y="7" on="0"/>
        <pt x="119" y="-56" on="0"/>
        <pt x="75" y="-67" on="1"/>
        <pt x="72" y="-67" on="1"/>
        <pt x="60" y="-67" on="0"/>
        <pt x="54" y="-42" on="0"/>
        <pt x="69" y="-37" on="1"/>
        <pt x="100" y="-30" on="0"/>
        <pt x="114" y="2" on="1"/>
        <pt x="111" y="1" on="0"/>
        <pt x="81" y="1" on="0"/>
        <pt x="54" y="29" on="0"/>
        <pt x="54" y="69" on="0"/>
        <pt x="81" y="98" on="0"/>
        <pt x="118" y="98" on="0"/>
        <pt x="145" y="76" on="0"/>
        <pt x="149" y="59" on="1"/>
        <pt x="149" y="58" on="0"/>
        <pt x="151" y="58" on="1"/>
      </contour>
    </TTGlyph>
    <TTGlyph name="copyright" xMin="53" yMin="-12" xMax="777" yMax="712">
      <contour>
        <pt x="565" y="-12" on="0"/>
        <pt x="263" y="-12" on="0"/>
        <pt x="53" y="199" on="0"/>
        <pt x="53" y="348" on="1"/>
        <pt x="53" y="350" on="1"/>
        <pt x="53" y="499" on="0"/>
        <pt x="265" y="712" on="0"/>
        <pt x="567" y="712" on="0"/>
        <pt x="777" y="501" on="0"/>
        <pt x="777" y="352" on="1"/>
        <pt x="777" y="350" on="1"/>
        <pt x="777" y="201" on="0"/>
      </contour>
      <contour>
        <pt x="91" y="213" on="0"/>
        <pt x="277" y="24" on="0"/>
        <pt x="552" y="24" on="0"/>
        <pt x="739" y="215" on="0"/>
        <pt x="739" y="350" on="1"/>
        <pt x="739" y="352" on="1"/>
        <pt x="739" y="487" on="0"/>
        <pt x="553" y="676" on="0"/>
        <pt x="278" y="676" on="0"/>
        <pt x="91" y="485" on="0"/>
        <pt x="91" y="350" on="1"/>
        <pt x="91" y="348" on="1"/>
      </contour>
      <contour>
        <pt x="559" y="212" on="1"/>
        <pt x="498" y="159" on="0"/>
        <pt x="337" y="159" on="0"/>
        <pt x="227" y="271" on="0"/>
        <pt x="227" y="353" on="1"/>
        <pt x="227" y="355" on="1"/>
        <pt x="227" y="437" on="0"/>
        <pt x="337" y="551" on="0"/>
        <pt x="498" y="551" on="0"/>
        <pt x="551" y="508" on="1"/>
        <pt x="567" y="497" on="0"/>
        <pt x="567" y="462" on="0"/>
        <pt x="546" y="441" on="0"/>
        <pt x="520" y="441" on="0"/>
        <pt x="507" y="451" on="1"/>
        <pt x="466" y="483" on="0"/>
        <pt x="371" y="483" on="0"/>
        <pt x="303" y="409" on="0"/>
        <pt x="303" y="356" on="1"/>
        <pt x="303" y="354" on="1"/>
        <pt x="303" y="302" on="0"/>
        <pt x="371" y="227" on="0"/>
        <pt x="471" y="227" on="0"/>
        <pt x="513" y="263" on="1"/>
        <pt x="524" y="272" on="0"/>
        <pt x="549" y="272" on="0"/>
        <pt x="570" y="251" on="0"/>
        <pt x="570" y="221" on="0"/>
      </contour>
    </TTGlyph>
    <TTGlyph name="d" xMin="84" yMin="-1" xMax="638" yMax="700">
      <contour>
        <pt x="283" y="-1" on="1"/>
        <pt x="182" y="0" on="0"/>
        <pt x="66" y="146" on="0"/>
        <pt x="102" y="352" on="0"/>
        <pt x="270" y="500" on="0"/>
        <pt x="371" y="500" on="1"/>
        <pt x="443" y="500" on="0"/>
        <pt x="499" y="457" on="1"/>
        <pt x="529" y="646" on="1"/>
        <pt x="533" y="668" on="0"/>
        <pt x="571" y="700" on="0"/>
        <pt x="616" y="700" on="0"/>
        <pt x="642" y="668" on="0"/>
        <pt x="638" y="646" on="1"/>
        <pt x="536" y="54" on="1"/>
        <pt x="531" y="31" on="0"/>
        <pt x="494" y="-1" on="0"/>
        <pt x="453" y="-1" on="0"/>
        <pt x="427" y="24" on="0"/>
        <pt x="426" y="42" on="1"/>
        <pt x="355" y="-1" on="0"/>
      </contour>
      <contour>
        <pt x="440" y="350" on="1"/>
        <pt x="407" y="391" on="0"/>
        <pt x="296" y="391" on="0"/>
        <pt x="202" y="308" on="0"/>
        <pt x="193" y="249" on="1"/>
        <pt x="181" y="192" on="0"/>
        <pt x="214" y="149" on="1"/>
        <pt x="248" y="108" on="0"/>
        <pt x="355" y="108" on="0"/>
        <pt x="404" y="149" on="1"/>
        <pt x="452" y="192" on="0"/>
        <pt x="471" y="309" on="0"/>
      </contour>
    </TTGlyph>
    <TTGlyph name="degree" xMin="74" yMin="381" xMax="407" yMax="706">
      <contour>
        <pt x="307" y="381" on="0"/>
        <pt x="175" y="381" on="0"/>
        <pt x="74" y="478" on="0"/>
        <pt x="74" y="543" on="1"/>
        <pt x="74" y="545" on="1"/>
        <pt x="74" y="610" on="0"/>
        <pt x="175" y="706" on="0"/>
        <pt x="307" y="706" on="0"/>
        <pt x="407" y="610" on="0"/>
        <pt x="407" y="545" on="1"/>
        <pt x="407" y="543" on="1"/>
        <pt x="407" y="478" on="0"/>
      </contour>
      <contour>
        <pt x="201" y="447" on="0"/>
        <pt x="281" y="447" on="0"/>
        <pt x="335" y="504" on="0"/>
        <pt x="335" y="543" on="1"/>
        <pt x="335" y="545" on="1"/>
        <pt x="335" y="584" on="0"/>
        <pt x="281" y="640" on="0"/>
        <pt x="200" y="640" on="0"/>
        <pt x="146" y="584" on="0"/>
        <pt x="146" y="545" on="1"/>
        <pt x="146" y="543" on="1"/>
        <pt x="146" y="504" on="0"/>
      </contour>
    </TTGlyph>
    <TTGlyph name="dieresis" xMin="132" yMin="590" xMax="463" yMax="720">
      <contour>
        <pt x="383" y="720" on="0"/>
        <pt x="438" y="720" on="0"/>
        <pt x="468" y="685" on="0"/>
        <pt x="463" y="658" on="1"/>
        <pt x="458" y="626" on="0"/>
        <pt x="411" y="590" on="0"/>
        <pt x="356" y="590" on="0"/>
        <pt x="325" y="624" on="0"/>
        <pt x="331" y="651" on="1"/>
        <pt x="336" y="684" on="0"/>
      </contour>
      <contour>
        <pt x="184" y="720" on="0"/>
        <pt x="239" y="720" on="0"/>
        <pt x="269" y="685" on="0"/>
        <pt x="264" y="658" on="1"/>
        <pt x="259" y="626" on="0"/>
        <pt x="212" y="590" on="0"/>
        <pt x="157" y="590" on="0"/>
        <pt x="126" y="624" on="0"/>
        <pt x="132" y="651" on="1"/>
        <pt x="137" y="684" on="0"/>
      </contour>
    </TTGlyph>
    <TTGlyph name="divide" xMin="69" yMin="75" xMax="577" yMax="629">
      <contour>
        <pt x="517" y="300" on="1"/>
        <pt x="113" y="300" on="1"/>
        <pt x="91" y="300" on="0"/>
        <pt x="65" y="331" on="0"/>
        <pt x="69" y="352" on="1"/>
        <pt x="72" y="373" on="0"/>
        <pt x="106" y="404" on="0"/>
        <pt x="128" y="404" on="1"/>
        <pt x="532" y="404" on="1"/>
        <pt x="554" y="404" on="0"/>
        <pt x="580" y="373" on="0"/>
        <pt x="573" y="331" on="0"/>
        <pt x="538" y="300" on="0"/>
      </contour>
      <contour>
        <pt x="335" y="629" on="0"/>
        <pt x="391" y="629" on="0"/>
        <pt x="409" y="610" on="1"/>
        <pt x="428" y="589" on="0"/>
        <pt x="417" y="530" on="0"/>
        <pt x="371" y="491" on="0"/>
        <pt x="314" y="491" on="0"/>
        <pt x="297" y="510" on="1"/>
        <pt x="279" y="531" on="0"/>
        <pt x="289" y="590" on="0"/>
      </contour>
      <contour>
        <pt x="228" y="174" on="0"/>
        <pt x="274" y="213" on="0"/>
        <pt x="331" y="213" on="0"/>
        <pt x="348" y="194" on="1"/>
        <pt x="366" y="173" on="0"/>
        <pt x="356" y="113" on="0"/>
        <pt x="311" y="75" on="0"/>
        <pt x="253" y="75" on="0"/>
        <pt x="236" y="94" on="1"/>
        <pt x="217" y="114" on="0"/>
      </contour>
    </TTGlyph>
    <TTGlyph name="dollar" xMin="64" yMin="-103" xMax="652" yMax="763">
      <contour>
        <pt x="401" y="720" on="1"/>
        <pt x="404" y="738" on="0"/>
        <pt x="434" y="763" on="0"/>
        <pt x="470" y="763" on="0"/>
        <pt x="491" y="738" on="0"/>
        <pt x="488" y="720" on="1"/>
        <pt x="484" y="698" on="1"/>
        <pt x="565" y="688" on="0"/>
        <pt x="629" y="643" on="1"/>
        <pt x="656" y="627" on="0"/>
        <pt x="647" y="572" on="0"/>
        <pt x="608" y="540" on="0"/>
        <pt x="570" y="540" on="0"/>
        <pt x="557" y="549" on="1"/>
        <pt x="507" y="582" on="0"/>
        <pt x="461" y="593" on="1"/>
        <pt x="427" y="401" on="1"/>
        <pt x="537" y="372" on="0"/>
        <pt x="622" y="275" on="0"/>
        <pt x="594" y="114" on="0"/>
        <pt x="459" y="9" on="0"/>
        <pt x="361" y="0" on="1"/>
        <pt x="350" y="-60" on="1"/>
        <pt x="347" y="-78" on="0"/>
        <pt x="318" y="-103" on="0"/>
        <pt x="282" y="-103" on="0"/>
        <pt x="260" y="-78" on="0"/>
        <pt x="263" y="-60" on="1"/>
        <pt x="274" y="2" on="1"/>
        <pt x="164" y="14" on="0"/>
        <pt x="83" y="80" on="1"/>
        <pt x="60" y="97" on="0"/>
        <pt x="64" y="128" on="1"/>
        <pt x="69" y="151" on="0"/>
        <pt x="106" y="183" on="0"/>
        <pt x="147" y="183" on="0"/>
        <pt x="160" y="172" on="1"/>
        <pt x="225" y="118" on="0"/>
        <pt x="296" y="105" on="1"/>
        <pt x="331" y="302" on="1"/>
        <pt x="224" y="331" on="0"/>
        <pt x="138" y="425" on="0"/>
        <pt x="167" y="588" on="0"/>
        <pt x="301" y="691" on="0"/>
        <pt x="397" y="699" on="1"/>
      </contour>
      <contour>
        <pt x="489" y="188" on="1"/>
        <pt x="495" y="222" on="0"/>
        <pt x="460" y="265" on="0"/>
        <pt x="407" y="283" on="1"/>
        <pt x="375" y="101" on="1"/>
        <pt x="475" y="112" on="0"/>
      </contour>
      <contour>
        <pt x="336" y="595" on="0"/>
        <pt x="278" y="549" on="0"/>
        <pt x="267" y="482" on="0"/>
        <pt x="300" y="440" on="0"/>
        <pt x="352" y="422" on="1"/>
        <pt x="383" y="599" on="1"/>
      </contour>
    </TTGlyph>
    <TTGlyph name="e" xMin="83" yMin="0" xMax="570" yMax="500">
      <contour>
        <pt x="280" y="0" on="1"/>
        <pt x="178" y="1" on="0"/>
        <pt x="64" y="147" on="0"/>
        <pt x="102" y="353" on="0"/>
        <pt x="269" y="500" on="0"/>
        <pt x="470" y="500" on="0"/>
        <pt x="583" y="369" on="0"/>
        <pt x="570" y="268" on="1"/>
        <pt x="570" y="260" on="0"/>
        <pt x="567" y="254" on="1"/>
        <pt x="562" y="236" on="0"/>
        <pt x="528" y="214" on="0"/>
        <pt x="508" y="214" on="1"/>
        <pt x="189" y="214" on="1"/>
        <pt x="189" y="175" on="0"/>
        <pt x="211" y="148" on="1"/>
        <pt x="223" y="130" on="0"/>
        <pt x="273" y="105" on="0"/>
        <pt x="299" y="103" on="1"/>
        <pt x="370" y="97" on="0"/>
        <pt x="418" y="141" on="1"/>
        <pt x="435" y="157" on="0"/>
        <pt x="472" y="157" on="0"/>
        <pt x="485" y="148" on="0"/>
        <pt x="503" y="129" on="0"/>
        <pt x="500" y="91" on="0"/>
        <pt x="486" y="77" on="1"/>
        <pt x="441" y="35" on="0"/>
        <pt x="347" y="0" on="0"/>
      </contour>
      <contour>
        <pt x="354" y="405" on="1"/>
        <pt x="296" y="402" on="0"/>
        <pt x="214" y="336" on="0"/>
        <pt x="199" y="299" on="1"/>
        <pt x="482" y="299" on="1"/>
        <pt x="480" y="334" on="0"/>
        <pt x="413" y="400" on="0"/>
      </contour>
    </TTGlyph>
    <TTGlyph name="eacute" xMin="86" yMin="0" xMax="573" yMax="750">
      <contour>
        <pt x="283" y="0" on="1"/>
        <pt x="181" y="1" on="0"/>
        <pt x="67" y="147" on="0"/>
        <pt x="105" y="353" on="0"/>
        <pt x="272" y="500" on="0"/>
        <pt x="473" y="500" on="0"/>
        <pt x="586" y="369" on="0"/>
        <pt x="573" y="268" on="1"/>
        <pt x="573" y="260" on="0"/>
        <pt x="570" y="254" on="1"/>
        <pt x="565" y="236" on="0"/>
        <pt x="532" y="214" on="0"/>
        <pt x="511" y="214" on="1"/>
        <pt x="192" y="214" on="1"/>
        <pt x="192" y="175" on="0"/>
        <pt x="214" y="148" on="1"/>
        <pt x="226" y="130" on="0"/>
        <pt x="276" y="105" on="0"/>
        <pt x="302" y="103" on="1"/>
        <pt x="373" y="97" on="0"/>
        <pt x="421" y="141" on="1"/>
        <pt x="438" y="157" on="0"/>
        <pt x="475" y="157" on="0"/>
        <pt x="488" y="148" on="0"/>
        <pt x="506" y="129" on="0"/>
        <pt x="503" y="91" on="0"/>
        <pt x="489" y="77" on="1"/>
        <pt x="444" y="35" on="0"/>
        <pt x="350" y="0" on="0"/>
      </contour>
      <contour>
        <pt x="357" y="405" on="1"/>
        <pt x="299" y="402" on="0"/>
        <pt x="217" y="336" on="0"/>
        <pt x="202" y="299" on="1"/>
        <pt x="485" y="299" on="1"/>
        <pt x="483" y="334" on="0"/>
        <pt x="416" y="400" on="0"/>
      </contour>
      <contour>
        <pt x="423" y="617" on="1"/>
        <pt x="394" y="590" on="0"/>
        <pt x="322" y="590" on="0"/>
        <pt x="322" y="611" on="1"/>
        <pt x="322" y="621" on="0"/>
        <pt x="330" y="633" on="1"/>
        <pt x="387" y="721" on="1"/>
        <pt x="405" y="750" on="0"/>
        <pt x="460" y="750" on="0"/>
        <pt x="507" y="725" on="0"/>
        <pt x="507" y="696" on="0"/>
        <pt x="490" y="681" on="1"/>
      </contour>
    </TTGlyph>
    <TTGlyph name="ecircumflex" xMin="86" yMin="0" xMax="587" yMax="746">
      <contour>
        <pt x="283" y="0" on="1"/>
        <pt x="181" y="1" on="0"/>
        <pt x="67" y="147" on="0"/>
        <pt x="105" y="353" on="0"/>
        <pt x="272" y="500" on="0"/>
        <pt x="473" y="500" on="0"/>
        <pt x="586" y="369" on="0"/>
        <pt x="573" y="268" on="1"/>
        <pt x="573" y="260" on="0"/>
        <pt x="570" y="254" on="1"/>
        <pt x="565" y="236" on="0"/>
        <pt x="532" y="214" on="0"/>
        <pt x="511" y="214" on="1"/>
        <pt x="192" y="214" on="1"/>
        <pt x="192" y="175" on="0"/>
        <pt x="214" y="148" on="1"/>
        <pt x="226" y="130" on="0"/>
        <pt x="276" y="105" on="0"/>
        <pt x="302" y="103" on="1"/>
        <pt x="373" y="97" on="0"/>
        <pt x="421" y="141" on="1"/>
        <pt x="438" y="157" on="0"/>
        <pt x="475" y="157" on="0"/>
        <pt x="488" y="148" on="0"/>
        <pt x="506" y="129" on="0"/>
        <pt x="503" y="91" on="0"/>
        <pt x="489" y="77" on="1"/>
        <pt x="444" y="35" on="0"/>
        <pt x="350" y="0" on="0"/>
      </contour>
      <contour>
        <pt x="357" y="405" on="1"/>
        <pt x="299" y="402" on="0"/>
        <pt x="217" y="336" on="0"/>
        <pt x="202" y="299" on="1"/>
        <pt x="485" y="299" on="1"/>
        <pt x="483" y="334" on="0"/>
        <pt x="416" y="400" on="0"/>
      </contour>
      <contour>
        <pt x="448" y="662" on="1"/>
        <pt x="382" y="617" on="1"/>
        <pt x="343" y="590" on="0"/>
        <pt x="300" y="590" on="1"/>
        <pt x="288" y="590" on="0"/>
        <pt x="276" y="601" on="0"/>
        <pt x="281" y="617" on="0"/>
        <pt x="298" y="634" on="1"/>
        <pt x="389" y="717" on="1"/>
        <pt x="421" y="746" on="0"/>
        <pt x="456" y="746" on="1"/>
        <pt x="492" y="746" on="1"/>
        <pt x="526" y="746" on="0"/>
        <pt x="541" y="717" on="1"/>
        <pt x="582" y="634" on="1"/>
        <pt x="590" y="619" on="0"/>
        <pt x="587" y="610" on="1"/>
        <pt x="581" y="590" on="0"/>
        <pt x="512" y="590" on="0"/>
        <pt x="486" y="617" on="1"/>
      </contour>
    </TTGlyph>
    <TTGlyph name="edieresis" xMin="86" yMin="0" xMax="617" yMax="720">
      <contour>
        <pt x="283" y="0" on="1"/>
        <pt x="181" y="1" on="0"/>
        <pt x="67" y="147" on="0"/>
        <pt x="105" y="353" on="0"/>
        <pt x="272" y="500" on="0"/>
        <pt x="473" y="500" on="0"/>
        <pt x="586" y="369" on="0"/>
        <pt x="573" y="268" on="1"/>
        <pt x="573" y="260" on="0"/>
        <pt x="570" y="254" on="1"/>
        <pt x="565" y="236" on="0"/>
        <pt x="532" y="214" on="0"/>
        <pt x="511" y="214" on="1"/>
        <pt x="192" y="214" on="1"/>
        <pt x="192" y="175" on="0"/>
        <pt x="214" y="148" on="1"/>
        <pt x="226" y="130" on="0"/>
        <pt x="276" y="105" on="0"/>
        <pt x="302" y="103" on="1"/>
        <pt x="373" y="97" on="0"/>
        <pt x="421" y="141" on="1"/>
        <pt x="438" y="157" on="0"/>
        <pt x="475" y="157" on="0"/>
        <pt x="488" y="148" on="0"/>
        <pt x="506" y="129" on="0"/>
        <pt x="503" y="91" on="0"/>
        <pt x="489" y="77" on="1"/>
        <pt x="444" y="35" on="0"/>
        <pt x="350" y="0" on="0"/>
      </contour>
      <contour>
        <pt x="357" y="405" on="1"/>
        <pt x="299" y="402" on="0"/>
        <pt x="217" y="336" on="0"/>
        <pt x="202" y="299" on="1"/>
        <pt x="485" y="299" on="1"/>
        <pt x="483" y="334" on="0"/>
        <pt x="416" y="400" on="0"/>
      </contour>
      <contour>
        <pt x="537" y="720" on="0"/>
        <pt x="592" y="720" on="0"/>
        <pt x="622" y="685" on="0"/>
        <pt x="617" y="658" on="1"/>
        <pt x="612" y="626" on="0"/>
        <pt x="565" y="590" on="0"/>
        <pt x="510" y="590" on="0"/>
        <pt x="479" y="624" on="0"/>
        <pt x="485" y="651" on="1"/>
        <pt x="490" y="684" on="0"/>
      </contour>
      <contour>
        <pt x="338" y="720" on="0"/>
        <pt x="393" y="720" on="0"/>
        <pt x="423" y="685" on="0"/>
        <pt x="418" y="658" on="1"/>
        <pt x="413" y="626" on="0"/>
        <pt x="366" y="590" on="0"/>
        <pt x="311" y="590" on="0"/>
        <pt x="280" y="624" on="0"/>
        <pt x="286" y="651" on="1"/>
        <pt x="291" y="684" on="0"/>
      </contour>
    </TTGlyph>
    <TTGlyph name="egrave" xMin="86" yMin="0" xMax="573" yMax="750">
      <contour>
        <pt x="283" y="0" on="1"/>
        <pt x="181" y="1" on="0"/>
        <pt x="67" y="147" on="0"/>
        <pt x="105" y="353" on="0"/>
        <pt x="272" y="500" on="0"/>
        <pt x="473" y="500" on="0"/>
        <pt x="586" y="369" on="0"/>
        <pt x="573" y="268" on="1"/>
        <pt x="573" y="260" on="0"/>
        <pt x="570" y="254" on="1"/>
        <pt x="565" y="236" on="0"/>
        <pt x="532" y="214" on="0"/>
        <pt x="511" y="214" on="1"/>
        <pt x="192" y="214" on="1"/>
        <pt x="192" y="175" on="0"/>
        <pt x="214" y="148" on="1"/>
        <pt x="226" y="130" on="0"/>
        <pt x="276" y="105" on="0"/>
        <pt x="302" y="103" on="1"/>
        <pt x="373" y="97" on="0"/>
        <pt x="421" y="141" on="1"/>
        <pt x="438" y="157" on="0"/>
        <pt x="475" y="157" on="0"/>
        <pt x="488" y="148" on="0"/>
        <pt x="506" y="129" on="0"/>
        <pt x="503" y="91" on="0"/>
        <pt x="489" y="77" on="1"/>
        <pt x="444" y="35" on="0"/>
        <pt x="350" y="0" on="0"/>
      </contour>
      <contour>
        <pt x="357" y="405" on="1"/>
        <pt x="299" y="402" on="0"/>
        <pt x="217" y="336" on="0"/>
        <pt x="202" y="299" on="1"/>
        <pt x="485" y="299" on="1"/>
        <pt x="483" y="334" on="0"/>
        <pt x="416" y="400" on="0"/>
      </contour>
      <contour>
        <pt x="548" y="611" on="1"/>
        <pt x="548" y="590" on="0"/>
        <pt x="475" y="590" on="0"/>
        <pt x="447" y="617" on="1"/>
        <pt x="379" y="681" on="1"/>
        <pt x="362" y="696" on="0"/>
        <pt x="362" y="725" on="0"/>
        <pt x="409" y="750" on="0"/>
        <pt x="464" y="750" on="0"/>
        <pt x="482" y="721" on="1"/>
        <pt x="539" y="633" on="1"/>
        <pt x="548" y="620" on="0"/>
      </contour>
    </TTGlyph>
    <TTGlyph name="eight" xMin="79" yMin="-2" xMax="556" yMax="698">
      <contour>
        <pt x="484" y="435" on="1"/>
        <pt x="527" y="402" on="0"/>
        <pt x="566" y="297" on="0"/>
        <pt x="556" y="236" on="1"/>
        <pt x="539" y="138" on="0"/>
        <pt x="374" y="-2" on="0"/>
        <pt x="177" y="-2" on="0"/>
        <pt x="61" y="138" on="0"/>
        <pt x="79" y="236" on="1"/>
        <pt x="89" y="297" on="0"/>
        <pt x="165" y="402" on="0"/>
        <pt x="220" y="435" on="1"/>
        <pt x="195" y="478" on="0"/>
        <pt x="217" y="601" on="0"/>
        <pt x="331" y="698" on="0"/>
        <pt x="467" y="698" on="0"/>
        <pt x="547" y="601" on="0"/>
        <pt x="524" y="477" on="0"/>
      </contour>
      <contour>
        <pt x="430" y="556" on="0"/>
        <pt x="403" y="589" on="0"/>
        <pt x="356" y="589" on="0"/>
        <pt x="318" y="556" on="0"/>
        <pt x="309" y="511" on="0"/>
        <pt x="337" y="478" on="0"/>
        <pt x="360" y="477" on="1"/>
        <pt x="383" y="478" on="0"/>
        <pt x="421" y="510" on="0"/>
        <pt x="426" y="533" on="1"/>
      </contour>
      <contour>
        <pt x="178" y="183" on="0"/>
        <pt x="241" y="107" on="0"/>
        <pt x="348" y="107" on="0"/>
        <pt x="437" y="183" on="0"/>
        <pt x="456" y="290" on="0"/>
        <pt x="394" y="366" on="0"/>
        <pt x="286" y="366" on="0"/>
        <pt x="197" y="290" on="0"/>
      </contour>
    </TTGlyph>
    <TTGlyph name="ellipsis" xMin="82" yMin="0" xMax="617" yMax="99">
      <contour>
        <pt x="181" y="70" on="0"/>
        <pt x="181" y="30" on="0"/>
        <pt x="152" y="0" on="0"/>
        <pt x="112" y="0" on="0"/>
        <pt x="82" y="30" on="0"/>
        <pt x="82" y="70" on="0"/>
        <pt x="112" y="99" on="0"/>
        <pt x="152" y="99" on="0"/>
      </contour>
      <contour>
        <pt x="399" y="70" on="0"/>
        <pt x="399" y="30" on="0"/>
        <pt x="370" y="0" on="0"/>
        <pt x="330" y="0" on="0"/>
        <pt x="300" y="30" on="0"/>
        <pt x="300" y="70" on="0"/>
        <pt x="330" y="99" on="0"/>
        <pt x="370" y="99" on="0"/>
      </contour>
      <contour>
        <pt x="617" y="70" on="0"/>
        <pt x="617" y="30" on="0"/>
        <pt x="588" y="0" on="0"/>
        <pt x="548" y="0" on="0"/>
        <pt x="518" y="30" on="0"/>
        <pt x="518" y="70" on="0"/>
        <pt x="548" y="99" on="0"/>
        <pt x="588" y="99" on="0"/>
      </contour>
    </TTGlyph>
    <TTGlyph name="emdash" xMin="76" yMin="249" xMax="872" yMax="364">
      <contour>
        <pt x="116" y="249" on="1"/>
        <pt x="93" y="249" on="0"/>
        <pt x="69" y="283" on="0"/>
        <pt x="83" y="330" on="0"/>
        <pt x="126" y="364" on="0"/>
        <pt x="149" y="364" on="1"/>
        <pt x="831" y="364" on="1"/>
        <pt x="854" y="364" on="0"/>
        <pt x="879" y="330" on="0"/>
        <pt x="864" y="283" on="0"/>
        <pt x="821" y="249" on="0"/>
        <pt x="798" y="249" on="1"/>
      </contour>
    </TTGlyph>
    <TTGlyph name="endash" xMin="74" yMin="249" xMax="501" yMax="364">
      <contour>
        <pt x="117" y="249" on="1"/>
        <pt x="94" y="249" on="0"/>
        <pt x="68" y="283" on="0"/>
        <pt x="81" y="330" on="0"/>
        <pt x="124" y="364" on="0"/>
        <pt x="147" y="364" on="1"/>
        <pt x="459" y="364" on="1"/>
        <pt x="482" y="364" on="0"/>
        <pt x="507" y="330" on="0"/>
        <pt x="494" y="283" on="0"/>
        <pt x="452" y="249" on="0"/>
        <pt x="429" y="249" on="1"/>
      </contour>
    </TTGlyph>
    <TTGlyph name="equal" xMin="79" yMin="259" xMax="336" yMax="442">
      <contour>
        <pt x="115" y="259" on="1"/>
        <pt x="100" y="259" on="0"/>
        <pt x="79" y="280" on="0"/>
        <pt x="79" y="310" on="0"/>
        <pt x="100" y="331" on="0"/>
        <pt x="115" y="331" on="1"/>
        <pt x="301" y="331" on="1"/>
        <pt x="316" y="331" on="0"/>
        <pt x="336" y="310" on="0"/>
        <pt x="336" y="280" on="0"/>
        <pt x="316" y="259" on="0"/>
        <pt x="301" y="259" on="1"/>
      </contour>
      <contour>
        <pt x="115" y="372" on="1"/>
        <pt x="100" y="372" on="0"/>
        <pt x="79" y="392" on="0"/>
        <pt x="79" y="421" on="0"/>
        <pt x="100" y="442" on="0"/>
        <pt x="115" y="442" on="1"/>
        <pt x="301" y="442" on="1"/>
        <pt x="316" y="442" on="0"/>
        <pt x="336" y="421" on="0"/>
        <pt x="336" y="392" on="0"/>
        <pt x="316" y="372" on="0"/>
        <pt x="301" y="372" on="1"/>
      </contour>
    </TTGlyph>
    <TTGlyph name="eth" xMin="80" yMin="-12" xMax="628" yMax="738">
      <contour>
        <pt x="482" y="445" on="1"/>
        <pt x="401" y="588" on="1"/>
        <pt x="284" y="540" on="1"/>
        <pt x="277" y="537" on="0"/>
        <pt x="251" y="537" on="0"/>
        <pt x="232" y="559" on="0"/>
        <pt x="235" y="575" on="1"/>
        <pt x="238" y="601" on="0"/>
        <pt x="267" y="611" on="1"/>
        <pt x="364" y="651" on="1"/>
        <pt x="357" y="664" on="0"/>
        <pt x="363" y="706" on="0"/>
        <pt x="400" y="738" on="0"/>
        <pt x="452" y="738" on="0"/>
        <pt x="467" y="711" on="1"/>
        <pt x="475" y="695" on="1"/>
        <pt x="568" y="733" on="1"/>
        <pt x="582" y="737" on="0"/>
        <pt x="602" y="737" on="0"/>
        <pt x="620" y="714" on="0"/>
        <pt x="614" y="672" on="0"/>
        <pt x="586" y="662" on="1"/>
        <pt x="509" y="631" on="1"/>
        <pt x="579" y="503" on="1"/>
        <pt x="615" y="436" on="0"/>
        <pt x="638" y="324" on="0"/>
        <pt x="628" y="259" on="1"/>
        <pt x="611" y="145" on="0"/>
        <pt x="435" y="-12" on="0"/>
        <pt x="194" y="-12" on="0"/>
        <pt x="64" y="140" on="0"/>
        <pt x="97" y="353" on="0"/>
        <pt x="250" y="486" on="0"/>
        <pt x="350" y="486" on="1"/>
        <pt x="420" y="486" on="0"/>
      </contour>
      <contour>
        <pt x="398" y="91" on="0"/>
        <pt x="497" y="181" on="0"/>
        <pt x="517" y="310" on="0"/>
        <pt x="443" y="397" on="0"/>
        <pt x="306" y="397" on="0"/>
        <pt x="210" y="312" on="0"/>
        <pt x="189" y="182" on="0"/>
        <pt x="263" y="91" on="0"/>
      </contour>
    </TTGlyph>
    <TTGlyph name="exclam" xMin="98" yMin="1" xMax="313" yMax="701">
      <contour>
        <pt x="244" y="701" on="0"/>
        <pt x="290" y="701" on="0"/>
        <pt x="317" y="668" on="0"/>
        <pt x="313" y="645" on="1"/>
        <pt x="248" y="275" on="1"/>
        <pt x="243" y="252" on="0"/>
        <pt x="205" y="219" on="0"/>
        <pt x="159" y="219" on="0"/>
        <pt x="133" y="252" on="0"/>
        <pt x="137" y="275" on="1"/>
        <pt x="202" y="645" on="1"/>
        <pt x="206" y="668" on="0"/>
      </contour>
      <contour>
        <pt x="144" y="133" on="0"/>
        <pt x="190" y="133" on="0"/>
        <pt x="217" y="101" on="0"/>
        <pt x="213" y="78" on="1"/>
        <pt x="209" y="56" on="1"/>
        <pt x="205" y="33" on="0"/>
        <pt x="167" y="1" on="0"/>
        <pt x="121" y="1" on="0"/>
        <pt x="94" y="33" on="0"/>
        <pt x="98" y="56" on="1"/>
        <pt x="102" y="78" on="1"/>
        <pt x="106" y="100" on="0"/>
      </contour>
    </TTGlyph>
    <TTGlyph name="exclamdown" xMin="99" yMin="1" xMax="314" yMax="701">
      <contour>
        <pt x="168" y="1" on="0"/>
        <pt x="122" y="1" on="0"/>
        <pt x="95" y="34" on="0"/>
        <pt x="99" y="57" on="1"/>
        <pt x="164" y="427" on="1"/>
        <pt x="169" y="450" on="0"/>
        <pt x="207" y="483" on="0"/>
        <pt x="253" y="483" on="0"/>
        <pt x="279" y="450" on="0"/>
        <pt x="275" y="427" on="1"/>
        <pt x="210" y="57" on="1"/>
        <pt x="206" y="34" on="0"/>
      </contour>
      <contour>
        <pt x="268" y="569" on="0"/>
        <pt x="222" y="569" on="0"/>
        <pt x="195" y="601" on="0"/>
        <pt x="199" y="624" on="1"/>
        <pt x="203" y="646" on="1"/>
        <pt x="207" y="669" on="0"/>
        <pt x="245" y="701" on="0"/>
        <pt x="291" y="701" on="0"/>
        <pt x="318" y="669" on="0"/>
        <pt x="314" y="646" on="1"/>
        <pt x="310" y="624" on="1"/>
        <pt x="306" y="602" on="0"/>
      </contour>
    </TTGlyph>
    <TTGlyph name="f" xMin="70" yMin="0" xMax="390" yMax="700">
      <contour>
        <pt x="385" y="621" on="0"/>
        <pt x="347" y="589" on="0"/>
        <pt x="304" y="589" on="0"/>
        <pt x="292" y="583" on="1"/>
        <pt x="282" y="573" on="0"/>
        <pt x="274" y="532" on="1"/>
        <pt x="272" y="518" on="1"/>
        <pt x="301" y="518" on="1"/>
        <pt x="324" y="518" on="0"/>
        <pt x="351" y="486" on="0"/>
        <pt x="342" y="440" on="0"/>
        <pt x="304" y="407" on="0"/>
        <pt x="282" y="407" on="1"/>
        <pt x="252" y="407" on="1"/>
        <pt x="190" y="55" on="1"/>
        <pt x="186" y="32" on="0"/>
        <pt x="148" y="0" on="0"/>
        <pt x="102" y="0" on="0"/>
        <pt x="76" y="32" on="0"/>
        <pt x="80" y="55" on="1"/>
        <pt x="142" y="407" on="1"/>
        <pt x="116" y="407" on="1"/>
        <pt x="93" y="407" on="0"/>
        <pt x="66" y="440" on="0"/>
        <pt x="70" y="463" on="1"/>
        <pt x="75" y="486" on="0"/>
        <pt x="113" y="518" on="0"/>
        <pt x="135" y="518" on="1"/>
        <pt x="161" y="518" on="1"/>
        <pt x="164" y="532" on="1"/>
        <pt x="173" y="590" on="0"/>
        <pt x="200" y="630" on="1"/>
        <pt x="231" y="678" on="0"/>
        <pt x="283" y="691" on="1"/>
        <pt x="310" y="700" on="0"/>
        <pt x="367" y="700" on="0"/>
        <pt x="394" y="667" on="0"/>
      </contour>
    </TTGlyph>
    <TTGlyph name="five" xMin="69" yMin="1" xMax="603" yMax="701">
      <contour>
        <pt x="117" y="367" on="1"/>
        <pt x="117" y="375" on="1"/>
        <pt x="116" y="382" on="0"/>
        <pt x="119" y="392" on="1"/>
        <pt x="195" y="650" on="1"/>
        <pt x="203" y="677" on="0"/>
        <pt x="227" y="690" on="1"/>
        <pt x="228" y="690" on="0"/>
        <pt x="231" y="693" on="1"/>
        <pt x="247" y="701" on="0"/>
        <pt x="262" y="701" on="1"/>
        <pt x="557" y="701" on="1"/>
        <pt x="580" y="701" on="0"/>
        <pt x="607" y="668" on="0"/>
        <pt x="599" y="621" on="0"/>
        <pt x="560" y="588" on="0"/>
        <pt x="537" y="588" on="1"/>
        <pt x="291" y="588" on="1"/>
        <pt x="261" y="489" on="1"/>
        <pt x="296" y="498" on="0"/>
        <pt x="330" y="498" on="1"/>
        <pt x="432" y="498" on="0"/>
        <pt x="552" y="353" on="0"/>
        <pt x="516" y="147" on="0"/>
        <pt x="343" y="1" on="0"/>
        <pt x="137" y="1" on="0"/>
        <pt x="79" y="74" on="1"/>
        <pt x="65" y="91" on="0"/>
        <pt x="73" y="137" on="0"/>
        <pt x="112" y="170" on="0"/>
        <pt x="160" y="170" on="0"/>
        <pt x="173" y="154" on="1"/>
        <pt x="204" y="116" on="0"/>
        <pt x="261" y="114" on="1"/>
        <pt x="318" y="116" on="0"/>
        <pt x="364" y="154" on="1"/>
        <pt x="410" y="194" on="0"/>
        <pt x="421" y="250" on="1"/>
        <pt x="431" y="306" on="0"/>
        <pt x="365" y="384" on="0"/>
        <pt x="254" y="384" on="0"/>
        <pt x="207" y="345" on="1"/>
        <pt x="188" y="328" on="0"/>
        <pt x="131" y="328" on="0"/>
        <pt x="119" y="359" on="1"/>
        <pt x="119" y="361" on="1"/>
        <pt x="118" y="362" on="0"/>
        <pt x="118" y="366" on="0"/>
      </contour>
    </TTGlyph>
    <TTGlyph name="florin" xMin="56" yMin="-7" xMax="511" yMax="706">
      <contour>
        <pt x="461" y="602" on="1"/>
        <pt x="437" y="604" on="1"/>
        <pt x="402" y="604" on="0"/>
        <pt x="363" y="567" on="0"/>
        <pt x="356" y="526" on="1"/>
        <pt x="344" y="457" on="1"/>
        <pt x="425" y="457" on="1"/>
        <pt x="447" y="457" on="0"/>
        <pt x="476" y="427" on="0"/>
        <pt x="476" y="385" on="0"/>
        <pt x="447" y="356" on="0"/>
        <pt x="425" y="356" on="1"/>
        <pt x="326" y="356" on="1"/>
        <pt x="288" y="143" on="1"/>
        <pt x="274" y="64" on="0"/>
        <pt x="192" y="-7" on="0"/>
        <pt x="121" y="-7" on="1"/>
        <pt x="91" y="-7" on="0"/>
        <pt x="56" y="21" on="0"/>
        <pt x="56" y="64" on="0"/>
        <pt x="84" y="93" on="0"/>
        <pt x="106" y="94" on="1"/>
        <pt x="158" y="98" on="0"/>
        <pt x="169" y="161" on="1"/>
        <pt x="204" y="356" on="1"/>
        <pt x="170" y="356" on="1"/>
        <pt x="149" y="356" on="0"/>
        <pt x="119" y="385" on="0"/>
        <pt x="119" y="427" on="0"/>
        <pt x="149" y="457" on="0"/>
        <pt x="170" y="457" on="1"/>
        <pt x="221" y="457" on="1"/>
        <pt x="239" y="551" on="1"/>
        <pt x="254" y="629" on="0"/>
        <pt x="335" y="706" on="0"/>
        <pt x="414" y="706" on="1"/>
        <pt x="440" y="706" on="0"/>
        <pt x="485" y="701" on="0"/>
        <pt x="511" y="672" on="0"/>
        <pt x="511" y="631" on="0"/>
        <pt x="482" y="602" on="0"/>
      </contour>
    </TTGlyph>
    <TTGlyph name="four" xMin="54" yMin="-2" xMax="617" yMax="698">
      <contour>
        <pt x="573" y="698" on="1"/>
        <pt x="576" y="698" on="0"/>
        <pt x="581" y="698" on="1"/>
        <pt x="592" y="696" on="0"/>
        <pt x="601" y="687" on="1"/>
        <pt x="602" y="687" on="0"/>
        <pt x="602" y="686" on="0"/>
        <pt x="603" y="686" on="1"/>
        <pt x="605" y="684" on="1"/>
        <pt x="609" y="684" on="0"/>
        <pt x="615" y="663" on="0"/>
        <pt x="616" y="662" on="1"/>
        <pt x="616" y="656" on="1"/>
        <pt x="617" y="655" on="0"/>
        <pt x="617" y="652" on="1"/>
        <pt x="616" y="645" on="1"/>
        <pt x="616" y="643" on="1"/>
        <pt x="545" y="239" on="1"/>
        <pt x="555" y="239" on="1"/>
        <pt x="578" y="239" on="0"/>
        <pt x="604" y="206" on="0"/>
        <pt x="596" y="161" on="0"/>
        <pt x="558" y="128" on="0"/>
        <pt x="535" y="128" on="1"/>
        <pt x="525" y="128" on="1"/>
        <pt x="512" y="53" on="1"/>
        <pt x="508" y="30" on="0"/>
        <pt x="470" y="-2" on="0"/>
        <pt x="424" y="-2" on="0"/>
        <pt x="397" y="30" on="0"/>
        <pt x="401" y="53" on="1"/>
        <pt x="415" y="128" on="1"/>
        <pt x="100" y="128" on="1"/>
        <pt x="81" y="128" on="0"/>
        <pt x="52" y="155" on="0"/>
        <pt x="56" y="201" on="0"/>
        <pt x="73" y="218" on="1"/>
        <pt x="524" y="677" on="1"/>
        <pt x="524" y="679" on="0"/>
        <pt x="526" y="679" on="1"/>
        <pt x="531" y="684" on="1"/>
        <pt x="545" y="692" on="1"/>
        <pt x="551" y="695" on="1"/>
        <pt x="561" y="697" on="0"/>
        <pt x="564" y="698" on="0"/>
        <pt x="568" y="698" on="1"/>
      </contour>
      <contour>
        <pt x="235" y="239" on="1"/>
        <pt x="434" y="239" on="1"/>
        <pt x="478" y="486" on="1"/>
      </contour>
    </TTGlyph>
    <TTGlyph name="g" xMin="72" yMin="-182" xMax="590" yMax="500">
      <contour>
        <pt x="555" y="246" on="1"/>
        <pt x="522" y="60" on="1"/>
        <pt x="505" y="-40" on="0"/>
        <pt x="339" y="-182" on="0"/>
        <pt x="238" y="-182" on="1"/>
        <pt x="182" y="-182" on="0"/>
        <pt x="136" y="-158" on="1"/>
        <pt x="118" y="-148" on="0"/>
        <pt x="111" y="-106" on="0"/>
        <pt x="137" y="-66" on="0"/>
        <pt x="182" y="-51" on="0"/>
        <pt x="226" y="-75" on="0"/>
        <pt x="305" y="-75" on="0"/>
        <pt x="390" y="-13" on="0"/>
        <pt x="407" y="33" on="1"/>
        <pt x="338" y="-8" on="0"/>
        <pt x="269" y="-8" on="1"/>
        <pt x="169" y="-8" on="0"/>
        <pt x="54" y="142" on="0"/>
        <pt x="90" y="351" on="0"/>
        <pt x="173" y="424" on="1"/>
        <pt x="257" y="500" on="0"/>
        <pt x="358" y="500" on="1"/>
        <pt x="433" y="500" on="0"/>
        <pt x="486" y="456" on="1"/>
        <pt x="493" y="475" on="0"/>
        <pt x="526" y="500" on="0"/>
        <pt x="569" y="500" on="0"/>
        <pt x="594" y="468" on="0"/>
        <pt x="590" y="446" on="1"/>
        <pt x="555" y="247" on="1"/>
      </contour>
      <contour>
        <pt x="201" y="143" on="1"/>
        <pt x="234" y="101" on="0"/>
        <pt x="343" y="101" on="0"/>
        <pt x="388" y="143" on="1"/>
        <pt x="436" y="183" on="0"/>
        <pt x="447" y="246" on="1"/>
        <pt x="448" y="247" on="1"/>
        <pt x="458" y="308" on="0"/>
        <pt x="393" y="392" on="0"/>
        <pt x="286" y="392" on="0"/>
        <pt x="190" y="307" on="0"/>
        <pt x="169" y="187" on="0"/>
      </contour>
    </TTGlyph>
    <TTGlyph name="germandbls" xMin="99" yMin="-21" xMax="640" yMax="721">
      <contour>
        <pt x="313" y="31" on="1"/>
        <pt x="319" y="69" on="0"/>
        <pt x="364" y="79" on="1"/>
        <pt x="483" y="97" on="0"/>
        <pt x="499" y="183" on="1"/>
        <pt x="499" y="185" on="1"/>
        <pt x="512" y="262" on="0"/>
        <pt x="403" y="291" on="1"/>
        <pt x="360" y="305" on="0"/>
        <pt x="368" y="344" on="1"/>
        <pt x="373" y="377" on="0"/>
        <pt x="403" y="394" on="1"/>
        <pt x="504" y="445" on="0"/>
        <pt x="517" y="520" on="1"/>
        <pt x="517" y="522" on="1"/>
        <pt x="525" y="565" on="0"/>
        <pt x="479" y="618" on="0"/>
        <pt x="383" y="618" on="0"/>
        <pt x="309" y="548" on="0"/>
        <pt x="299" y="490" on="1"/>
        <pt x="219" y="38" on="1"/>
        <pt x="214" y="13" on="0"/>
        <pt x="173" y="-21" on="0"/>
        <pt x="123" y="-21" on="0"/>
        <pt x="95" y="13" on="0"/>
        <pt x="99" y="38" on="1"/>
        <pt x="178" y="486" on="1"/>
        <pt x="197" y="595" on="0"/>
        <pt x="347" y="721" on="0"/>
        <pt x="556" y="721" on="0"/>
        <pt x="655" y="614" on="0"/>
        <pt x="640" y="533" on="1"/>
        <pt x="640" y="531" on="1"/>
        <pt x="621" y="422" on="0"/>
        <pt x="499" y="360" on="1"/>
        <pt x="642" y="309" on="0"/>
        <pt x="619" y="182" on="1"/>
        <pt x="619" y="180" on="1"/>
        <pt x="603" y="88" on="0"/>
        <pt x="451" y="-17" on="0"/>
        <pt x="359" y="-19" on="1"/>
        <pt x="334" y="-19" on="0"/>
        <pt x="309" y="9" on="0"/>
      </contour>
    </TTGlyph>
    <TTGlyph name="grave" xMin="163" yMin="590" xMax="349" yMax="750">
      <contour>
        <pt x="349" y="611" on="1"/>
        <pt x="349" y="590" on="0"/>
        <pt x="276" y="590" on="0"/>
        <pt x="248" y="617" on="1"/>
        <pt x="180" y="681" on="1"/>
        <pt x="163" y="696" on="0"/>
        <pt x="163" y="725" on="0"/>
        <pt x="210" y="750" on="0"/>
        <pt x="265" y="750" on="0"/>
        <pt x="283" y="721" on="1"/>
        <pt x="340" y="633" on="1"/>
        <pt x="349" y="620" on="0"/>
      </contour>
    </TTGlyph>
    <TTGlyph name="greater" xMin="99" yMin="1" xMax="562" yMax="701">
      <contour>
        <pt x="562" y="368" on="1"/>
        <pt x="562" y="357" on="1"/>
        <pt x="562" y="349" on="0"/>
        <pt x="560" y="347" on="1"/>
        <pt x="560" y="340" on="0"/>
        <pt x="558" y="338" on="1"/>
        <pt x="557" y="336" on="1"/>
        <pt x="556" y="335" on="0"/>
        <pt x="546" y="317" on="0"/>
        <pt x="544" y="316" on="1"/>
        <pt x="543" y="314" on="1"/>
        <pt x="535" y="306" on="1"/>
        <pt x="200" y="20" on="1"/>
        <pt x="180" y="1" on="0"/>
        <pt x="125" y="1" on="0"/>
        <pt x="94" y="38" on="0"/>
        <pt x="104" y="91" on="0"/>
        <pt x="126" y="110" on="1"/>
        <pt x="408" y="351" on="1"/>
        <pt x="211" y="592" on="1"/>
        <pt x="195" y="611" on="0"/>
        <pt x="205" y="663" on="0"/>
        <pt x="249" y="701" on="0"/>
        <pt x="302" y="701" on="0"/>
        <pt x="317" y="682" on="1"/>
        <pt x="551" y="396" on="1"/>
        <pt x="555" y="390" on="0"/>
        <pt x="556" y="387" on="1"/>
        <pt x="557" y="386" on="1"/>
        <pt x="559" y="380" on="0"/>
        <pt x="561" y="376" on="0"/>
        <pt x="561" y="370" on="0"/>
      </contour>
    </TTGlyph>
    <TTGlyph name="guillemotleft" xMin="57" yMin="42" xMax="575" yMax="486">
      <contour>
        <pt x="509" y="71" on="0"/>
        <pt x="476" y="42" on="0"/>
        <pt x="428" y="42" on="0"/>
        <pt x="416" y="63" on="1"/>
        <pt x="317" y="229" on="1"/>
        <pt x="305" y="249" on="0"/>
        <pt x="312" y="281" on="0"/>
        <pt x="330" y="299" on="1"/>
        <pt x="485" y="462" on="1"/>
        <pt x="507" y="486" on="0"/>
        <pt x="555" y="486" on="0"/>
        <pt x="578" y="456" on="0"/>
        <pt x="571" y="417" on="0"/>
        <pt x="554" y="402" on="1"/>
        <pt x="425" y="265" on="1"/>
        <pt x="506" y="125" on="1"/>
        <pt x="517" y="110" on="0"/>
      </contour>
      <contour>
        <pt x="258" y="71" on="0"/>
        <pt x="224" y="42" on="0"/>
        <pt x="176" y="42" on="0"/>
        <pt x="164" y="63" on="1"/>
        <pt x="65" y="229" on="1"/>
        <pt x="54" y="248" on="0"/>
        <pt x="61" y="282" on="0"/>
        <pt x="78" y="299" on="1"/>
        <pt x="233" y="462" on="1"/>
        <pt x="257" y="486" on="0"/>
        <pt x="303" y="486" on="0"/>
        <pt x="326" y="456" on="0"/>
        <pt x="319" y="418" on="0"/>
        <pt x="303" y="402" on="1"/>
        <pt x="173" y="265" on="1"/>
        <pt x="255" y="125" on="1"/>
        <pt x="265" y="111" on="0"/>
      </contour>
    </TTGlyph>
    <TTGlyph name="guillemotright" xMin="71" yMin="42" xMax="589" yMax="486">
      <contour>
        <pt x="137" y="457" on="0"/>
        <pt x="170" y="486" on="0"/>
        <pt x="218" y="486" on="0"/>
        <pt x="230" y="465" on="1"/>
        <pt x="329" y="299" on="1"/>
        <pt x="341" y="279" on="0"/>
        <pt x="334" y="247" on="0"/>
        <pt x="316" y="229" on="1"/>
        <pt x="161" y="66" on="1"/>
        <pt x="139" y="42" on="0"/>
        <pt x="91" y="42" on="0"/>
        <pt x="68" y="72" on="0"/>
        <pt x="75" y="111" on="0"/>
        <pt x="92" y="126" on="1"/>
        <pt x="221" y="263" on="1"/>
        <pt x="140" y="403" on="1"/>
        <pt x="129" y="418" on="0"/>
      </contour>
      <contour>
        <pt x="388" y="457" on="0"/>
        <pt x="422" y="486" on="0"/>
        <pt x="470" y="486" on="0"/>
        <pt x="482" y="465" on="1"/>
        <pt x="581" y="299" on="1"/>
        <pt x="592" y="280" on="0"/>
        <pt x="585" y="246" on="0"/>
        <pt x="568" y="229" on="1"/>
        <pt x="413" y="66" on="1"/>
        <pt x="389" y="42" on="0"/>
        <pt x="343" y="42" on="0"/>
        <pt x="320" y="72" on="0"/>
        <pt x="327" y="110" on="0"/>
        <pt x="343" y="126" on="1"/>
        <pt x="473" y="263" on="1"/>
        <pt x="391" y="403" on="1"/>
        <pt x="381" y="417" on="0"/>
      </contour>
    </TTGlyph>
    <TTGlyph name="h" xMin="98" yMin="1" xMax="577" yMax="701">
      <contour>
        <pt x="529" y="33" on="0"/>
        <pt x="491" y="1" on="0"/>
        <pt x="446" y="1" on="0"/>
        <pt x="419" y="33" on="0"/>
        <pt x="423" y="56" on="1"/>
        <pt x="466" y="283" on="1"/>
        <pt x="474" y="327" on="0"/>
        <pt x="422" y="390" on="0"/>
        <pt x="334" y="390" on="0"/>
        <pt x="260" y="327" on="0"/>
        <pt x="252" y="283" on="1"/>
        <pt x="209" y="56" on="1"/>
        <pt x="204" y="33" on="0"/>
        <pt x="166" y="1" on="0"/>
        <pt x="121" y="1" on="0"/>
        <pt x="94" y="33" on="0"/>
        <pt x="98" y="56" on="1"/>
        <pt x="142" y="283" on="1"/>
        <pt x="202" y="646" on="1"/>
        <pt x="206" y="669" on="0"/>
        <pt x="244" y="701" on="0"/>
        <pt x="290" y="701" on="0"/>
        <pt x="317" y="669" on="0"/>
        <pt x="313" y="646" on="1"/>
        <pt x="286" y="473" on="1"/>
        <pt x="339" y="501" on="0"/>
        <pt x="398" y="501" on="1"/>
        <pt x="488" y="501" on="0"/>
        <pt x="593" y="374" on="0"/>
        <pt x="577" y="283" on="1"/>
        <pt x="534" y="56" on="1"/>
      </contour>
    </TTGlyph>
    <TTGlyph name="hyphen" xMin="66" yMin="308" xMax="323" yMax="380">
      <contour>
        <pt x="288" y="308" on="1"/>
        <pt x="102" y="308" on="1"/>
        <pt x="87" y="308" on="0"/>
        <pt x="66" y="329" on="0"/>
        <pt x="66" y="359" on="0"/>
        <pt x="87" y="380" on="0"/>
        <pt x="102" y="380" on="1"/>
        <pt x="288" y="380" on="1"/>
        <pt x="303" y="380" on="0"/>
        <pt x="323" y="359" on="0"/>
        <pt x="323" y="329" on="0"/>
        <pt x="303" y="308" on="0"/>
      </contour>
    </TTGlyph>
    <TTGlyph name="i" xMin="99" yMin="-1" xMax="314" yMax="699">
      <contour>
        <pt x="99" y="54" on="1"/>
        <pt x="172" y="445" on="1"/>
        <pt x="176" y="468" on="0"/>
        <pt x="214" y="500" on="0"/>
        <pt x="260" y="500" on="0"/>
        <pt x="286" y="467" on="0"/>
        <pt x="282" y="445" on="1"/>
        <pt x="210" y="54" on="1"/>
        <pt x="206" y="31" on="0"/>
        <pt x="168" y="-1" on="0"/>
        <pt x="122" y="-1" on="0"/>
        <pt x="95" y="31" on="0"/>
      </contour>
      <contour>
        <pt x="310" y="623" on="1"/>
        <pt x="306" y="600" on="0"/>
        <pt x="268" y="567" on="0"/>
        <pt x="222" y="567" on="0"/>
        <pt x="196" y="600" on="0"/>
        <pt x="200" y="623" on="1"/>
        <pt x="203" y="644" on="1"/>
        <pt x="208" y="667" on="0"/>
        <pt x="246" y="699" on="0"/>
        <pt x="291" y="699" on="0"/>
        <pt x="318" y="667" on="0"/>
        <pt x="314" y="644" on="1"/>
      </contour>
    </TTGlyph>
    <TTGlyph name="iacute" xMin="105" yMin="-1" xMax="366" yMax="750">
      <contour>
        <pt x="105" y="54" on="1"/>
        <pt x="178" y="464" on="1"/>
        <pt x="182" y="487" on="0"/>
        <pt x="220" y="519" on="0"/>
        <pt x="266" y="519" on="0"/>
        <pt x="292" y="486" on="0"/>
        <pt x="288" y="464" on="1"/>
        <pt x="216" y="54" on="1"/>
        <pt x="212" y="31" on="0"/>
        <pt x="174" y="-1" on="0"/>
        <pt x="128" y="-1" on="0"/>
        <pt x="101" y="31" on="0"/>
      </contour>
      <contour>
        <pt x="282" y="617" on="1"/>
        <pt x="253" y="590" on="0"/>
        <pt x="181" y="590" on="0"/>
        <pt x="181" y="611" on="1"/>
        <pt x="181" y="621" on="0"/>
        <pt x="189" y="633" on="1"/>
        <pt x="246" y="721" on="1"/>
        <pt x="264" y="750" on="0"/>
        <pt x="319" y="750" on="0"/>
        <pt x="366" y="725" on="0"/>
        <pt x="366" y="696" on="0"/>
        <pt x="349" y="681" on="1"/>
      </contour>
    </TTGlyph>
    <TTGlyph name="icircumflex" xMin="20" yMin="-1" xMax="351" yMax="746">
      <contour>
        <pt x="20" y="54" on="1"/>
        <pt x="93" y="464" on="1"/>
        <pt x="97" y="487" on="0"/>
        <pt x="135" y="519" on="0"/>
        <pt x="181" y="519" on="0"/>
        <pt x="207" y="486" on="0"/>
        <pt x="203" y="464" on="1"/>
        <pt x="131" y="54" on="1"/>
        <pt x="127" y="31" on="0"/>
        <pt x="89" y="-1" on="0"/>
        <pt x="43" y="-1" on="0"/>
        <pt x="16" y="31" on="0"/>
      </contour>
      <contour>
        <pt x="212" y="662" on="1"/>
        <pt x="146" y="617" on="1"/>
        <pt x="107" y="590" on="0"/>
        <pt x="64" y="590" on="1"/>
        <pt x="52" y="590" on="0"/>
        <pt x="40" y="601" on="0"/>
        <pt x="45" y="617" on="0"/>
        <pt x="62" y="634" on="1"/>
        <pt x="153" y="717" on="1"/>
        <pt x="185" y="746" on="0"/>
        <pt x="220" y="746" on="1"/>
        <pt x="256" y="746" on="1"/>
        <pt x="290" y="746" on="0"/>
        <pt x="305" y="717" on="1"/>
        <pt x="346" y="634" on="1"/>
        <pt x="354" y="619" on="0"/>
        <pt x="351" y="610" on="1"/>
        <pt x="345" y="590" on="0"/>
        <pt x="276" y="590" on="0"/>
        <pt x="250" y="617" on="1"/>
      </contour>
    </TTGlyph>
    <TTGlyph name="idieresis" xMin="12" yMin="-1" xMax="364" yMax="720">
      <contour>
        <pt x="12" y="54" on="1"/>
        <pt x="85" y="464" on="1"/>
        <pt x="89" y="487" on="0"/>
        <pt x="127" y="519" on="0"/>
        <pt x="173" y="519" on="0"/>
        <pt x="199" y="486" on="0"/>
        <pt x="195" y="464" on="1"/>
        <pt x="123" y="54" on="1"/>
        <pt x="119" y="31" on="0"/>
        <pt x="81" y="-1" on="0"/>
        <pt x="35" y="-1" on="0"/>
        <pt x="8" y="31" on="0"/>
      </contour>
      <contour>
        <pt x="284" y="720" on="0"/>
        <pt x="339" y="720" on="0"/>
        <pt x="369" y="685" on="0"/>
        <pt x="364" y="658" on="1"/>
        <pt x="359" y="626" on="0"/>
        <pt x="312" y="590" on="0"/>
        <pt x="257" y="590" on="0"/>
        <pt x="226" y="624" on="0"/>
        <pt x="232" y="651" on="1"/>
        <pt x="237" y="684" on="0"/>
      </contour>
      <contour>
        <pt x="85" y="720" on="0"/>
        <pt x="140" y="720" on="0"/>
        <pt x="170" y="685" on="0"/>
        <pt x="165" y="658" on="1"/>
        <pt x="160" y="626" on="0"/>
        <pt x="113" y="590" on="0"/>
        <pt x="58" y="590" on="0"/>
        <pt x="27" y="624" on="0"/>
        <pt x="33" y="651" on="1"/>
        <pt x="38" y="684" on="0"/>
      </contour>
    </TTGlyph>
    <TTGlyph name="igrave" xMin="7" yMin="-1" xMax="233" yMax="750">
      <contour>
        <pt x="7" y="54" on="1"/>
        <pt x="80" y="464" on="1"/>
        <pt x="84" y="487" on="0"/>
        <pt x="122" y="519" on="0"/>
        <pt x="168" y="519" on="0"/>
        <pt x="194" y="486" on="0"/>
        <pt x="190" y="464" on="1"/>
        <pt x="118" y="54" on="1"/>
        <pt x="114" y="31" on="0"/>
        <pt x="76" y="-1" on="0"/>
        <pt x="30" y="-1" on="0"/>
        <pt x="3" y="31" on="0"/>
      </contour>
      <contour>
        <pt x="233" y="611" on="1"/>
        <pt x="233" y="590" on="0"/>
        <pt x="160" y="590" on="0"/>
        <pt x="132" y="617" on="1"/>
        <pt x="64" y="681" on="1"/>
        <pt x="47" y="696" on="0"/>
        <pt x="47" y="725" on="0"/>
        <pt x="94" y="750" on="0"/>
        <pt x="149" y="750" on="0"/>
        <pt x="167" y="721" on="1"/>
        <pt x="224" y="633" on="1"/>
        <pt x="233" y="620" on="0"/>
      </contour>
    </TTGlyph>
    <TTGlyph name="j" xMin="1" yMin="-198" xMax="311" yMax="700">
      <contour>
        <pt x="311" y="644" on="1"/>
        <pt x="307" y="623" on="1"/>
        <pt x="303" y="599" on="0"/>
        <pt x="264" y="565" on="0"/>
        <pt x="217" y="565" on="0"/>
        <pt x="190" y="599" on="0"/>
        <pt x="194" y="623" on="1"/>
        <pt x="198" y="644" on="1"/>
        <pt x="202" y="667" on="0"/>
        <pt x="240" y="700" on="0"/>
        <pt x="287" y="700" on="0"/>
        <pt x="315" y="667" on="0"/>
      </contour>
      <contour>
        <pt x="167" y="468" on="0"/>
        <pt x="206" y="500" on="0"/>
        <pt x="253" y="500" on="0"/>
        <pt x="280" y="468" on="0"/>
        <pt x="276" y="444" on="1"/>
        <pt x="180" y="-85" on="1"/>
        <pt x="172" y="-132" on="0"/>
        <pt x="93" y="-198" on="0"/>
        <pt x="47" y="-198" on="1"/>
        <pt x="24" y="-198" on="0"/>
        <pt x="-3" y="-165" on="0"/>
        <pt x="5" y="-118" on="0"/>
        <pt x="44" y="-85" on="0"/>
        <pt x="67" y="-85" on="1"/>
        <pt x="163" y="444" on="1"/>
      </contour>
    </TTGlyph>
    <TTGlyph name="k" xMin="99" yMin="0" xMax="582" yMax="700">
      <contour>
        <pt x="167" y="0" on="0"/>
        <pt x="121" y="0" on="0"/>
        <pt x="95" y="33" on="0"/>
        <pt x="99" y="55" on="1"/>
        <pt x="203" y="645" on="1"/>
        <pt x="207" y="668" on="0"/>
        <pt x="245" y="700" on="0"/>
        <pt x="291" y="700" on="0"/>
        <pt x="317" y="667" on="0"/>
        <pt x="313" y="645" on="1"/>
        <pt x="252" y="298" on="1"/>
        <pt x="494" y="504" on="1"/>
        <pt x="514" y="520" on="0"/>
        <pt x="559" y="520" on="0"/>
        <pt x="585" y="487" on="0"/>
        <pt x="578" y="442" on="0"/>
        <pt x="559" y="426" on="1"/>
        <pt x="383" y="276" on="1"/>
        <pt x="503" y="90" on="1"/>
        <pt x="514" y="73" on="0"/>
        <pt x="502" y="27" on="0"/>
        <pt x="465" y="0" on="0"/>
        <pt x="419" y="0" on="0"/>
        <pt x="405" y="20" on="1"/>
        <pt x="290" y="198" on="1"/>
        <pt x="225" y="142" on="1"/>
        <pt x="209" y="55" on="1"/>
        <pt x="205" y="32" on="0"/>
      </contour>
    </TTGlyph>
    <TTGlyph name="l" xMin="105" yMin="-1" xMax="320" yMax="699">
      <contour>
        <pt x="209" y="644" on="1"/>
        <pt x="213" y="667" on="0"/>
        <pt x="252" y="699" on="0"/>
        <pt x="298" y="699" on="0"/>
        <pt x="324" y="667" on="0"/>
        <pt x="320" y="644" on="1"/>
        <pt x="216" y="55" on="1"/>
        <pt x="212" y="32" on="0"/>
        <pt x="174" y="-1" on="0"/>
        <pt x="128" y="-1" on="0"/>
        <pt x="101" y="32" on="0"/>
        <pt x="105" y="55" on="1"/>
      </contour>
    </TTGlyph>
    <TTGlyph name="less" xMin="60" yMin="1" xMax="524" yMax="701">
      <contour>
        <pt x="62" y="355" on="1"/>
        <pt x="62" y="362" on="0"/>
        <pt x="66" y="366" on="1"/>
        <pt x="72" y="382" on="0"/>
        <pt x="88" y="396" on="1"/>
        <pt x="422" y="682" on="1"/>
        <pt x="444" y="701" on="0"/>
        <pt x="497" y="701" on="0"/>
        <pt x="528" y="663" on="0"/>
        <pt x="519" y="611" on="0"/>
        <pt x="497" y="592" on="1"/>
        <pt x="215" y="351" on="1"/>
        <pt x="412" y="110" on="1"/>
        <pt x="427" y="91" on="0"/>
        <pt x="418" y="38" on="0"/>
        <pt x="374" y="1" on="0"/>
        <pt x="321" y="1" on="0"/>
        <pt x="305" y="20" on="1"/>
        <pt x="72" y="306" on="1"/>
        <pt x="62" y="316" on="0"/>
        <pt x="62" y="327" on="1"/>
        <pt x="60" y="331" on="0"/>
        <pt x="60" y="339" on="1"/>
        <pt x="61" y="344" on="1"/>
        <pt x="61" y="351" on="1"/>
      </contour>
    </TTGlyph>
    <TTGlyph name="m" xMin="99" yMin="2" xMax="868" yMax="500">
      <contour>
        <pt x="557" y="292" on="1"/>
        <pt x="516" y="56" on="1"/>
        <pt x="511" y="33" on="0"/>
        <pt x="475" y="2" on="0"/>
        <pt x="431" y="2" on="0"/>
        <pt x="406" y="33" on="0"/>
        <pt x="409" y="56" on="1"/>
        <pt x="451" y="292" on="1"/>
        <pt x="451" y="294" on="1"/>
        <pt x="458" y="336" on="0"/>
        <pt x="408" y="395" on="0"/>
        <pt x="325" y="395" on="0"/>
        <pt x="253" y="335" on="0"/>
        <pt x="246" y="292" on="1"/>
        <pt x="204" y="56" on="1"/>
        <pt x="200" y="34" on="0"/>
        <pt x="164" y="2" on="0"/>
        <pt x="120" y="2" on="0"/>
        <pt x="95" y="34" on="0"/>
        <pt x="99" y="56" on="1"/>
        <pt x="167" y="447" on="1"/>
        <pt x="172" y="470" on="0"/>
        <pt x="208" y="500" on="0"/>
        <pt x="230" y="500" on="1"/>
        <pt x="263" y="500" on="0"/>
        <pt x="273" y="470" on="1"/>
        <pt x="327" y="500" on="0"/>
        <pt x="385" y="500" on="1"/>
        <pt x="479" y="500" on="0"/>
        <pt x="529" y="431" on="1"/>
        <pt x="603" y="500" on="0"/>
        <pt x="783" y="500" on="0"/>
        <pt x="883" y="378" on="0"/>
        <pt x="868" y="292" on="1"/>
        <pt x="826" y="56" on="1"/>
        <pt x="823" y="34" on="0"/>
        <pt x="786" y="2" on="0"/>
        <pt x="742" y="2" on="0"/>
        <pt x="717" y="34" on="0"/>
        <pt x="721" y="56" on="1"/>
        <pt x="762" y="292" on="1"/>
        <pt x="770" y="335" on="0"/>
        <pt x="721" y="395" on="0"/>
        <pt x="636" y="395" on="0"/>
        <pt x="566" y="336" on="0"/>
        <pt x="558" y="294" on="1"/>
        <pt x="558" y="293" on="0"/>
      </contour>
    </TTGlyph>
    <TTGlyph name="multiply" xMin="104" yMin="131" xMax="591" yMax="573">
      <contour>
        <pt x="568" y="481" on="1"/>
        <pt x="421" y="353" on="1"/>
        <pt x="535" y="225" on="1"/>
        <pt x="550" y="207" on="0"/>
        <pt x="543" y="162" on="0"/>
        <pt x="507" y="131" on="0"/>
        <pt x="463" y="131" on="0"/>
        <pt x="447" y="147" on="1"/>
        <pt x="337" y="279" on="1"/>
        <pt x="191" y="148" on="1"/>
        <pt x="172" y="131" on="0"/>
        <pt x="127" y="131" on="0"/>
        <pt x="101" y="161" on="0"/>
        <pt x="107" y="206" on="0"/>
        <pt x="127" y="223" on="1"/>
        <pt x="274" y="351" on="1"/>
        <pt x="159" y="479" on="1"/>
        <pt x="145" y="498" on="0"/>
        <pt x="152" y="542" on="0"/>
        <pt x="188" y="573" on="0"/>
        <pt x="233" y="573" on="0"/>
        <pt x="247" y="556" on="1"/>
        <pt x="358" y="425" on="1"/>
        <pt x="504" y="556" on="1"/>
        <pt x="523" y="573" on="0"/>
        <pt x="568" y="573" on="0"/>
        <pt x="594" y="542" on="0"/>
        <pt x="588" y="498" on="0"/>
      </contour>
    </TTGlyph>
    <TTGlyph name="n" xMin="98" yMin="1" xMax="557" yMax="500">
      <contour>
        <pt x="410" y="55" on="1"/>
        <pt x="452" y="291" on="1"/>
        <pt x="459" y="334" on="0"/>
        <pt x="410" y="394" on="0"/>
        <pt x="324" y="394" on="0"/>
        <pt x="254" y="334" on="0"/>
        <pt x="247" y="291" on="1"/>
        <pt x="204" y="55" on="1"/>
        <pt x="201" y="33" on="0"/>
        <pt x="164" y="1" on="0"/>
        <pt x="120" y="1" on="0"/>
        <pt x="94" y="33" on="0"/>
        <pt x="98" y="55" on="1"/>
        <pt x="167" y="447" on="1"/>
        <pt x="172" y="469" on="0"/>
        <pt x="208" y="500" on="0"/>
        <pt x="230" y="500" on="1"/>
        <pt x="264" y="500" on="0"/>
        <pt x="272" y="469" on="1"/>
        <pt x="326" y="500" on="0"/>
        <pt x="385" y="500" on="1"/>
        <pt x="472" y="500" on="0"/>
        <pt x="573" y="378" on="0"/>
        <pt x="557" y="291" on="1"/>
        <pt x="515" y="55" on="1"/>
        <pt x="512" y="33" on="0"/>
        <pt x="476" y="1" on="0"/>
        <pt x="432" y="1" on="0"/>
        <pt x="406" y="32" on="0"/>
      </contour>
    </TTGlyph>
    <TTGlyph name="nine" xMin="89" yMin="-1" xMax="578" yMax="699">
      <contour>
        <pt x="578" y="482" on="1"/>
        <pt x="578" y="480" on="1"/>
        <pt x="562" y="332" on="0"/>
        <pt x="434" y="102" on="0"/>
        <pt x="340" y="46" on="1"/>
        <pt x="265" y="2" on="0"/>
        <pt x="182" y="-1" on="1"/>
        <pt x="179" y="-1" on="1"/>
        <pt x="157" y="-1" on="0"/>
        <pt x="130" y="30" on="0"/>
        <pt x="137" y="75" on="0"/>
        <pt x="174" y="109" on="0"/>
        <pt x="197" y="110" on="1"/>
        <pt x="249" y="111" on="0"/>
        <pt x="337" y="162" on="0"/>
        <pt x="371" y="209" on="1"/>
        <pt x="381" y="220" on="0"/>
        <pt x="389" y="235" on="1"/>
        <pt x="341" y="215" on="0"/>
        <pt x="289" y="215" on="1"/>
        <pt x="189" y="215" on="0"/>
        <pt x="72" y="356" on="0"/>
        <pt x="107" y="557" on="0"/>
        <pt x="274" y="699" on="0"/>
        <pt x="468" y="699" on="0"/>
        <pt x="585" y="574" on="0"/>
      </contour>
      <contour>
        <pt x="254" y="325" on="0"/>
        <pt x="364" y="325" on="0"/>
        <pt x="454" y="402" on="0"/>
        <pt x="474" y="511" on="0"/>
        <pt x="410" y="588" on="0"/>
        <pt x="300" y="588" on="0"/>
        <pt x="210" y="511" on="0"/>
        <pt x="190" y="402" on="0"/>
      </contour>
    </TTGlyph>
    <TTGlyph name="ntilde" xMin="98" yMin="1" xMax="594" yMax="742">
      <component glyphName="n" x="0" y="0" flags="0x1004"/>
      <component glyphName="tilde" x="123" y="0" flags="0x1004"/>
    </TTGlyph>
    <TTGlyph name="numbersign" xMin="45" yMin="-5" xMax="677" yMax="705">
      <contour>
        <pt x="125" y="56" on="1"/>
        <pt x="143" y="161" on="1"/>
        <pt x="97" y="161" on="1"/>
        <pt x="75" y="161" on="0"/>
        <pt x="45" y="191" on="0"/>
        <pt x="45" y="234" on="0"/>
        <pt x="75" y="265" on="0"/>
        <pt x="97" y="265" on="1"/>
        <pt x="161" y="265" on="1"/>
        <pt x="191" y="439" on="1"/>
        <pt x="133" y="439" on="1"/>
        <pt x="112" y="439" on="0"/>
        <pt x="81" y="470" on="0"/>
        <pt x="81" y="512" on="0"/>
        <pt x="112" y="543" on="0"/>
        <pt x="133" y="543" on="1"/>
        <pt x="209" y="543" on="1"/>
        <pt x="229" y="662" on="1"/>
        <pt x="232" y="681" on="0"/>
        <pt x="261" y="705" on="0"/>
        <pt x="305" y="705" on="0"/>
        <pt x="336" y="668" on="0"/>
        <pt x="333" y="644" on="1"/>
        <pt x="315" y="543" on="1"/>
        <pt x="472" y="543" on="1"/>
        <pt x="492" y="662" on="1"/>
        <pt x="495" y="681" on="0"/>
        <pt x="525" y="705" on="0"/>
        <pt x="569" y="705" on="0"/>
        <pt x="600" y="667" on="0"/>
        <pt x="596" y="644" on="1"/>
        <pt x="579" y="543" on="1"/>
        <pt x="625" y="543" on="1"/>
        <pt x="646" y="543" on="0"/>
        <pt x="677" y="513" on="0"/>
        <pt x="677" y="470" on="0"/>
        <pt x="646" y="439" on="0"/>
        <pt x="625" y="439" on="1"/>
        <pt x="561" y="439" on="1"/>
        <pt x="531" y="265" on="1"/>
        <pt x="588" y="265" on="1"/>
        <pt x="610" y="265" on="0"/>
        <pt x="640" y="235" on="0"/>
        <pt x="640" y="192" on="0"/>
        <pt x="610" y="161" on="0"/>
        <pt x="588" y="161" on="1"/>
        <pt x="513" y="161" on="1"/>
        <pt x="492" y="38" on="1"/>
        <pt x="489" y="19" on="0"/>
        <pt x="460" y="-5" on="0"/>
        <pt x="416" y="-5" on="0"/>
        <pt x="384" y="32" on="0"/>
        <pt x="388" y="56" on="1"/>
        <pt x="407" y="161" on="1"/>
        <pt x="250" y="161" on="1"/>
        <pt x="229" y="38" on="1"/>
        <pt x="226" y="20" on="0"/>
        <pt x="197" y="-5" on="0"/>
        <pt x="152" y="-5" on="0"/>
        <pt x="121" y="31" on="0"/>
      </contour>
      <contour>
        <pt x="268" y="265" on="1"/>
        <pt x="424" y="265" on="1"/>
        <pt x="454" y="439" on="1"/>
        <pt x="298" y="439" on="1"/>
      </contour>
    </TTGlyph>
    <TTGlyph name="o" xMin="82" yMin="-2" xMax="560" yMax="500">
      <contour>
        <pt x="181" y="425" on="1"/>
        <pt x="266" y="500" on="0"/>
        <pt x="463" y="500" on="0"/>
        <pt x="523" y="425" on="1"/>
        <pt x="578" y="351" on="0"/>
        <pt x="542" y="145" on="0"/>
        <pt x="460" y="73" on="1"/>
        <pt x="378" y="-2" on="0"/>
        <pt x="178" y="-2" on="0"/>
        <pt x="119" y="73" on="1"/>
        <pt x="64" y="146" on="0"/>
        <pt x="100" y="350" on="0"/>
      </contour>
      <contour>
        <pt x="454" y="249" on="1"/>
        <pt x="465" y="311" on="0"/>
        <pt x="431" y="351" on="1"/>
        <pt x="401" y="393" on="0"/>
        <pt x="293" y="393" on="0"/>
        <pt x="200" y="310" on="0"/>
        <pt x="177" y="187" on="0"/>
        <pt x="242" y="104" on="0"/>
        <pt x="348" y="104" on="0"/>
        <pt x="442" y="187" on="0"/>
      </contour>
    </TTGlyph>
    <TTGlyph name="oacute" xMin="70" yMin="-2" xMax="548" yMax="750">
      <contour>
        <pt x="169" y="425" on="1"/>
        <pt x="254" y="500" on="0"/>
        <pt x="451" y="500" on="0"/>
        <pt x="511" y="425" on="1"/>
        <pt x="566" y="351" on="0"/>
        <pt x="530" y="145" on="0"/>
        <pt x="448" y="73" on="1"/>
        <pt x="366" y="-2" on="0"/>
        <pt x="166" y="-2" on="0"/>
        <pt x="107" y="73" on="1"/>
        <pt x="52" y="146" on="0"/>
        <pt x="88" y="350" on="0"/>
      </contour>
      <contour>
        <pt x="442" y="249" on="1"/>
        <pt x="453" y="311" on="0"/>
        <pt x="419" y="351" on="1"/>
        <pt x="389" y="393" on="0"/>
        <pt x="281" y="393" on="0"/>
        <pt x="188" y="310" on="0"/>
        <pt x="165" y="187" on="0"/>
        <pt x="230" y="104" on="0"/>
        <pt x="336" y="104" on="0"/>
        <pt x="430" y="187" on="0"/>
      </contour>
      <contour>
        <pt x="343" y="617" on="1"/>
        <pt x="314" y="590" on="0"/>
        <pt x="242" y="590" on="0"/>
        <pt x="242" y="611" on="1"/>
        <pt x="242" y="621" on="0"/>
        <pt x="250" y="633" on="1"/>
        <pt x="307" y="721" on="1"/>
        <pt x="325" y="750" on="0"/>
        <pt x="380" y="750" on="0"/>
        <pt x="427" y="725" on="0"/>
        <pt x="427" y="696" on="0"/>
        <pt x="410" y="681" on="1"/>
      </contour>
    </TTGlyph>
    <TTGlyph name="ocircumflex" xMin="70" yMin="-2" xMax="581" yMax="746">
      <contour>
        <pt x="169" y="425" on="1"/>
        <pt x="254" y="500" on="0"/>
        <pt x="451" y="500" on="0"/>
        <pt x="511" y="425" on="1"/>
        <pt x="566" y="351" on="0"/>
        <pt x="530" y="145" on="0"/>
        <pt x="448" y="73" on="1"/>
        <pt x="366" y="-2" on="0"/>
        <pt x="166" y="-2" on="0"/>
        <pt x="107" y="73" on="1"/>
        <pt x="52" y="146" on="0"/>
        <pt x="88" y="350" on="0"/>
      </contour>
      <contour>
        <pt x="442" y="249" on="1"/>
        <pt x="453" y="311" on="0"/>
        <pt x="419" y="351" on="1"/>
        <pt x="389" y="393" on="0"/>
        <pt x="281" y="393" on="0"/>
        <pt x="188" y="310" on="0"/>
        <pt x="165" y="187" on="0"/>
        <pt x="230" y="104" on="0"/>
        <pt x="336" y="104" on="0"/>
        <pt x="430" y="187" on="0"/>
      </contour>
      <contour>
        <pt x="442" y="662" on="1"/>
        <pt x="376" y="617" on="1"/>
        <pt x="337" y="590" on="0"/>
        <pt x="294" y="590" on="1"/>
        <pt x="282" y="590" on="0"/>
        <pt x="270" y="601" on="0"/>
        <pt x="275" y="617" on="0"/>
        <pt x="292" y="634" on="1"/>
        <pt x="383" y="717" on="1"/>
        <pt x="415" y="746" on="0"/>
        <pt x="450" y="746" on="1"/>
        <pt x="486" y="746" on="1"/>
        <pt x="520" y="746" on="0"/>
        <pt x="535" y="717" on="1"/>
        <pt x="576" y="634" on="1"/>
        <pt x="584" y="619" on="0"/>
        <pt x="581" y="610" on="1"/>
        <pt x="575" y="590" on="0"/>
        <pt x="506" y="590" on="0"/>
        <pt x="480" y="617" on="1"/>
      </contour>
    </TTGlyph>
    <TTGlyph name="odieresis" xMin="70" yMin="-2" xMax="585" yMax="720">
      <contour>
        <pt x="169" y="425" on="1"/>
        <pt x="254" y="500" on="0"/>
        <pt x="451" y="500" on="0"/>
        <pt x="511" y="425" on="1"/>
        <pt x="566" y="351" on="0"/>
        <pt x="530" y="145" on="0"/>
        <pt x="448" y="73" on="1"/>
        <pt x="366" y="-2" on="0"/>
        <pt x="166" y="-2" on="0"/>
        <pt x="107" y="73" on="1"/>
        <pt x="52" y="146" on="0"/>
        <pt x="88" y="350" on="0"/>
      </contour>
      <contour>
        <pt x="442" y="249" on="1"/>
        <pt x="453" y="311" on="0"/>
        <pt x="419" y="351" on="1"/>
        <pt x="389" y="393" on="0"/>
        <pt x="281" y="393" on="0"/>
        <pt x="188" y="310" on="0"/>
        <pt x="165" y="187" on="0"/>
        <pt x="230" y="104" on="0"/>
        <pt x="336" y="104" on="0"/>
        <pt x="430" y="187" on="0"/>
      </contour>
      <contour>
        <pt x="505" y="720" on="0"/>
        <pt x="560" y="720" on="0"/>
        <pt x="590" y="685" on="0"/>
        <pt x="585" y="658" on="1"/>
        <pt x="580" y="626" on="0"/>
        <pt x="533" y="590" on="0"/>
        <pt x="478" y="590" on="0"/>
        <pt x="447" y="624" on="0"/>
        <pt x="453" y="651" on="1"/>
        <pt x="458" y="684" on="0"/>
      </contour>
      <contour>
        <pt x="306" y="720" on="0"/>
        <pt x="361" y="720" on="0"/>
        <pt x="391" y="685" on="0"/>
        <pt x="386" y="658" on="1"/>
        <pt x="381" y="626" on="0"/>
        <pt x="334" y="590" on="0"/>
        <pt x="279" y="590" on="0"/>
        <pt x="248" y="624" on="0"/>
        <pt x="254" y="651" on="1"/>
        <pt x="259" y="684" on="0"/>
      </contour>
    </TTGlyph>
    <TTGlyph name="oe" xMin="70" yMin="-2" xMax="954" yMax="510">
      <contour>
        <pt x="479" y="99" on="1"/>
        <pt x="386" y="-2" on="0"/>
        <pt x="268" y="-2" on="1"/>
        <pt x="166" y="-2" on="0"/>
        <pt x="52" y="148" on="0"/>
        <pt x="88" y="355" on="0"/>
        <pt x="171" y="432" on="1"/>
        <pt x="257" y="508" on="0"/>
        <pt x="459" y="508" on="0"/>
        <pt x="518" y="432" on="1"/>
        <pt x="533" y="408" on="1"/>
        <pt x="627" y="510" on="0"/>
        <pt x="751" y="510" on="1"/>
        <pt x="851" y="510" on="0"/>
        <pt x="967" y="376" on="0"/>
        <pt x="954" y="274" on="1"/>
        <pt x="954" y="247" on="0"/>
        <pt x="911" y="218" on="0"/>
        <pt x="890" y="218" on="1"/>
        <pt x="565" y="218" on="1"/>
        <pt x="565" y="178" on="0"/>
        <pt x="587" y="151" on="1"/>
        <pt x="600" y="133" on="0"/>
        <pt x="651" y="107" on="0"/>
        <pt x="677" y="105" on="1"/>
        <pt x="750" y="99" on="0"/>
        <pt x="799" y="144" on="1"/>
        <pt x="816" y="161" on="0"/>
        <pt x="853" y="160" on="0"/>
        <pt x="867" y="151" on="0"/>
        <pt x="885" y="132" on="0"/>
        <pt x="882" y="93" on="0"/>
        <pt x="868" y="79" on="1"/>
        <pt x="823" y="36" on="0"/>
        <pt x="727" y="0" on="0"/>
        <pt x="598" y="0" on="0"/>
        <pt x="505" y="53" on="0"/>
      </contour>
      <contour>
        <pt x="389" y="148" on="1"/>
        <pt x="436" y="190" on="0"/>
        <pt x="459" y="315" on="0"/>
        <pt x="425" y="357" on="1"/>
        <pt x="394" y="399" on="0"/>
        <pt x="284" y="399" on="0"/>
        <pt x="190" y="315" on="0"/>
        <pt x="178" y="253" on="1"/>
        <pt x="168" y="190" on="0"/>
        <pt x="200" y="148" on="1"/>
        <pt x="234" y="106" on="0"/>
        <pt x="341" y="106" on="0"/>
      </contour>
      <contour>
        <pt x="733" y="413" on="1"/>
        <pt x="673" y="410" on="0"/>
        <pt x="590" y="343" on="0"/>
        <pt x="575" y="305" on="1"/>
        <pt x="864" y="305" on="1"/>
        <pt x="862" y="341" on="0"/>
        <pt x="793" y="408" on="0"/>
      </contour>
    </TTGlyph>
    <TTGlyph name="ograve" xMin="70" yMin="-2" xMax="548" yMax="750">
      <contour>
        <pt x="169" y="425" on="1"/>
        <pt x="254" y="500" on="0"/>
        <pt x="451" y="500" on="0"/>
        <pt x="511" y="425" on="1"/>
        <pt x="566" y="351" on="0"/>
        <pt x="530" y="145" on="0"/>
        <pt x="448" y="73" on="1"/>
        <pt x="366" y="-2" on="0"/>
        <pt x="166" y="-2" on="0"/>
        <pt x="107" y="73" on="1"/>
        <pt x="52" y="146" on="0"/>
        <pt x="88" y="350" on="0"/>
      </contour>
      <contour>
        <pt x="442" y="249" on="1"/>
        <pt x="453" y="311" on="0"/>
        <pt x="419" y="351" on="1"/>
        <pt x="389" y="393" on="0"/>
        <pt x="281" y="393" on="0"/>
        <pt x="188" y="310" on="0"/>
        <pt x="165" y="187" on="0"/>
        <pt x="230" y="104" on="0"/>
        <pt x="336" y="104" on="0"/>
        <pt x="430" y="187" on="0"/>
      </contour>
      <contour>
        <pt x="508" y="611" on="1"/>
        <pt x="508" y="590" on="0"/>
        <pt x="435" y="590" on="0"/>
        <pt x="407" y="617" on="1"/>
        <pt x="339" y="681" on="1"/>
        <pt x="322" y="696" on="0"/>
        <pt x="322" y="725" on="0"/>
        <pt x="369" y="750" on="0"/>
        <pt x="424" y="750" on="0"/>
        <pt x="442" y="721" on="1"/>
        <pt x="499" y="633" on="1"/>
        <pt x="508" y="620" on="0"/>
      </contour>
    </TTGlyph>
    <TTGlyph name="one" xMin="41" yMin="-1" xMax="286" yMax="699">
      <contour>
        <pt x="284" y="669" on="1"/>
        <pt x="286" y="658" on="1"/>
        <pt x="286" y="647" on="1"/>
        <pt x="286" y="645" on="1"/>
        <pt x="286" y="644" on="0"/>
        <pt x="285" y="644" on="1"/>
        <pt x="181" y="54" on="1"/>
        <pt x="177" y="31" on="0"/>
        <pt x="139" y="-1" on="0"/>
        <pt x="93" y="-1" on="0"/>
        <pt x="67" y="32" on="0"/>
        <pt x="71" y="54" on="1"/>
        <pt x="158" y="547" on="1"/>
        <pt x="114" y="523" on="1"/>
        <pt x="98" y="515" on="0"/>
        <pt x="84" y="515" on="1"/>
        <pt x="54" y="515" on="0"/>
        <pt x="41" y="542" on="1"/>
        <pt x="33" y="562" on="0"/>
        <pt x="52" y="607" on="0"/>
        <pt x="74" y="618" on="1"/>
        <pt x="210" y="691" on="1"/>
        <pt x="210" y="692" on="0"/>
        <pt x="222" y="696" on="0"/>
        <pt x="222" y="696" on="1"/>
        <pt x="236" y="699" on="1"/>
        <pt x="241" y="699" on="1"/>
        <pt x="245" y="699" on="0"/>
        <pt x="247" y="698" on="1"/>
        <pt x="252" y="698" on="1"/>
        <pt x="266" y="692" on="1"/>
        <pt x="270" y="690" on="0"/>
        <pt x="270" y="689" on="1"/>
        <pt x="277" y="682" on="1"/>
        <pt x="278" y="682" on="0"/>
        <pt x="278" y="678" on="0"/>
        <pt x="282" y="675" on="0"/>
        <pt x="282" y="673" on="1"/>
        <pt x="283" y="672" on="1"/>
        <pt x="283" y="670" on="0"/>
      </contour>
    </TTGlyph>
    <TTGlyph name="otilde" xMin="70" yMin="-2" xMax="601" yMax="742">
      <contour>
        <pt x="169" y="425" on="1"/>
        <pt x="254" y="500" on="0"/>
        <pt x="451" y="500" on="0"/>
        <pt x="511" y="425" on="1"/>
        <pt x="566" y="351" on="0"/>
        <pt x="530" y="145" on="0"/>
        <pt x="448" y="73" on="1"/>
        <pt x="366" y="-2" on="0"/>
        <pt x="166" y="-2" on="0"/>
        <pt x="107" y="73" on="1"/>
        <pt x="52" y="146" on="0"/>
        <pt x="88" y="350" on="0"/>
      </contour>
      <contour>
        <pt x="442" y="249" on="1"/>
        <pt x="453" y="311" on="0"/>
        <pt x="419" y="351" on="1"/>
        <pt x="389" y="393" on="0"/>
        <pt x="281" y="393" on="0"/>
        <pt x="188" y="310" on="0"/>
        <pt x="165" y="187" on="0"/>
        <pt x="230" y="104" on="0"/>
        <pt x="336" y="104" on="0"/>
        <pt x="430" y="187" on="0"/>
      </contour>
      <contour>
        <pt x="305" y="603" on="1"/>
        <pt x="292" y="583" on="0"/>
        <pt x="257" y="583" on="0"/>
        <pt x="235" y="603" on="0"/>
        <pt x="235" y="625" on="0"/>
        <pt x="239" y="639" on="1"/>
        <pt x="256" y="685" on="0"/>
        <pt x="303" y="730" on="0"/>
        <pt x="371" y="730" on="0"/>
        <pt x="469" y="690" on="0"/>
        <pt x="485" y="690" on="1"/>
        <pt x="514" y="690" on="0"/>
        <pt x="531" y="722" on="1"/>
        <pt x="544" y="742" on="0"/>
        <pt x="579" y="742" on="0"/>
        <pt x="601" y="722" on="0"/>
        <pt x="601" y="700" on="0"/>
        <pt x="597" y="686" on="1"/>
        <pt x="580" y="640" on="0"/>
        <pt x="533" y="595" on="0"/>
        <pt x="465" y="595" on="0"/>
        <pt x="367" y="635" on="0"/>
        <pt x="351" y="635" on="1"/>
        <pt x="322" y="635" on="0"/>
      </contour>
    </TTGlyph>
    <TTGlyph name="p" xMin="98" yMin="-190" xMax="654" yMax="500">
      <contour>
        <pt x="454" y="500" on="1"/>
        <pt x="556" y="500" on="0"/>
        <pt x="672" y="352" on="0"/>
        <pt x="636" y="146" on="0"/>
        <pt x="467" y="-2" on="0"/>
        <pt x="366" y="-3" on="1"/>
        <pt x="290" y="-1" on="0"/>
        <pt x="238" y="40" on="1"/>
        <pt x="208" y="-135" on="1"/>
        <pt x="203" y="-158" on="0"/>
        <pt x="165" y="-190" on="0"/>
        <pt x="121" y="-190" on="0"/>
        <pt x="94" y="-158" on="0"/>
        <pt x="98" y="-135" on="1"/>
        <pt x="201" y="445" on="1"/>
        <pt x="205" y="468" on="0"/>
        <pt x="242" y="500" on="0"/>
        <pt x="284" y="500" on="0"/>
        <pt x="309" y="476" on="0"/>
        <pt x="310" y="458" on="1"/>
        <pt x="381" y="500" on="0"/>
      </contour>
      <contour>
        <pt x="487" y="149" on="1"/>
        <pt x="536" y="188" on="0"/>
        <pt x="545" y="249" on="1"/>
        <pt x="556" y="310" on="0"/>
        <pt x="489" y="391" on="0"/>
        <pt x="381" y="391" on="0"/>
        <pt x="332" y="350" on="1"/>
        <pt x="285" y="306" on="0"/>
        <pt x="276" y="249" on="1"/>
        <pt x="263" y="191" on="0"/>
        <pt x="331" y="107" on="0"/>
        <pt x="439" y="107" on="0"/>
      </contour>
    </TTGlyph>
    <TTGlyph name="parenleft" xMin="92" yMin="-95" xMax="453" yMax="705">
      <contour>
        <pt x="258" y="-95" on="1"/>
        <pt x="192" y="-95" on="0"/>
        <pt x="151" y="-58" on="1"/>
        <pt x="44" y="39" on="0"/>
        <pt x="92" y="305" on="1"/>
        <pt x="138" y="571" on="0"/>
        <pt x="275" y="665" on="1"/>
        <pt x="333" y="705" on="0"/>
        <pt x="402" y="705" on="1"/>
        <pt x="428" y="705" on="0"/>
        <pt x="458" y="668" on="0"/>
        <pt x="448" y="616" on="0"/>
        <pt x="405" y="578" on="0"/>
        <pt x="354" y="578" on="0"/>
        <pt x="313" y="551" on="0"/>
        <pt x="291" y="516" on="1"/>
        <pt x="241" y="440" on="0"/>
        <pt x="219" y="305" on="1"/>
        <pt x="200" y="206" on="0"/>
        <pt x="216" y="67" on="0"/>
        <pt x="243" y="45" on="1"/>
        <pt x="257" y="32" on="0"/>
        <pt x="309" y="31" on="0"/>
        <pt x="339" y="-6" on="0"/>
        <pt x="330" y="-58" on="0"/>
        <pt x="286" y="-95" on="0"/>
        <pt x="260" y="-95" on="1"/>
      </contour>
    </TTGlyph>
    <TTGlyph name="parenright" xMin="66" yMin="-95" xMax="427" yMax="705">
      <contour>
        <pt x="261" y="705" on="1"/>
        <pt x="327" y="705" on="0"/>
        <pt x="368" y="668" on="1"/>
        <pt x="475" y="571" on="0"/>
        <pt x="427" y="305" on="1"/>
        <pt x="381" y="39" on="0"/>
        <pt x="244" y="-55" on="1"/>
        <pt x="186" y="-95" on="0"/>
        <pt x="117" y="-95" on="1"/>
        <pt x="91" y="-95" on="0"/>
        <pt x="61" y="-58" on="0"/>
        <pt x="71" y="-6" on="0"/>
        <pt x="114" y="32" on="0"/>
        <pt x="165" y="32" on="0"/>
        <pt x="206" y="59" on="0"/>
        <pt x="228" y="94" on="1"/>
        <pt x="278" y="170" on="0"/>
        <pt x="300" y="305" on="1"/>
        <pt x="319" y="404" on="0"/>
        <pt x="303" y="543" on="0"/>
        <pt x="276" y="565" on="1"/>
        <pt x="262" y="578" on="0"/>
        <pt x="210" y="579" on="0"/>
        <pt x="180" y="616" on="0"/>
        <pt x="185" y="642" on="1"/>
        <pt x="189" y="668" on="0"/>
        <pt x="233" y="705" on="0"/>
        <pt x="259" y="705" on="1"/>
      </contour>
    </TTGlyph>
</ttFont>
